<svg width="1920" height="1080" viewBox="0 0 1920 1080" fill="none" xmlns="http://www.w3.org/2000/svg">
<g clip-path="url(#clip0_2378_47207)">
<rect width="1926" height="1080" fill="#1A1B20"/>
<path d="M738.016 927.24H752.032C751.371 925.64 750.667 924.243 749.92 923.048L751.104 922.824C751.872 924.232 752.555 925.704 753.152 927.24H766.016V928.296H738.016V927.24ZM756.704 930.184C760.267 933.064 763.232 935.965 765.6 938.888L764.8 939.656C762.475 936.819 759.52 933.896 755.936 930.888L756.704 930.184ZM758.976 936.488C757.397 939.581 755.381 942.259 752.928 944.52C756.533 947.336 760.971 949.448 766.24 950.856L765.6 951.848C760.096 950.291 755.595 948.093 752.096 945.256C748.469 948.349 743.968 950.6 738.592 952.008L737.952 951.048C743.371 949.64 747.808 947.485 751.264 944.584C748.661 942.344 746.581 939.773 745.024 936.872L745.984 936.328C747.541 939.229 749.579 941.736 752.096 943.848C754.507 941.629 756.459 939.027 757.952 936.04L758.976 936.488ZM747.936 930.92C745.44 934.12 742.443 936.883 738.944 939.208L738.24 938.312C741.696 936.051 744.661 933.341 747.136 930.184L747.936 930.92ZM770.528 924.744H797.408V925.864H780.16L778.624 932.296H792.672L789.952 949.768H798.336V950.824H770.048V949.768H788.864L789.984 942.76H775.008L779.008 925.864H770.528V924.744ZM790.144 941.704L791.488 933.352H778.368L776.352 941.704H790.144ZM813.216 922.76H814.4L802.784 952.2H801.6L813.216 922.76ZM822.72 937.416C821.227 939.101 819.595 940.712 817.824 942.248L817.472 941.128C822.229 937.011 825.291 933.011 826.656 929.128H818.24V928.072H827.744V929.032C826.912 931.421 825.589 933.789 823.776 936.136V936.232C825.589 937.405 827.243 938.749 828.736 940.264L828.096 941.192C826.688 939.656 825.248 938.397 823.776 937.416V952.072H822.72V937.416ZM822.72 922.728C823.616 924.349 824.267 925.736 824.672 926.888L823.68 927.24C823.125 925.768 822.453 924.371 821.664 923.048L822.72 922.728ZM843.744 924.584V941.8H842.656V925.64H832.16V941.8H831.072V924.584H843.744ZM840.608 951.56C839.157 951.56 838.432 950.824 838.432 949.352V941.8H839.52V949.128C839.52 950.045 839.989 950.504 840.928 950.504H843.36C844.043 950.504 844.512 950.323 844.768 949.96C845.109 949.469 845.344 948.072 845.472 945.768L846.496 946.088C846.325 948.584 846.016 950.163 845.568 950.824C845.141 951.315 844.48 951.56 843.584 951.56H840.608ZM836.8 928.36H837.888V934.6C837.867 939.315 837.077 943.091 835.52 945.928C834.048 948.552 831.595 950.632 828.16 952.168L827.52 951.176C830.869 949.768 833.301 947.731 834.816 945.064C836.117 942.355 836.779 938.867 836.8 934.6V928.36ZM872.128 934.984V945.8H871.072V936.04H856.928V945.8H855.872V934.984H872.128ZM876.928 929.48V935.272H875.84V930.536H852.192V935.24H851.104V929.48H868.96C870.475 927.453 871.733 925.341 872.736 923.144L873.792 923.528C872.64 925.96 871.424 927.944 870.144 929.48H876.928ZM854.304 923.752C855.371 925.288 856.352 926.941 857.248 928.712L856.288 929.192C855.243 927.187 854.261 925.533 853.344 924.232L854.304 923.752ZM862.528 922.952C863.445 924.488 864.277 926.131 865.024 927.88L864.032 928.36C863.307 926.589 862.485 924.947 861.568 923.432L862.528 922.952ZM862.976 938.664H864.032V942.184C864.011 944.893 862.997 947.069 860.992 948.712C859.093 950.205 855.904 951.4 851.424 952.296L850.784 951.304C855.157 950.536 858.336 949.416 860.32 947.944C862.027 946.493 862.912 944.573 862.976 942.184V938.664ZM867.872 951.528C866.229 951.528 865.408 950.717 865.408 949.096V942.792H866.464V948.872C866.464 949.917 867.04 950.44 868.192 950.44H874.176C875.008 950.44 875.595 950.269 875.936 949.928C876.341 949.437 876.64 947.997 876.832 945.608L877.856 945.928C877.664 948.509 877.28 950.131 876.704 950.792C876.256 951.283 875.488 951.528 874.4 951.528H867.872ZM893.216 922.76H894.4L882.784 952.2H881.6L893.216 922.76ZM911.552 922.568C912.192 923.741 912.768 925.107 913.28 926.664H924.768V927.72H918.912C918.507 929.789 917.867 931.795 916.992 933.736H925.44V934.792H902.016V940.168C901.888 945.117 900.693 949.075 898.432 952.04L897.632 951.304C899.723 948.616 900.811 944.904 900.896 940.168V933.736H907.552L905.952 927.72H899.808V926.664H912.192C911.616 925.107 911.029 923.805 910.432 922.76L911.552 922.568ZM908.672 933.736H915.872C916.811 931.88 917.461 929.875 917.824 927.72H907.04L908.672 933.736ZM935.552 924.744H952.352V934.12H935.552V924.744ZM951.232 933.032V925.832H936.672V933.032H951.232ZM941.728 938.536V951.56H940.64V949.768H932.512V951.56H931.424V938.536H941.728ZM932.512 948.712H940.64V939.592H932.512V948.712ZM956.544 938.536V951.56H955.456V949.768H947.04V951.56H945.952V938.536H956.544ZM947.04 948.712H955.456V939.592H947.04V948.712ZM980.992 923.08H982.08V933.032C984.875 935.123 987.691 937.501 990.528 940.168L989.856 941.096C986.763 938.067 984.171 935.773 982.08 934.216V952.008H980.992V923.08ZM966.944 935.976C968.907 937.085 970.72 938.408 972.384 939.944C974.219 936.723 975.392 933.085 975.904 929.032H968.48C966.944 932.765 964.864 935.827 962.24 938.216L961.536 937.32C965.312 933.8 967.872 929.043 969.216 923.048L970.304 923.24C969.941 924.84 969.472 926.419 968.896 927.976H976.96V928.904C975.872 938.632 971.157 945.992 962.816 950.984L962.08 950.056C966.304 947.56 969.568 944.488 971.872 940.84C970.037 939.133 968.192 937.811 966.336 936.872L966.944 935.976ZM1019.52 924.584V941.544H1018.46V925.64H1008.1V941.544H1007.04V924.584H1019.52ZM1016.38 951.496C1014.91 951.496 1014.18 950.76 1014.18 949.288V941.8H1015.26V949.096C1015.26 949.992 1015.74 950.44 1016.7 950.44H1019.14C1019.9 950.44 1020.44 950.259 1020.74 949.896C1021.14 949.384 1021.43 947.933 1021.6 945.544L1022.56 945.864C1022.43 948.445 1022.09 950.077 1021.54 950.76C1021.09 951.251 1020.35 951.496 1019.33 951.496H1016.38ZM1012.7 928.36H1013.79V934.856C1013.75 939.464 1012.9 943.155 1011.23 945.928C1009.59 948.488 1006.91 950.525 1003.2 952.04L1002.56 951.08C1006.21 949.672 1008.86 947.667 1010.53 945.064C1011.96 942.419 1012.68 939.016 1012.7 934.856V928.36ZM994.848 930.472C996.811 932.776 998.741 935.283 1000.64 937.992C1001.66 934.664 1002.3 931.016 1002.56 927.048H994.24V925.96H1003.58V926.824C1003.39 931.368 1002.66 935.464 1001.38 939.112C1002.98 941.459 1004.33 943.635 1005.44 945.64L1004.64 946.408C1003.59 944.509 1002.36 942.493 1000.93 940.36C999.371 944.307 997.141 947.731 994.24 950.632L993.536 949.832C996.523 946.845 998.741 943.325 1000.19 939.272C998.485 936.755 996.448 934.056 994.08 931.176L994.848 930.472ZM1029.47 944.968C1030.39 945.608 1031.53 946.621 1032.9 948.008C1033.98 949.16 1034.85 950.184 1035.49 951.08L1034.62 951.848C1033.98 950.931 1033.13 949.907 1032.06 948.776C1030.87 947.496 1029.75 946.483 1028.7 945.736L1029.47 944.968ZM1062.21 927.656H1057.92V926.568H1067.49V927.656H1063.3V943.688C1064.79 943.176 1066.31 942.611 1067.87 941.992V943.08C1065.1 944.253 1061.78 945.352 1057.92 946.376L1057.63 945.32C1058.81 945.043 1060.33 944.616 1062.21 944.04V927.656ZM1069.02 924.808H1086.43V925.896H1078.4C1078.21 927.432 1077.9 928.936 1077.47 930.408H1084.48V944.808H1083.39V931.496H1071.97V944.808H1070.91V930.408H1076.42C1076.82 929.085 1077.13 927.581 1077.34 925.896H1069.02V924.808ZM1079.65 945.256C1082.53 947.389 1084.9 949.48 1086.75 951.528L1085.98 952.296C1084.17 950.248 1081.82 948.136 1078.94 945.96L1079.65 945.256ZM1076.93 934.216H1078.02V939.56C1077.97 942.973 1077.1 945.683 1075.39 947.688C1073.69 949.565 1070.93 951.059 1067.14 952.168L1066.5 951.208C1070.23 950.227 1072.95 948.797 1074.66 946.92C1076.11 945.064 1076.86 942.611 1076.93 939.56V934.216ZM1114.53 925.064V952.008H1113.47V949.64H1094.53V952.008H1093.47V925.064H1114.53ZM1094.53 948.552H1113.47V941.704H1094.53V948.552ZM1094.53 940.648H1113.47V933.896H1094.53V940.648ZM1094.53 932.84H1113.47V926.152H1094.53V932.84ZM1136.16 931.4V936.136H1146.69V931.4H1136.16ZM1146.69 930.376V925.608H1136.16V930.376H1146.69ZM1149.57 940.328C1148.07 942.248 1146.35 943.656 1144.38 944.552C1145.9 946.963 1147.96 949.011 1150.56 950.696L1149.95 951.624C1144.79 948.211 1141.64 943.389 1140.51 937.16H1136.16V950.248C1138.4 949.629 1140.61 948.797 1142.78 947.752L1143.04 948.84C1140.93 949.779 1138.18 950.717 1134.78 951.656L1134.56 950.728C1134.92 950.6 1135.1 950.408 1135.1 950.152V924.584H1147.78V937.16H1141.5C1141.95 939.549 1142.74 941.736 1143.87 943.72C1145.69 942.867 1147.34 941.501 1148.83 939.624L1149.57 940.328ZM1123.17 924.744H1132.1V933.64H1128.77V939.688H1132.77V940.744H1128.77V948.232C1130.35 947.72 1131.85 947.208 1133.28 946.696V947.752C1130.1 948.989 1126.27 950.141 1121.79 951.208L1121.5 950.12L1123.36 949.704V937.352H1124.38V949.448C1125.64 949.128 1126.75 948.829 1127.71 948.552V933.64H1123.17V924.744ZM1131.04 932.584V925.832H1124.26V932.584H1131.04ZM1155.65 923.816C1157.85 925.48 1159.68 927.123 1161.15 928.744L1160.38 929.512C1158.95 927.912 1157.13 926.259 1154.91 924.552L1155.65 923.816ZM1174.72 951.432C1173.65 951.432 1171.78 951.411 1169.09 951.368C1166.95 951.304 1165.33 951.091 1164.22 950.728C1162.94 950.344 1161.79 949.523 1160.77 948.264C1160.36 947.709 1159.96 947.432 1159.55 947.432C1158.61 947.432 1157.15 948.947 1155.17 951.976L1154.3 951.24C1156.18 948.339 1157.77 946.728 1159.07 946.408V935.56H1154.11V934.472H1160.13V946.44C1160.51 946.589 1160.94 946.931 1161.41 947.464C1162.18 948.445 1163.09 949.171 1164.16 949.64C1165.21 950.024 1166.67 950.248 1168.54 950.312C1170.55 950.355 1172.55 950.376 1174.56 950.376L1182.24 950.28L1181.98 951.432H1174.72ZM1163.9 928.456H1168.1V922.984H1169.15V928.456H1175.36V923.016H1176.45V928.456H1180.93V929.512H1176.45V936.968H1181.98V938.056H1176.45V947.976H1175.36V938.056H1168.64C1167.85 942.173 1166.15 945.192 1163.55 947.112L1162.91 946.248C1165.32 944.52 1166.88 941.789 1167.58 938.056H1162.78V936.968H1167.78C1167.99 935.411 1168.1 933.907 1168.1 932.456V929.512H1163.9V928.456ZM1169.15 929.512V932.2C1169.15 933.736 1169.05 935.325 1168.83 936.968H1175.36V929.512H1169.15Z" fill="white"/>
<path fill-rule="evenodd" clip-rule="evenodd" d="M801.444 369.102L765.879 430.494L771.418 421.405L776.389 412.458L801.444 369.102Z" fill="#DE5831"/>
<path fill-rule="evenodd" clip-rule="evenodd" d="M765.879 448.53H780.541L780.595 448.417L765.879 448.53Z" fill="#DE5831"/>
<path fill-rule="evenodd" clip-rule="evenodd" d="M780.541 448.53H817.29L780.593 448.417L780.541 448.53Z" fill="#DE5831"/>
<g clip-path="url(#paint0_angular_2378_47207_clip_path)" data-figma-skip-parse="true"><g transform="matrix(0.0274431 0.039866 -0.0415444 0.0254821 834.955 458.9)"><foreignObject x="-2664.39" y="-2664.39" width="5328.78" height="5328.78"><div xmlns="http://www.w3.org/1999/xhtml" style="background:conic-gradient(from 90deg,rgba(12, 177, 228, 1) 0deg,rgba(74, 234, 236, 1) 211.903deg,rgba(12, 177, 228, 1) 360deg);height:100%;width:100%;opacity:1"></div></foreignObject></g></g><path d="M826.947 465.288L811.609 474.378L791.25 474.346L740.6 474.378V404.221L801.384 369L801.444 369.102L765.879 430.494V448.53H817.29L826.947 465.288Z" data-figma-gradient-fill="{&#34;type&#34;:&#34;GRADIENT_ANGULAR&#34;,&#34;stops&#34;:[{&#34;color&#34;:{&#34;r&#34;:0.29019609093666077,&#34;g&#34;:0.91764706373214722,&#34;b&#34;:0.92549020051956177,&#34;a&#34;:1.0},&#34;position&#34;:0.58861923217773438},{&#34;color&#34;:{&#34;r&#34;:0.047058824449777603,&#34;g&#34;:0.69411766529083252,&#34;b&#34;:0.89411765336990356,&#34;a&#34;:1.0},&#34;position&#34;:1.0}],&#34;stopsVar&#34;:[],&#34;transform&#34;:{&#34;m00&#34;:54.886100769042969,&#34;m01&#34;:-83.088775634765625,&#34;m02&#34;:849.05627441406250,&#34;m10&#34;:79.731948852539062,&#34;m11&#34;:50.964122772216797,&#34;m12&#34;:393.55212402343750},&#34;opacity&#34;:1.0,&#34;blendMode&#34;:&#34;NORMAL&#34;,&#34;visible&#34;:true}"/>
<g clip-path="url(#paint1_angular_2378_47207_clip_path)" data-figma-skip-parse="true"><g transform="matrix(-0.0428932 0.0091039 -0.00779423 -0.0408575 784.754 464.118)"><foreignObject x="-2515.46" y="-2515.46" width="5030.93" height="5030.93"><div xmlns="http://www.w3.org/1999/xhtml" style="background:conic-gradient(from 90deg,rgba(27, 72, 231, 1) 0deg,rgba(118, 131, 248, 1) 206.718deg,rgba(27, 72, 231, 1) 360deg);height:100%;width:100%;opacity:1"></div></foreignObject></g></g><path d="M862.398 404.283V474.378H862.281L837.193 430.923L832.341 422.635L826.797 412.918L826.794 412.915L811.334 403.991L803.977 416.732L783.208 448.482H766.033V430.593L776.193 412.997L776.312 412.793L801.518 369.133L862.398 404.283Z" data-figma-gradient-fill="{&#34;type&#34;:&#34;GRADIENT_ANGULAR&#34;,&#34;stops&#34;:[{&#34;color&#34;:{&#34;r&#34;:0.46312499046325684,&#34;g&#34;:0.51431250572204590,&#34;b&#34;:0.97500002384185791,&#34;a&#34;:1.0},&#34;position&#34;:0.57421630620956421},{&#34;color&#34;:{&#34;r&#34;:0.10597222298383713,&#34;g&#34;:0.28385415673255920,&#34;b&#34;:0.90833336114883423,&#34;a&#34;:1.0},&#34;position&#34;:1.0}],&#34;stopsVar&#34;:[],&#34;transform&#34;:{&#34;m00&#34;:-85.786460876464844,&#34;m01&#34;:-15.588456153869629,&#34;m02&#34;:835.44146728515625,&#34;m10&#34;:18.207796096801758,&#34;m11&#34;:-81.71496582031250,&#34;m12&#34;:495.87152099609375},&#34;opacity&#34;:1.0,&#34;blendMode&#34;:&#34;NORMAL&#34;,&#34;visible&#34;:true}"/>
<g clip-path="url(#paint2_angular_2378_47207_clip_path)" data-figma-skip-parse="true"><g transform="matrix(0.0197401 -0.0649029 -0.0620573 -0.0188758 795.011 439.868)"><foreignObject x="-1344.48" y="-1344.48" width="2688.96" height="2688.96"><div xmlns="http://www.w3.org/1999/xhtml" style="background:conic-gradient(from 90deg,rgba(176, 57, 160, 1) 0deg,rgba(176, 57, 160, 1) 1.37785deg,rgba(250, 140, 201, 1) 138.859deg,rgba(176, 57, 160, 1) 360deg);height:100%;width:100%;opacity:1"></div></foreignObject></g></g><path d="M862.077 474.284L801.197 509.434L740.492 474.383L740.549 474.284H790.73L801.197 474.383L811.854 474.284H811.518L826.981 465.354L819.625 452.615L801.915 419.701L811.325 403.937L826.592 412.824L862.077 474.284Z" data-figma-gradient-fill="{&#34;type&#34;:&#34;GRADIENT_ANGULAR&#34;,&#34;stops&#34;:[{&#34;color&#34;:{&#34;r&#34;:0.69166666269302368,&#34;g&#34;:0.22479166090488434,&#34;b&#34;:0.62857532501220703,&#34;a&#34;:1.0},&#34;position&#34;:0.0038273506797850132},{&#34;color&#34;:{&#34;r&#34;:0.98333334922790527,&#34;g&#34;:0.54902780055999756,&#34;b&#34;:0.78993165493011475,&#34;a&#34;:1.0},&#34;position&#34;:0.38571974635124207}],&#34;stopsVar&#34;:[],&#34;transform&#34;:{&#34;m00&#34;:39.480140686035156,&#34;m01&#34;:-124.11458587646484,&#34;m02&#34;:837.32824707031250,&#34;m10&#34;:-129.80580139160156,&#34;m11&#34;:-37.751602172851562,&#34;m12&#34;:523.64642333984375},&#34;opacity&#34;:1.0,&#34;blendMode&#34;:&#34;NORMAL&#34;,&#34;visible&#34;:true}"/>
<path d="M817.29 448.53H765.879V430.494L801.444 369.102M780.541 448.53L780.593 448.417L817.29 448.53L826.947 465.288L811.609 474.378L791.25 474.346L740.6 474.378V404.221L801.384 369L801.444 369.102L776.389 412.458L771.418 421.405L765.879 430.494M765.879 448.53H780.541M765.879 448.53L780.595 448.417L780.541 448.53M780.541 448.53H817.29M862.398 404.283V474.378H862.281L837.193 430.923L832.341 422.635L826.797 412.918L826.794 412.915L811.334 403.99L803.977 416.732L783.208 448.482H766.033V430.593L776.193 412.997L776.312 412.793L801.518 369.133L862.398 404.283ZM862.077 474.284L801.197 509.434L740.492 474.383L740.549 474.284H790.73L801.197 474.383L811.854 474.284H811.518L826.981 465.354L819.625 452.615L801.915 419.701L811.325 403.937L826.592 412.824L862.077 474.284Z" stroke="white" stroke-width="2"/>
<mask id="path-5-outside-1_2378_47207" maskUnits="userSpaceOnUse" x="889.752" y="391.641" width="292" height="96" fill="black">
<rect fill="white" x="889.752" y="391.641" width="292" height="96"/>
<path d="M1023.09 409.058C1023.09 411.563 1021.96 413.811 1019.71 415.803C1017.47 417.794 1015.35 418.79 1013.35 418.79C1011.43 418.79 1009.56 417.891 1007.77 416.092C1005.97 414.293 1003.33 411.884 999.865 408.865C998.323 407.516 997.552 405.782 997.552 403.662C997.552 401.478 998.516 399.358 1000.44 397.302C1002.43 395.182 1004.59 394.122 1006.9 394.122C1009.28 394.122 1011.68 395.182 1014.13 397.302C1016.57 399.358 1018.65 401.285 1020.39 403.084C1022.19 404.818 1023.09 406.809 1023.09 409.058ZM1074.64 474.292C1074.64 480.78 1071.94 484.024 1066.54 484.024H1049.49C1046.73 484.024 1044.7 483.253 1043.42 481.711C1042.13 480.169 1041.49 477.696 1041.49 474.292C1041.49 470.887 1041.84 468.542 1042.55 467.257C1043.32 465.973 1044.7 465.33 1046.69 465.33C1047.4 465.33 1048.65 465.459 1050.45 465.716C1052.25 465.973 1053.6 466.101 1054.5 466.101C1055.46 466.101 1056.07 465.941 1056.33 465.619C1056.65 465.298 1056.81 464.656 1056.81 463.692V418.693C1056.81 417.987 1056.72 417.537 1056.52 417.344C1056.33 417.088 1055.88 416.959 1055.17 416.959H1034.07C1031.18 416.959 1029.19 416.381 1028.1 415.225C1027.01 414.068 1026.46 411.692 1026.46 408.094C1026.46 404.497 1027.01 402.12 1028.1 400.964C1029.25 399.807 1031.24 399.229 1034.07 399.229H1061.82C1067.67 399.229 1071.27 400.193 1072.61 402.12C1073.96 403.983 1074.64 407.484 1074.64 412.623V474.292ZM1009.21 476.122C1009.21 479.334 1008.57 481.486 1007.28 482.578C1006.06 483.735 1003.85 484.313 1000.64 484.313C997.424 484.313 995.175 483.767 993.891 482.675C992.606 481.583 991.963 479.398 991.963 476.122V424.186C991.963 420.91 992.606 418.726 993.891 417.634C995.24 416.542 997.488 415.995 1000.64 415.995C1002.18 415.995 1003.24 416.285 1003.82 416.863C1005.36 418.533 1006.74 419.818 1007.96 420.717C1008.79 421.359 1009.21 422.516 1009.21 424.186V476.122ZM1053.54 454.538C1053.54 457.172 1053.34 459.228 1052.96 460.705C1052.64 462.118 1051.93 462.729 1050.84 462.536C1048.91 462.215 1047.05 462.054 1045.25 462.054C1043.45 462.054 1041.91 462.632 1040.62 463.789C1040.3 464.11 1039.98 464.335 1039.66 464.463C1039.34 464.592 1038.7 464.656 1037.73 464.656H1023.95C1019.46 464.656 1016.5 463.981 1015.09 462.632C1013.74 461.219 1013.07 458.457 1013.07 454.346V430.931C1013.07 426.691 1013.64 423.897 1014.8 422.548C1015.96 421.199 1019.04 420.524 1024.05 420.524H1042.65C1047.34 420.524 1050.32 421.295 1051.61 422.837C1052.89 424.379 1053.54 427.077 1053.54 430.931V454.538ZM1038.12 447.793V437.387C1038.12 436.552 1037.96 435.974 1037.64 435.652C1037.38 435.331 1036.93 435.171 1036.29 435.171H1030.22C1029.57 435.171 1029.09 435.331 1028.77 435.652C1028.51 435.909 1028.39 436.487 1028.39 437.387V447.793C1028.39 448.693 1028.51 449.271 1028.77 449.528C1029.03 449.72 1029.51 449.817 1030.22 449.817H1036.29C1036.99 449.817 1037.48 449.688 1037.73 449.431C1037.99 449.11 1038.12 448.564 1038.12 447.793Z"/>
<path d="M968.26 407.516C967.296 407.516 965.915 406.906 964.116 405.685C962.318 404.465 960.647 403.437 959.106 402.602C957.628 401.767 956.889 400.803 956.889 399.711C956.889 398.555 957.371 397.27 958.335 395.857C959.363 394.379 960.551 393.641 961.9 393.641C963.249 393.641 965.433 394.636 968.452 396.628C971.536 398.555 973.077 400.161 973.077 401.446C973.077 402.73 972.531 404.079 971.439 405.493C970.347 406.842 969.287 407.516 968.26 407.516ZM939.449 400.289C940.091 400.289 940.412 400 940.412 399.422C940.412 395.76 943.464 393.93 949.566 393.93C951.429 393.93 952.714 394.058 953.421 394.315C954.127 394.508 954.48 394.893 954.48 395.471C954.48 395.985 954.32 396.66 953.999 397.495C953.677 398.266 953.517 399.101 953.517 400C953.517 400.835 953.806 401.703 954.384 402.602C955.026 403.501 956.375 404.593 958.431 405.878C960.551 407.163 962.446 408.319 964.116 409.347C965.851 410.31 967.424 410.792 968.838 410.792C970.251 410.792 971.825 409.764 973.559 407.709C975.294 405.589 976.193 403.983 976.257 402.891C976.321 401.735 976.482 401.028 976.739 400.771C976.996 400.514 977.349 400.386 977.799 400.386C978.827 400.386 979.822 400.964 980.786 402.12C981.75 403.276 982.231 404.882 982.231 406.938C982.231 408.994 981.782 410.439 980.882 411.274C980.047 412.109 978.249 412.527 975.486 412.527H959.106C958.656 412.527 958.367 412.623 958.238 412.816C958.11 413.008 958.046 413.426 958.046 414.068C958.046 414.646 958.11 415.032 958.238 415.225C958.367 415.417 958.624 415.514 959.009 415.514H968.645C975.069 415.514 978.281 417.762 978.281 422.259V441.626C978.281 446.573 975.711 449.046 970.572 449.046C967.681 449.046 965.722 448.661 964.694 447.89C963.731 447.055 963.249 445.449 963.249 443.072C963.249 442.622 963.153 442.333 962.96 442.205C962.767 442.076 962.382 442.012 961.804 442.012C959.363 442.012 957.468 442.301 956.119 442.879C954.834 443.457 953.774 444.485 952.939 445.963C952.168 447.44 951.526 448.339 951.012 448.661C950.498 448.982 949.502 449.142 948.025 449.142C946.611 449.142 945.327 448.821 944.17 448.179C943.014 447.472 942.339 446.733 942.147 445.963C942.018 445.449 941.761 445.192 941.376 445.192H937.714C937.2 445.192 936.911 445.417 936.847 445.866C936.333 448.371 933.507 449.624 928.368 449.624C923.293 449.624 920.755 447.569 920.755 443.457V425.535C920.755 422.387 921.591 419.946 923.261 418.212C924.931 416.413 927.083 415.514 929.717 415.514H940.22C940.605 415.514 940.83 415.449 940.894 415.321C941.023 415.128 941.087 414.711 941.087 414.068C941.087 413.426 940.99 413.008 940.798 412.816C940.669 412.623 940.412 412.527 940.027 412.527H927.019C924.192 412.527 922.201 412.077 921.045 411.178C919.888 410.214 919.31 408.64 919.31 406.456C919.31 404.208 919.92 402.634 921.141 401.735C922.361 400.771 924.353 400.289 927.115 400.289H939.449ZM962.96 427.847C963.41 427.847 963.699 427.751 963.827 427.558C963.956 427.366 964.02 426.884 964.02 426.113C964.02 425.342 963.956 424.86 963.827 424.668C963.699 424.475 963.41 424.379 962.96 424.379H958.046C957.66 424.379 957.403 424.475 957.275 424.668C957.146 424.86 957.082 425.342 957.082 426.113C957.082 426.884 957.146 427.366 957.275 427.558C957.403 427.751 957.66 427.847 958.046 427.847H962.96ZM941.087 427.847C941.536 427.847 941.826 427.751 941.954 427.558C942.083 427.366 942.147 426.884 942.147 426.113C942.147 425.342 942.083 424.86 941.954 424.668C941.826 424.475 941.536 424.379 941.087 424.379H936.269C935.819 424.379 935.53 424.475 935.402 424.668C935.273 424.86 935.209 425.342 935.209 426.113C935.209 426.884 935.273 427.366 935.402 427.558C935.53 427.751 935.819 427.847 936.269 427.847H941.087ZM962.96 437.579C963.41 437.579 963.699 437.483 963.827 437.29C963.956 437.033 964.02 436.52 964.02 435.749C964.02 434.978 963.956 434.496 963.827 434.303C963.699 434.111 963.41 434.014 962.96 434.014H958.046C957.596 434.014 957.307 434.111 957.178 434.303C957.114 434.496 957.082 435.01 957.082 435.845C957.082 436.616 957.114 437.098 957.178 437.29C957.307 437.483 957.596 437.579 958.046 437.579H962.96ZM941.087 437.579C941.536 437.579 941.826 437.483 941.954 437.29C942.083 437.033 942.147 436.52 942.147 435.749C942.147 434.978 942.083 434.496 941.954 434.303C941.826 434.111 941.536 434.014 941.087 434.014H936.269C935.819 434.014 935.53 434.111 935.402 434.303C935.273 434.496 935.209 434.978 935.209 435.749C935.209 436.52 935.273 437.033 935.402 437.29C935.594 437.483 935.884 437.579 936.269 437.579H941.087ZM899.846 401.735C899.846 398.908 900.585 396.981 902.062 395.953C903.604 394.925 905.852 394.411 908.807 394.411C911.762 394.411 914.01 394.893 915.552 395.857C917.094 396.756 917.865 397.88 917.865 399.229C917.865 399.807 917.704 400.386 917.383 400.964C916.548 402.57 916.13 404.336 916.13 406.263C916.13 408.126 916.419 409.732 916.998 411.081C917.576 412.43 918.314 413.426 919.214 414.068C920.177 414.646 920.659 415.16 920.659 415.61C920.659 415.995 920.338 416.67 919.696 417.634C918.347 419.753 917.672 422.002 917.672 424.379V443.843C917.672 445.384 917.608 446.444 917.479 447.022C917.351 447.536 916.998 448.018 916.419 448.468C915.905 448.918 915.392 449.881 914.878 451.359C914.428 452.836 914.203 454.442 914.203 456.176C914.203 460.48 915.327 463.275 917.576 464.559C918.218 464.945 918.539 465.587 918.539 466.487V476.219C918.539 478.66 918.314 480.458 917.865 481.615C917.479 482.835 916.644 483.67 915.359 484.12C914.139 484.57 911.826 484.794 908.422 484.794C905.081 484.794 902.801 484.281 901.58 483.253C900.424 482.225 899.846 480.041 899.846 476.7V434.014C899.846 433.5 899.621 433.243 899.171 433.243C896.152 433.243 894.161 432.44 893.197 430.834C892.234 429.229 891.752 426.691 891.752 423.222C891.752 419.753 892.234 417.312 893.197 415.899C894.225 414.486 896.056 413.779 898.69 413.779C899.139 413.779 899.428 413.747 899.557 413.683C899.75 413.554 899.846 413.265 899.846 412.816V401.735ZM972.596 452.033C973.238 452.033 974.202 451.808 975.486 451.359C976.835 450.909 977.735 450.459 978.184 450.01C978.634 449.56 979.148 449.335 979.726 449.335C980.368 449.335 980.979 449.817 981.557 450.78C982.199 451.744 982.52 452.965 982.52 454.442C982.52 458.296 981.782 460.705 980.304 461.669C978.891 462.632 976.771 463.114 973.945 463.114C973.366 463.114 973.077 463.467 973.077 464.174V474.773C973.077 477.6 972.274 479.88 970.668 481.615C969.127 483.413 967.135 484.313 964.694 484.313H952.072C946.611 484.313 943.881 483.413 943.881 481.615C943.881 480.715 944.524 479.72 945.808 478.628C947.157 477.536 948.217 476.476 948.988 475.448C949.759 474.484 950.337 473.521 950.723 472.557C951.108 471.658 951.269 470.887 951.204 470.245V468.703C951.204 467.611 951.975 467.065 953.517 467.065C955.059 467.065 955.829 466.23 955.829 464.559C955.829 463.596 954.93 463.114 953.131 463.114H949.47C948.956 463.114 948.474 462.986 948.025 462.729C947.639 462.472 946.483 461.444 944.556 459.645C942.693 457.782 941.119 456.594 939.834 456.08C938.549 455.566 937.329 455.309 936.173 455.309C933.282 455.309 929.974 457.333 926.248 461.38C925.22 462.536 924.224 463.114 923.261 463.114C921.783 463.114 920.434 462.664 919.214 461.765C917.993 460.866 917.383 458.81 917.383 455.598C917.383 452.386 918.282 450.78 920.081 450.78C920.595 450.78 921.141 450.941 921.719 451.262C923.582 452.226 925.83 452.708 928.464 452.708C932.832 452.708 936.044 451.712 938.1 449.72C938.549 449.271 938.999 449.046 939.449 449.046C939.963 449.046 941.023 449.592 942.629 450.684C944.234 451.712 945.937 452.226 947.735 452.226H953.421C954.256 452.226 954.77 451.68 954.962 450.588C955.348 447.183 956.6 445.481 958.72 445.481C959.363 445.481 959.78 445.609 959.973 445.866C960.23 446.123 960.487 446.766 960.744 447.793C961.45 450.62 964.02 452.033 968.452 452.033H972.596ZM936.365 458.489C938.421 458.489 940.862 459.999 943.688 463.018C946.579 465.973 948.025 468.285 948.025 469.955C948.025 471.626 947.029 473.392 945.037 475.255C943.046 477.182 941.055 478.146 939.063 478.146C937.136 478.146 935.402 477.15 933.86 475.159C932.318 473.167 930.873 471.465 929.524 470.052C928.239 468.703 927.597 467.354 927.597 466.005C927.597 464.656 928.593 463.082 930.584 461.283C932.64 459.42 934.567 458.489 936.365 458.489Z"/>
<path d="M1176.84 399.561C1178.31 399.561 1179.51 400.756 1179.51 402.23V476.205C1179.51 477.679 1178.31 478.874 1176.84 478.874H1165.89C1164.42 478.874 1163.23 477.679 1163.23 476.205V402.23C1163.23 400.756 1164.42 399.561 1165.89 399.561H1176.84Z"/>
<path d="M1134.86 464.763C1134.51 463.665 1133.48 462.923 1132.33 462.923H1106.5C1105.35 462.923 1104.33 463.658 1103.97 464.747L1099.87 477.049C1099.5 478.139 1098.48 478.874 1097.34 478.874H1086.42C1084.58 478.874 1083.29 477.05 1083.91 475.313L1110.15 401.338C1110.53 400.273 1111.53 399.561 1112.66 399.561H1126.94C1128.07 399.561 1129.08 400.282 1129.46 401.356L1155.08 475.332C1155.68 477.065 1154.39 478.874 1152.56 478.874H1141.41C1140.25 478.874 1139.23 478.131 1138.87 477.033L1134.86 464.763ZM1126.13 449.298C1127.95 449.298 1129.24 447.516 1128.67 445.788L1122.05 425.866C1121.24 423.433 1117.8 423.428 1116.99 425.858L1110.3 445.78C1109.72 447.509 1111 449.298 1112.83 449.298H1126.13Z"/>
</mask>
<path d="M1023.09 409.058C1023.09 411.563 1021.96 413.811 1019.71 415.803C1017.47 417.794 1015.35 418.79 1013.35 418.79C1011.43 418.79 1009.56 417.891 1007.77 416.092C1005.97 414.293 1003.33 411.884 999.865 408.865C998.323 407.516 997.552 405.782 997.552 403.662C997.552 401.478 998.516 399.358 1000.44 397.302C1002.43 395.182 1004.59 394.122 1006.9 394.122C1009.28 394.122 1011.68 395.182 1014.13 397.302C1016.57 399.358 1018.65 401.285 1020.39 403.084C1022.19 404.818 1023.09 406.809 1023.09 409.058ZM1074.64 474.292C1074.64 480.78 1071.94 484.024 1066.54 484.024H1049.49C1046.73 484.024 1044.7 483.253 1043.42 481.711C1042.13 480.169 1041.49 477.696 1041.49 474.292C1041.49 470.887 1041.84 468.542 1042.55 467.257C1043.32 465.973 1044.7 465.33 1046.69 465.33C1047.4 465.33 1048.65 465.459 1050.45 465.716C1052.25 465.973 1053.6 466.101 1054.5 466.101C1055.46 466.101 1056.07 465.941 1056.33 465.619C1056.65 465.298 1056.81 464.656 1056.81 463.692V418.693C1056.81 417.987 1056.72 417.537 1056.52 417.344C1056.33 417.088 1055.88 416.959 1055.17 416.959H1034.07C1031.18 416.959 1029.19 416.381 1028.1 415.225C1027.01 414.068 1026.46 411.692 1026.46 408.094C1026.46 404.497 1027.01 402.12 1028.1 400.964C1029.25 399.807 1031.24 399.229 1034.07 399.229H1061.82C1067.67 399.229 1071.27 400.193 1072.61 402.12C1073.96 403.983 1074.64 407.484 1074.64 412.623V474.292ZM1009.21 476.122C1009.21 479.334 1008.57 481.486 1007.28 482.578C1006.06 483.735 1003.85 484.313 1000.64 484.313C997.424 484.313 995.175 483.767 993.891 482.675C992.606 481.583 991.963 479.398 991.963 476.122V424.186C991.963 420.91 992.606 418.726 993.891 417.634C995.24 416.542 997.488 415.995 1000.64 415.995C1002.18 415.995 1003.24 416.285 1003.82 416.863C1005.36 418.533 1006.74 419.818 1007.96 420.717C1008.79 421.359 1009.21 422.516 1009.21 424.186V476.122ZM1053.54 454.538C1053.54 457.172 1053.34 459.228 1052.96 460.705C1052.64 462.118 1051.93 462.729 1050.84 462.536C1048.91 462.215 1047.05 462.054 1045.25 462.054C1043.45 462.054 1041.91 462.632 1040.62 463.789C1040.3 464.11 1039.98 464.335 1039.66 464.463C1039.34 464.592 1038.7 464.656 1037.73 464.656H1023.95C1019.46 464.656 1016.5 463.981 1015.09 462.632C1013.74 461.219 1013.07 458.457 1013.07 454.346V430.931C1013.07 426.691 1013.64 423.897 1014.8 422.548C1015.96 421.199 1019.04 420.524 1024.05 420.524H1042.65C1047.34 420.524 1050.32 421.295 1051.61 422.837C1052.89 424.379 1053.54 427.077 1053.54 430.931V454.538ZM1038.12 447.793V437.387C1038.12 436.552 1037.96 435.974 1037.64 435.652C1037.38 435.331 1036.93 435.171 1036.29 435.171H1030.22C1029.57 435.171 1029.09 435.331 1028.77 435.652C1028.51 435.909 1028.39 436.487 1028.39 437.387V447.793C1028.39 448.693 1028.51 449.271 1028.77 449.528C1029.03 449.72 1029.51 449.817 1030.22 449.817H1036.29C1036.99 449.817 1037.48 449.688 1037.73 449.431C1037.99 449.11 1038.12 448.564 1038.12 447.793Z" fill="black"/>
<path d="M1023.09 409.058C1023.09 411.563 1021.96 413.811 1019.71 415.803C1017.47 417.794 1015.35 418.79 1013.35 418.79C1011.43 418.79 1009.56 417.891 1007.77 416.092C1005.97 414.293 1003.33 411.884 999.865 408.865C998.323 407.516 997.552 405.782 997.552 403.662C997.552 401.478 998.516 399.358 1000.44 397.302C1002.43 395.182 1004.59 394.122 1006.9 394.122C1009.28 394.122 1011.68 395.182 1014.13 397.302C1016.57 399.358 1018.65 401.285 1020.39 403.084C1022.19 404.818 1023.09 406.809 1023.09 409.058ZM1074.64 474.292C1074.64 480.78 1071.94 484.024 1066.54 484.024H1049.49C1046.73 484.024 1044.7 483.253 1043.42 481.711C1042.13 480.169 1041.49 477.696 1041.49 474.292C1041.49 470.887 1041.84 468.542 1042.55 467.257C1043.32 465.973 1044.7 465.33 1046.69 465.33C1047.4 465.33 1048.65 465.459 1050.45 465.716C1052.25 465.973 1053.6 466.101 1054.5 466.101C1055.46 466.101 1056.07 465.941 1056.33 465.619C1056.65 465.298 1056.81 464.656 1056.81 463.692V418.693C1056.81 417.987 1056.72 417.537 1056.52 417.344C1056.33 417.088 1055.88 416.959 1055.17 416.959H1034.07C1031.18 416.959 1029.19 416.381 1028.1 415.225C1027.01 414.068 1026.46 411.692 1026.46 408.094C1026.46 404.497 1027.01 402.12 1028.1 400.964C1029.25 399.807 1031.24 399.229 1034.07 399.229H1061.82C1067.67 399.229 1071.27 400.193 1072.61 402.12C1073.96 403.983 1074.64 407.484 1074.64 412.623V474.292ZM1009.21 476.122C1009.21 479.334 1008.57 481.486 1007.28 482.578C1006.06 483.735 1003.85 484.313 1000.64 484.313C997.424 484.313 995.175 483.767 993.891 482.675C992.606 481.583 991.963 479.398 991.963 476.122V424.186C991.963 420.91 992.606 418.726 993.891 417.634C995.24 416.542 997.488 415.995 1000.64 415.995C1002.18 415.995 1003.24 416.285 1003.82 416.863C1005.36 418.533 1006.74 419.818 1007.96 420.717C1008.79 421.359 1009.21 422.516 1009.21 424.186V476.122ZM1053.54 454.538C1053.54 457.172 1053.34 459.228 1052.96 460.705C1052.64 462.118 1051.93 462.729 1050.84 462.536C1048.91 462.215 1047.05 462.054 1045.25 462.054C1043.45 462.054 1041.91 462.632 1040.62 463.789C1040.3 464.11 1039.98 464.335 1039.66 464.463C1039.34 464.592 1038.7 464.656 1037.73 464.656H1023.95C1019.46 464.656 1016.5 463.981 1015.09 462.632C1013.74 461.219 1013.07 458.457 1013.07 454.346V430.931C1013.07 426.691 1013.64 423.897 1014.8 422.548C1015.96 421.199 1019.04 420.524 1024.05 420.524H1042.65C1047.34 420.524 1050.32 421.295 1051.61 422.837C1052.89 424.379 1053.54 427.077 1053.54 430.931V454.538ZM1038.12 447.793V437.387C1038.12 436.552 1037.96 435.974 1037.64 435.652C1037.38 435.331 1036.93 435.171 1036.29 435.171H1030.22C1029.57 435.171 1029.09 435.331 1028.77 435.652C1028.51 435.909 1028.39 436.487 1028.39 437.387V447.793C1028.39 448.693 1028.51 449.271 1028.77 449.528C1029.03 449.72 1029.51 449.817 1030.22 449.817H1036.29C1036.99 449.817 1037.48 449.688 1037.73 449.431C1037.99 449.11 1038.12 448.564 1038.12 447.793Z" fill="url(#paint3_linear_2378_47207)"/>
<path d="M968.26 407.516C967.296 407.516 965.915 406.906 964.116 405.685C962.318 404.465 960.647 403.437 959.106 402.602C957.628 401.767 956.889 400.803 956.889 399.711C956.889 398.555 957.371 397.27 958.335 395.857C959.363 394.379 960.551 393.641 961.9 393.641C963.249 393.641 965.433 394.636 968.452 396.628C971.536 398.555 973.077 400.161 973.077 401.446C973.077 402.73 972.531 404.079 971.439 405.493C970.347 406.842 969.287 407.516 968.26 407.516ZM939.449 400.289C940.091 400.289 940.412 400 940.412 399.422C940.412 395.76 943.464 393.93 949.566 393.93C951.429 393.93 952.714 394.058 953.421 394.315C954.127 394.508 954.48 394.893 954.48 395.471C954.48 395.985 954.32 396.66 953.999 397.495C953.677 398.266 953.517 399.101 953.517 400C953.517 400.835 953.806 401.703 954.384 402.602C955.026 403.501 956.375 404.593 958.431 405.878C960.551 407.163 962.446 408.319 964.116 409.347C965.851 410.31 967.424 410.792 968.838 410.792C970.251 410.792 971.825 409.764 973.559 407.709C975.294 405.589 976.193 403.983 976.257 402.891C976.321 401.735 976.482 401.028 976.739 400.771C976.996 400.514 977.349 400.386 977.799 400.386C978.827 400.386 979.822 400.964 980.786 402.12C981.75 403.276 982.231 404.882 982.231 406.938C982.231 408.994 981.782 410.439 980.882 411.274C980.047 412.109 978.249 412.527 975.486 412.527H959.106C958.656 412.527 958.367 412.623 958.238 412.816C958.11 413.008 958.046 413.426 958.046 414.068C958.046 414.646 958.11 415.032 958.238 415.225C958.367 415.417 958.624 415.514 959.009 415.514H968.645C975.069 415.514 978.281 417.762 978.281 422.259V441.626C978.281 446.573 975.711 449.046 970.572 449.046C967.681 449.046 965.722 448.661 964.694 447.89C963.731 447.055 963.249 445.449 963.249 443.072C963.249 442.622 963.153 442.333 962.96 442.205C962.767 442.076 962.382 442.012 961.804 442.012C959.363 442.012 957.468 442.301 956.119 442.879C954.834 443.457 953.774 444.485 952.939 445.963C952.168 447.44 951.526 448.339 951.012 448.661C950.498 448.982 949.502 449.142 948.025 449.142C946.611 449.142 945.327 448.821 944.17 448.179C943.014 447.472 942.339 446.733 942.147 445.963C942.018 445.449 941.761 445.192 941.376 445.192H937.714C937.2 445.192 936.911 445.417 936.847 445.866C936.333 448.371 933.507 449.624 928.368 449.624C923.293 449.624 920.755 447.569 920.755 443.457V425.535C920.755 422.387 921.591 419.946 923.261 418.212C924.931 416.413 927.083 415.514 929.717 415.514H940.22C940.605 415.514 940.83 415.449 940.894 415.321C941.023 415.128 941.087 414.711 941.087 414.068C941.087 413.426 940.99 413.008 940.798 412.816C940.669 412.623 940.412 412.527 940.027 412.527H927.019C924.192 412.527 922.201 412.077 921.045 411.178C919.888 410.214 919.31 408.64 919.31 406.456C919.31 404.208 919.92 402.634 921.141 401.735C922.361 400.771 924.353 400.289 927.115 400.289H939.449ZM962.96 427.847C963.41 427.847 963.699 427.751 963.827 427.558C963.956 427.366 964.02 426.884 964.02 426.113C964.02 425.342 963.956 424.86 963.827 424.668C963.699 424.475 963.41 424.379 962.96 424.379H958.046C957.66 424.379 957.403 424.475 957.275 424.668C957.146 424.86 957.082 425.342 957.082 426.113C957.082 426.884 957.146 427.366 957.275 427.558C957.403 427.751 957.66 427.847 958.046 427.847H962.96ZM941.087 427.847C941.536 427.847 941.826 427.751 941.954 427.558C942.083 427.366 942.147 426.884 942.147 426.113C942.147 425.342 942.083 424.86 941.954 424.668C941.826 424.475 941.536 424.379 941.087 424.379H936.269C935.819 424.379 935.53 424.475 935.402 424.668C935.273 424.86 935.209 425.342 935.209 426.113C935.209 426.884 935.273 427.366 935.402 427.558C935.53 427.751 935.819 427.847 936.269 427.847H941.087ZM962.96 437.579C963.41 437.579 963.699 437.483 963.827 437.29C963.956 437.033 964.02 436.52 964.02 435.749C964.02 434.978 963.956 434.496 963.827 434.303C963.699 434.111 963.41 434.014 962.96 434.014H958.046C957.596 434.014 957.307 434.111 957.178 434.303C957.114 434.496 957.082 435.01 957.082 435.845C957.082 436.616 957.114 437.098 957.178 437.29C957.307 437.483 957.596 437.579 958.046 437.579H962.96ZM941.087 437.579C941.536 437.579 941.826 437.483 941.954 437.29C942.083 437.033 942.147 436.52 942.147 435.749C942.147 434.978 942.083 434.496 941.954 434.303C941.826 434.111 941.536 434.014 941.087 434.014H936.269C935.819 434.014 935.53 434.111 935.402 434.303C935.273 434.496 935.209 434.978 935.209 435.749C935.209 436.52 935.273 437.033 935.402 437.29C935.594 437.483 935.884 437.579 936.269 437.579H941.087ZM899.846 401.735C899.846 398.908 900.585 396.981 902.062 395.953C903.604 394.925 905.852 394.411 908.807 394.411C911.762 394.411 914.01 394.893 915.552 395.857C917.094 396.756 917.865 397.88 917.865 399.229C917.865 399.807 917.704 400.386 917.383 400.964C916.548 402.57 916.13 404.336 916.13 406.263C916.13 408.126 916.419 409.732 916.998 411.081C917.576 412.43 918.314 413.426 919.214 414.068C920.177 414.646 920.659 415.16 920.659 415.61C920.659 415.995 920.338 416.67 919.696 417.634C918.347 419.753 917.672 422.002 917.672 424.379V443.843C917.672 445.384 917.608 446.444 917.479 447.022C917.351 447.536 916.998 448.018 916.419 448.468C915.905 448.918 915.392 449.881 914.878 451.359C914.428 452.836 914.203 454.442 914.203 456.176C914.203 460.48 915.327 463.275 917.576 464.559C918.218 464.945 918.539 465.587 918.539 466.487V476.219C918.539 478.66 918.314 480.458 917.865 481.615C917.479 482.835 916.644 483.67 915.359 484.12C914.139 484.57 911.826 484.794 908.422 484.794C905.081 484.794 902.801 484.281 901.58 483.253C900.424 482.225 899.846 480.041 899.846 476.7V434.014C899.846 433.5 899.621 433.243 899.171 433.243C896.152 433.243 894.161 432.44 893.197 430.834C892.234 429.229 891.752 426.691 891.752 423.222C891.752 419.753 892.234 417.312 893.197 415.899C894.225 414.486 896.056 413.779 898.69 413.779C899.139 413.779 899.428 413.747 899.557 413.683C899.75 413.554 899.846 413.265 899.846 412.816V401.735ZM972.596 452.033C973.238 452.033 974.202 451.808 975.486 451.359C976.835 450.909 977.735 450.459 978.184 450.01C978.634 449.56 979.148 449.335 979.726 449.335C980.368 449.335 980.979 449.817 981.557 450.78C982.199 451.744 982.52 452.965 982.52 454.442C982.52 458.296 981.782 460.705 980.304 461.669C978.891 462.632 976.771 463.114 973.945 463.114C973.366 463.114 973.077 463.467 973.077 464.174V474.773C973.077 477.6 972.274 479.88 970.668 481.615C969.127 483.413 967.135 484.313 964.694 484.313H952.072C946.611 484.313 943.881 483.413 943.881 481.615C943.881 480.715 944.524 479.72 945.808 478.628C947.157 477.536 948.217 476.476 948.988 475.448C949.759 474.484 950.337 473.521 950.723 472.557C951.108 471.658 951.269 470.887 951.204 470.245V468.703C951.204 467.611 951.975 467.065 953.517 467.065C955.059 467.065 955.829 466.23 955.829 464.559C955.829 463.596 954.93 463.114 953.131 463.114H949.47C948.956 463.114 948.474 462.986 948.025 462.729C947.639 462.472 946.483 461.444 944.556 459.645C942.693 457.782 941.119 456.594 939.834 456.08C938.549 455.566 937.329 455.309 936.173 455.309C933.282 455.309 929.974 457.333 926.248 461.38C925.22 462.536 924.224 463.114 923.261 463.114C921.783 463.114 920.434 462.664 919.214 461.765C917.993 460.866 917.383 458.81 917.383 455.598C917.383 452.386 918.282 450.78 920.081 450.78C920.595 450.78 921.141 450.941 921.719 451.262C923.582 452.226 925.83 452.708 928.464 452.708C932.832 452.708 936.044 451.712 938.1 449.72C938.549 449.271 938.999 449.046 939.449 449.046C939.963 449.046 941.023 449.592 942.629 450.684C944.234 451.712 945.937 452.226 947.735 452.226H953.421C954.256 452.226 954.77 451.68 954.962 450.588C955.348 447.183 956.6 445.481 958.72 445.481C959.363 445.481 959.78 445.609 959.973 445.866C960.23 446.123 960.487 446.766 960.744 447.793C961.45 450.62 964.02 452.033 968.452 452.033H972.596ZM936.365 458.489C938.421 458.489 940.862 459.999 943.688 463.018C946.579 465.973 948.025 468.285 948.025 469.955C948.025 471.626 947.029 473.392 945.037 475.255C943.046 477.182 941.055 478.146 939.063 478.146C937.136 478.146 935.402 477.15 933.86 475.159C932.318 473.167 930.873 471.465 929.524 470.052C928.239 468.703 927.597 467.354 927.597 466.005C927.597 464.656 928.593 463.082 930.584 461.283C932.64 459.42 934.567 458.489 936.365 458.489Z" fill="black"/>
<path d="M968.26 407.516C967.296 407.516 965.915 406.906 964.116 405.685C962.318 404.465 960.647 403.437 959.106 402.602C957.628 401.767 956.889 400.803 956.889 399.711C956.889 398.555 957.371 397.27 958.335 395.857C959.363 394.379 960.551 393.641 961.9 393.641C963.249 393.641 965.433 394.636 968.452 396.628C971.536 398.555 973.077 400.161 973.077 401.446C973.077 402.73 972.531 404.079 971.439 405.493C970.347 406.842 969.287 407.516 968.26 407.516ZM939.449 400.289C940.091 400.289 940.412 400 940.412 399.422C940.412 395.76 943.464 393.93 949.566 393.93C951.429 393.93 952.714 394.058 953.421 394.315C954.127 394.508 954.48 394.893 954.48 395.471C954.48 395.985 954.32 396.66 953.999 397.495C953.677 398.266 953.517 399.101 953.517 400C953.517 400.835 953.806 401.703 954.384 402.602C955.026 403.501 956.375 404.593 958.431 405.878C960.551 407.163 962.446 408.319 964.116 409.347C965.851 410.31 967.424 410.792 968.838 410.792C970.251 410.792 971.825 409.764 973.559 407.709C975.294 405.589 976.193 403.983 976.257 402.891C976.321 401.735 976.482 401.028 976.739 400.771C976.996 400.514 977.349 400.386 977.799 400.386C978.827 400.386 979.822 400.964 980.786 402.12C981.75 403.276 982.231 404.882 982.231 406.938C982.231 408.994 981.782 410.439 980.882 411.274C980.047 412.109 978.249 412.527 975.486 412.527H959.106C958.656 412.527 958.367 412.623 958.238 412.816C958.11 413.008 958.046 413.426 958.046 414.068C958.046 414.646 958.11 415.032 958.238 415.225C958.367 415.417 958.624 415.514 959.009 415.514H968.645C975.069 415.514 978.281 417.762 978.281 422.259V441.626C978.281 446.573 975.711 449.046 970.572 449.046C967.681 449.046 965.722 448.661 964.694 447.89C963.731 447.055 963.249 445.449 963.249 443.072C963.249 442.622 963.153 442.333 962.96 442.205C962.767 442.076 962.382 442.012 961.804 442.012C959.363 442.012 957.468 442.301 956.119 442.879C954.834 443.457 953.774 444.485 952.939 445.963C952.168 447.44 951.526 448.339 951.012 448.661C950.498 448.982 949.502 449.142 948.025 449.142C946.611 449.142 945.327 448.821 944.17 448.179C943.014 447.472 942.339 446.733 942.147 445.963C942.018 445.449 941.761 445.192 941.376 445.192H937.714C937.2 445.192 936.911 445.417 936.847 445.866C936.333 448.371 933.507 449.624 928.368 449.624C923.293 449.624 920.755 447.569 920.755 443.457V425.535C920.755 422.387 921.591 419.946 923.261 418.212C924.931 416.413 927.083 415.514 929.717 415.514H940.22C940.605 415.514 940.83 415.449 940.894 415.321C941.023 415.128 941.087 414.711 941.087 414.068C941.087 413.426 940.99 413.008 940.798 412.816C940.669 412.623 940.412 412.527 940.027 412.527H927.019C924.192 412.527 922.201 412.077 921.045 411.178C919.888 410.214 919.31 408.64 919.31 406.456C919.31 404.208 919.92 402.634 921.141 401.735C922.361 400.771 924.353 400.289 927.115 400.289H939.449ZM962.96 427.847C963.41 427.847 963.699 427.751 963.827 427.558C963.956 427.366 964.02 426.884 964.02 426.113C964.02 425.342 963.956 424.86 963.827 424.668C963.699 424.475 963.41 424.379 962.96 424.379H958.046C957.66 424.379 957.403 424.475 957.275 424.668C957.146 424.86 957.082 425.342 957.082 426.113C957.082 426.884 957.146 427.366 957.275 427.558C957.403 427.751 957.66 427.847 958.046 427.847H962.96ZM941.087 427.847C941.536 427.847 941.826 427.751 941.954 427.558C942.083 427.366 942.147 426.884 942.147 426.113C942.147 425.342 942.083 424.86 941.954 424.668C941.826 424.475 941.536 424.379 941.087 424.379H936.269C935.819 424.379 935.53 424.475 935.402 424.668C935.273 424.86 935.209 425.342 935.209 426.113C935.209 426.884 935.273 427.366 935.402 427.558C935.53 427.751 935.819 427.847 936.269 427.847H941.087ZM962.96 437.579C963.41 437.579 963.699 437.483 963.827 437.29C963.956 437.033 964.02 436.52 964.02 435.749C964.02 434.978 963.956 434.496 963.827 434.303C963.699 434.111 963.41 434.014 962.96 434.014H958.046C957.596 434.014 957.307 434.111 957.178 434.303C957.114 434.496 957.082 435.01 957.082 435.845C957.082 436.616 957.114 437.098 957.178 437.29C957.307 437.483 957.596 437.579 958.046 437.579H962.96ZM941.087 437.579C941.536 437.579 941.826 437.483 941.954 437.29C942.083 437.033 942.147 436.52 942.147 435.749C942.147 434.978 942.083 434.496 941.954 434.303C941.826 434.111 941.536 434.014 941.087 434.014H936.269C935.819 434.014 935.53 434.111 935.402 434.303C935.273 434.496 935.209 434.978 935.209 435.749C935.209 436.52 935.273 437.033 935.402 437.29C935.594 437.483 935.884 437.579 936.269 437.579H941.087ZM899.846 401.735C899.846 398.908 900.585 396.981 902.062 395.953C903.604 394.925 905.852 394.411 908.807 394.411C911.762 394.411 914.01 394.893 915.552 395.857C917.094 396.756 917.865 397.88 917.865 399.229C917.865 399.807 917.704 400.386 917.383 400.964C916.548 402.57 916.13 404.336 916.13 406.263C916.13 408.126 916.419 409.732 916.998 411.081C917.576 412.43 918.314 413.426 919.214 414.068C920.177 414.646 920.659 415.16 920.659 415.61C920.659 415.995 920.338 416.67 919.696 417.634C918.347 419.753 917.672 422.002 917.672 424.379V443.843C917.672 445.384 917.608 446.444 917.479 447.022C917.351 447.536 916.998 448.018 916.419 448.468C915.905 448.918 915.392 449.881 914.878 451.359C914.428 452.836 914.203 454.442 914.203 456.176C914.203 460.48 915.327 463.275 917.576 464.559C918.218 464.945 918.539 465.587 918.539 466.487V476.219C918.539 478.66 918.314 480.458 917.865 481.615C917.479 482.835 916.644 483.67 915.359 484.12C914.139 484.57 911.826 484.794 908.422 484.794C905.081 484.794 902.801 484.281 901.58 483.253C900.424 482.225 899.846 480.041 899.846 476.7V434.014C899.846 433.5 899.621 433.243 899.171 433.243C896.152 433.243 894.161 432.44 893.197 430.834C892.234 429.229 891.752 426.691 891.752 423.222C891.752 419.753 892.234 417.312 893.197 415.899C894.225 414.486 896.056 413.779 898.69 413.779C899.139 413.779 899.428 413.747 899.557 413.683C899.75 413.554 899.846 413.265 899.846 412.816V401.735ZM972.596 452.033C973.238 452.033 974.202 451.808 975.486 451.359C976.835 450.909 977.735 450.459 978.184 450.01C978.634 449.56 979.148 449.335 979.726 449.335C980.368 449.335 980.979 449.817 981.557 450.78C982.199 451.744 982.52 452.965 982.52 454.442C982.52 458.296 981.782 460.705 980.304 461.669C978.891 462.632 976.771 463.114 973.945 463.114C973.366 463.114 973.077 463.467 973.077 464.174V474.773C973.077 477.6 972.274 479.88 970.668 481.615C969.127 483.413 967.135 484.313 964.694 484.313H952.072C946.611 484.313 943.881 483.413 943.881 481.615C943.881 480.715 944.524 479.72 945.808 478.628C947.157 477.536 948.217 476.476 948.988 475.448C949.759 474.484 950.337 473.521 950.723 472.557C951.108 471.658 951.269 470.887 951.204 470.245V468.703C951.204 467.611 951.975 467.065 953.517 467.065C955.059 467.065 955.829 466.23 955.829 464.559C955.829 463.596 954.93 463.114 953.131 463.114H949.47C948.956 463.114 948.474 462.986 948.025 462.729C947.639 462.472 946.483 461.444 944.556 459.645C942.693 457.782 941.119 456.594 939.834 456.08C938.549 455.566 937.329 455.309 936.173 455.309C933.282 455.309 929.974 457.333 926.248 461.38C925.22 462.536 924.224 463.114 923.261 463.114C921.783 463.114 920.434 462.664 919.214 461.765C917.993 460.866 917.383 458.81 917.383 455.598C917.383 452.386 918.282 450.78 920.081 450.78C920.595 450.78 921.141 450.941 921.719 451.262C923.582 452.226 925.83 452.708 928.464 452.708C932.832 452.708 936.044 451.712 938.1 449.72C938.549 449.271 938.999 449.046 939.449 449.046C939.963 449.046 941.023 449.592 942.629 450.684C944.234 451.712 945.937 452.226 947.735 452.226H953.421C954.256 452.226 954.77 451.68 954.962 450.588C955.348 447.183 956.6 445.481 958.72 445.481C959.363 445.481 959.78 445.609 959.973 445.866C960.23 446.123 960.487 446.766 960.744 447.793C961.45 450.62 964.02 452.033 968.452 452.033H972.596ZM936.365 458.489C938.421 458.489 940.862 459.999 943.688 463.018C946.579 465.973 948.025 468.285 948.025 469.955C948.025 471.626 947.029 473.392 945.037 475.255C943.046 477.182 941.055 478.146 939.063 478.146C937.136 478.146 935.402 477.15 933.86 475.159C932.318 473.167 930.873 471.465 929.524 470.052C928.239 468.703 927.597 467.354 927.597 466.005C927.597 464.656 928.593 463.082 930.584 461.283C932.64 459.42 934.567 458.489 936.365 458.489Z" fill="url(#paint4_linear_2378_47207)"/>
<path d="M1176.84 399.561C1178.31 399.561 1179.51 400.756 1179.51 402.23V476.205C1179.51 477.679 1178.31 478.874 1176.84 478.874H1165.89C1164.42 478.874 1163.23 477.679 1163.23 476.205V402.23C1163.23 400.756 1164.42 399.561 1165.89 399.561H1176.84Z" fill="black"/>
<path d="M1176.84 399.561C1178.31 399.561 1179.51 400.756 1179.51 402.23V476.205C1179.51 477.679 1178.31 478.874 1176.84 478.874H1165.89C1164.42 478.874 1163.23 477.679 1163.23 476.205V402.23C1163.23 400.756 1164.42 399.561 1165.89 399.561H1176.84Z" fill="url(#paint5_linear_2378_47207)"/>
<path d="M1134.86 464.763C1134.51 463.665 1133.48 462.923 1132.33 462.923H1106.5C1105.35 462.923 1104.33 463.658 1103.97 464.747L1099.87 477.049C1099.5 478.139 1098.48 478.874 1097.34 478.874H1086.42C1084.58 478.874 1083.29 477.05 1083.91 475.313L1110.15 401.338C1110.53 400.273 1111.53 399.561 1112.66 399.561H1126.94C1128.07 399.561 1129.08 400.282 1129.46 401.356L1155.08 475.332C1155.68 477.065 1154.39 478.874 1152.56 478.874H1141.41C1140.25 478.874 1139.23 478.131 1138.87 477.033L1134.86 464.763ZM1126.13 449.298C1127.95 449.298 1129.24 447.516 1128.67 445.788L1122.05 425.866C1121.24 423.433 1117.8 423.428 1116.99 425.858L1110.3 445.78C1109.72 447.509 1111 449.298 1112.83 449.298H1126.13Z" fill="black"/>
<path d="M1134.86 464.763C1134.51 463.665 1133.48 462.923 1132.33 462.923H1106.5C1105.35 462.923 1104.33 463.658 1103.97 464.747L1099.87 477.049C1099.5 478.139 1098.48 478.874 1097.34 478.874H1086.42C1084.58 478.874 1083.29 477.05 1083.91 475.313L1110.15 401.338C1110.53 400.273 1111.53 399.561 1112.66 399.561H1126.94C1128.07 399.561 1129.08 400.282 1129.46 401.356L1155.08 475.332C1155.68 477.065 1154.39 478.874 1152.56 478.874H1141.41C1140.25 478.874 1139.23 478.131 1138.87 477.033L1134.86 464.763ZM1126.13 449.298C1127.95 449.298 1129.24 447.516 1128.67 445.788L1122.05 425.866C1121.24 423.433 1117.8 423.428 1116.99 425.858L1110.3 445.78C1109.72 447.509 1111 449.298 1112.83 449.298H1126.13Z" fill="url(#paint6_linear_2378_47207)"/>
<path d="M1023.09 409.058C1023.09 411.563 1021.96 413.811 1019.71 415.803C1017.47 417.794 1015.35 418.79 1013.35 418.79C1011.43 418.79 1009.56 417.891 1007.77 416.092C1005.97 414.293 1003.33 411.884 999.865 408.865C998.323 407.516 997.552 405.782 997.552 403.662C997.552 401.478 998.516 399.358 1000.44 397.302C1002.43 395.182 1004.59 394.122 1006.9 394.122C1009.28 394.122 1011.68 395.182 1014.13 397.302C1016.57 399.358 1018.65 401.285 1020.39 403.084C1022.19 404.818 1023.09 406.809 1023.09 409.058ZM1074.64 474.292C1074.64 480.78 1071.94 484.024 1066.54 484.024H1049.49C1046.73 484.024 1044.7 483.253 1043.42 481.711C1042.13 480.169 1041.49 477.696 1041.49 474.292C1041.49 470.887 1041.84 468.542 1042.55 467.257C1043.32 465.973 1044.7 465.33 1046.69 465.33C1047.4 465.33 1048.65 465.459 1050.45 465.716C1052.25 465.973 1053.6 466.101 1054.5 466.101C1055.46 466.101 1056.07 465.941 1056.33 465.619C1056.65 465.298 1056.81 464.656 1056.81 463.692V418.693C1056.81 417.987 1056.72 417.537 1056.52 417.344C1056.33 417.088 1055.88 416.959 1055.17 416.959H1034.07C1031.18 416.959 1029.19 416.381 1028.1 415.225C1027.01 414.068 1026.46 411.692 1026.46 408.094C1026.46 404.497 1027.01 402.12 1028.1 400.964C1029.25 399.807 1031.24 399.229 1034.07 399.229H1061.82C1067.67 399.229 1071.27 400.193 1072.61 402.12C1073.96 403.983 1074.64 407.484 1074.64 412.623V474.292ZM1009.21 476.122C1009.21 479.334 1008.57 481.486 1007.28 482.578C1006.06 483.735 1003.85 484.313 1000.64 484.313C997.424 484.313 995.175 483.767 993.891 482.675C992.606 481.583 991.963 479.398 991.963 476.122V424.186C991.963 420.91 992.606 418.726 993.891 417.634C995.24 416.542 997.488 415.995 1000.64 415.995C1002.18 415.995 1003.24 416.285 1003.82 416.863C1005.36 418.533 1006.74 419.818 1007.96 420.717C1008.79 421.359 1009.21 422.516 1009.21 424.186V476.122ZM1053.54 454.538C1053.54 457.172 1053.34 459.228 1052.96 460.705C1052.64 462.118 1051.93 462.729 1050.84 462.536C1048.91 462.215 1047.05 462.054 1045.25 462.054C1043.45 462.054 1041.91 462.632 1040.62 463.789C1040.3 464.11 1039.98 464.335 1039.66 464.463C1039.34 464.592 1038.7 464.656 1037.73 464.656H1023.95C1019.46 464.656 1016.5 463.981 1015.09 462.632C1013.74 461.219 1013.07 458.457 1013.07 454.346V430.931C1013.07 426.691 1013.64 423.897 1014.8 422.548C1015.96 421.199 1019.04 420.524 1024.05 420.524H1042.65C1047.34 420.524 1050.32 421.295 1051.61 422.837C1052.89 424.379 1053.54 427.077 1053.54 430.931V454.538ZM1038.12 447.793V437.387C1038.12 436.552 1037.96 435.974 1037.64 435.652C1037.38 435.331 1036.93 435.171 1036.29 435.171H1030.22C1029.57 435.171 1029.09 435.331 1028.77 435.652C1028.51 435.909 1028.39 436.487 1028.39 437.387V447.793C1028.39 448.693 1028.51 449.271 1028.77 449.528C1029.03 449.72 1029.51 449.817 1030.22 449.817H1036.29C1036.99 449.817 1037.48 449.688 1037.73 449.431C1037.99 449.11 1038.12 448.564 1038.12 447.793Z" stroke="white" stroke-width="4" mask="url(#path-5-outside-1_2378_47207)"/>
<path d="M968.26 407.516C967.296 407.516 965.915 406.906 964.116 405.685C962.318 404.465 960.647 403.437 959.106 402.602C957.628 401.767 956.889 400.803 956.889 399.711C956.889 398.555 957.371 397.27 958.335 395.857C959.363 394.379 960.551 393.641 961.9 393.641C963.249 393.641 965.433 394.636 968.452 396.628C971.536 398.555 973.077 400.161 973.077 401.446C973.077 402.73 972.531 404.079 971.439 405.493C970.347 406.842 969.287 407.516 968.26 407.516ZM939.449 400.289C940.091 400.289 940.412 400 940.412 399.422C940.412 395.76 943.464 393.93 949.566 393.93C951.429 393.93 952.714 394.058 953.421 394.315C954.127 394.508 954.48 394.893 954.48 395.471C954.48 395.985 954.32 396.66 953.999 397.495C953.677 398.266 953.517 399.101 953.517 400C953.517 400.835 953.806 401.703 954.384 402.602C955.026 403.501 956.375 404.593 958.431 405.878C960.551 407.163 962.446 408.319 964.116 409.347C965.851 410.31 967.424 410.792 968.838 410.792C970.251 410.792 971.825 409.764 973.559 407.709C975.294 405.589 976.193 403.983 976.257 402.891C976.321 401.735 976.482 401.028 976.739 400.771C976.996 400.514 977.349 400.386 977.799 400.386C978.827 400.386 979.822 400.964 980.786 402.12C981.75 403.276 982.231 404.882 982.231 406.938C982.231 408.994 981.782 410.439 980.882 411.274C980.047 412.109 978.249 412.527 975.486 412.527H959.106C958.656 412.527 958.367 412.623 958.238 412.816C958.11 413.008 958.046 413.426 958.046 414.068C958.046 414.646 958.11 415.032 958.238 415.225C958.367 415.417 958.624 415.514 959.009 415.514H968.645C975.069 415.514 978.281 417.762 978.281 422.259V441.626C978.281 446.573 975.711 449.046 970.572 449.046C967.681 449.046 965.722 448.661 964.694 447.89C963.731 447.055 963.249 445.449 963.249 443.072C963.249 442.622 963.153 442.333 962.96 442.205C962.767 442.076 962.382 442.012 961.804 442.012C959.363 442.012 957.468 442.301 956.119 442.879C954.834 443.457 953.774 444.485 952.939 445.963C952.168 447.44 951.526 448.339 951.012 448.661C950.498 448.982 949.502 449.142 948.025 449.142C946.611 449.142 945.327 448.821 944.17 448.179C943.014 447.472 942.339 446.733 942.147 445.963C942.018 445.449 941.761 445.192 941.376 445.192H937.714C937.2 445.192 936.911 445.417 936.847 445.866C936.333 448.371 933.507 449.624 928.368 449.624C923.293 449.624 920.755 447.569 920.755 443.457V425.535C920.755 422.387 921.591 419.946 923.261 418.212C924.931 416.413 927.083 415.514 929.717 415.514H940.22C940.605 415.514 940.83 415.449 940.894 415.321C941.023 415.128 941.087 414.711 941.087 414.068C941.087 413.426 940.99 413.008 940.798 412.816C940.669 412.623 940.412 412.527 940.027 412.527H927.019C924.192 412.527 922.201 412.077 921.045 411.178C919.888 410.214 919.31 408.64 919.31 406.456C919.31 404.208 919.92 402.634 921.141 401.735C922.361 400.771 924.353 400.289 927.115 400.289H939.449ZM962.96 427.847C963.41 427.847 963.699 427.751 963.827 427.558C963.956 427.366 964.02 426.884 964.02 426.113C964.02 425.342 963.956 424.86 963.827 424.668C963.699 424.475 963.41 424.379 962.96 424.379H958.046C957.66 424.379 957.403 424.475 957.275 424.668C957.146 424.86 957.082 425.342 957.082 426.113C957.082 426.884 957.146 427.366 957.275 427.558C957.403 427.751 957.66 427.847 958.046 427.847H962.96ZM941.087 427.847C941.536 427.847 941.826 427.751 941.954 427.558C942.083 427.366 942.147 426.884 942.147 426.113C942.147 425.342 942.083 424.86 941.954 424.668C941.826 424.475 941.536 424.379 941.087 424.379H936.269C935.819 424.379 935.53 424.475 935.402 424.668C935.273 424.86 935.209 425.342 935.209 426.113C935.209 426.884 935.273 427.366 935.402 427.558C935.53 427.751 935.819 427.847 936.269 427.847H941.087ZM962.96 437.579C963.41 437.579 963.699 437.483 963.827 437.29C963.956 437.033 964.02 436.52 964.02 435.749C964.02 434.978 963.956 434.496 963.827 434.303C963.699 434.111 963.41 434.014 962.96 434.014H958.046C957.596 434.014 957.307 434.111 957.178 434.303C957.114 434.496 957.082 435.01 957.082 435.845C957.082 436.616 957.114 437.098 957.178 437.29C957.307 437.483 957.596 437.579 958.046 437.579H962.96ZM941.087 437.579C941.536 437.579 941.826 437.483 941.954 437.29C942.083 437.033 942.147 436.52 942.147 435.749C942.147 434.978 942.083 434.496 941.954 434.303C941.826 434.111 941.536 434.014 941.087 434.014H936.269C935.819 434.014 935.53 434.111 935.402 434.303C935.273 434.496 935.209 434.978 935.209 435.749C935.209 436.52 935.273 437.033 935.402 437.29C935.594 437.483 935.884 437.579 936.269 437.579H941.087ZM899.846 401.735C899.846 398.908 900.585 396.981 902.062 395.953C903.604 394.925 905.852 394.411 908.807 394.411C911.762 394.411 914.01 394.893 915.552 395.857C917.094 396.756 917.865 397.88 917.865 399.229C917.865 399.807 917.704 400.386 917.383 400.964C916.548 402.57 916.13 404.336 916.13 406.263C916.13 408.126 916.419 409.732 916.998 411.081C917.576 412.43 918.314 413.426 919.214 414.068C920.177 414.646 920.659 415.16 920.659 415.61C920.659 415.995 920.338 416.67 919.696 417.634C918.347 419.753 917.672 422.002 917.672 424.379V443.843C917.672 445.384 917.608 446.444 917.479 447.022C917.351 447.536 916.998 448.018 916.419 448.468C915.905 448.918 915.392 449.881 914.878 451.359C914.428 452.836 914.203 454.442 914.203 456.176C914.203 460.48 915.327 463.275 917.576 464.559C918.218 464.945 918.539 465.587 918.539 466.487V476.219C918.539 478.66 918.314 480.458 917.865 481.615C917.479 482.835 916.644 483.67 915.359 484.12C914.139 484.57 911.826 484.794 908.422 484.794C905.081 484.794 902.801 484.281 901.58 483.253C900.424 482.225 899.846 480.041 899.846 476.7V434.014C899.846 433.5 899.621 433.243 899.171 433.243C896.152 433.243 894.161 432.44 893.197 430.834C892.234 429.229 891.752 426.691 891.752 423.222C891.752 419.753 892.234 417.312 893.197 415.899C894.225 414.486 896.056 413.779 898.69 413.779C899.139 413.779 899.428 413.747 899.557 413.683C899.75 413.554 899.846 413.265 899.846 412.816V401.735ZM972.596 452.033C973.238 452.033 974.202 451.808 975.486 451.359C976.835 450.909 977.735 450.459 978.184 450.01C978.634 449.56 979.148 449.335 979.726 449.335C980.368 449.335 980.979 449.817 981.557 450.78C982.199 451.744 982.52 452.965 982.52 454.442C982.52 458.296 981.782 460.705 980.304 461.669C978.891 462.632 976.771 463.114 973.945 463.114C973.366 463.114 973.077 463.467 973.077 464.174V474.773C973.077 477.6 972.274 479.88 970.668 481.615C969.127 483.413 967.135 484.313 964.694 484.313H952.072C946.611 484.313 943.881 483.413 943.881 481.615C943.881 480.715 944.524 479.72 945.808 478.628C947.157 477.536 948.217 476.476 948.988 475.448C949.759 474.484 950.337 473.521 950.723 472.557C951.108 471.658 951.269 470.887 951.204 470.245V468.703C951.204 467.611 951.975 467.065 953.517 467.065C955.059 467.065 955.829 466.23 955.829 464.559C955.829 463.596 954.93 463.114 953.131 463.114H949.47C948.956 463.114 948.474 462.986 948.025 462.729C947.639 462.472 946.483 461.444 944.556 459.645C942.693 457.782 941.119 456.594 939.834 456.08C938.549 455.566 937.329 455.309 936.173 455.309C933.282 455.309 929.974 457.333 926.248 461.38C925.22 462.536 924.224 463.114 923.261 463.114C921.783 463.114 920.434 462.664 919.214 461.765C917.993 460.866 917.383 458.81 917.383 455.598C917.383 452.386 918.282 450.78 920.081 450.78C920.595 450.78 921.141 450.941 921.719 451.262C923.582 452.226 925.83 452.708 928.464 452.708C932.832 452.708 936.044 451.712 938.1 449.72C938.549 449.271 938.999 449.046 939.449 449.046C939.963 449.046 941.023 449.592 942.629 450.684C944.234 451.712 945.937 452.226 947.735 452.226H953.421C954.256 452.226 954.77 451.68 954.962 450.588C955.348 447.183 956.6 445.481 958.72 445.481C959.363 445.481 959.78 445.609 959.973 445.866C960.23 446.123 960.487 446.766 960.744 447.793C961.45 450.62 964.02 452.033 968.452 452.033H972.596ZM936.365 458.489C938.421 458.489 940.862 459.999 943.688 463.018C946.579 465.973 948.025 468.285 948.025 469.955C948.025 471.626 947.029 473.392 945.037 475.255C943.046 477.182 941.055 478.146 939.063 478.146C937.136 478.146 935.402 477.15 933.86 475.159C932.318 473.167 930.873 471.465 929.524 470.052C928.239 468.703 927.597 467.354 927.597 466.005C927.597 464.656 928.593 463.082 930.584 461.283C932.64 459.42 934.567 458.489 936.365 458.489Z" stroke="white" stroke-width="4" mask="url(#path-5-outside-1_2378_47207)"/>
<path d="M1176.84 399.561C1178.31 399.561 1179.51 400.756 1179.51 402.23V476.205C1179.51 477.679 1178.31 478.874 1176.84 478.874H1165.89C1164.42 478.874 1163.23 477.679 1163.23 476.205V402.23C1163.23 400.756 1164.42 399.561 1165.89 399.561H1176.84Z" stroke="white" stroke-width="4" mask="url(#path-5-outside-1_2378_47207)"/>
<path d="M1134.86 464.763C1134.51 463.665 1133.48 462.923 1132.33 462.923H1106.5C1105.35 462.923 1104.33 463.658 1103.97 464.747L1099.87 477.049C1099.5 478.139 1098.48 478.874 1097.34 478.874H1086.42C1084.58 478.874 1083.29 477.05 1083.91 475.313L1110.15 401.338C1110.53 400.273 1111.53 399.561 1112.66 399.561H1126.94C1128.07 399.561 1129.08 400.282 1129.46 401.356L1155.08 475.332C1155.68 477.065 1154.39 478.874 1152.56 478.874H1141.41C1140.25 478.874 1139.23 478.131 1138.87 477.033L1134.86 464.763ZM1126.13 449.298C1127.95 449.298 1129.24 447.516 1128.67 445.788L1122.05 425.866C1121.24 423.433 1117.8 423.428 1116.99 425.858L1110.3 445.78C1109.72 447.509 1111 449.298 1112.83 449.298H1126.13Z" stroke="white" stroke-width="4" mask="url(#path-5-outside-1_2378_47207)"/>
<path d="M730.104 573.45L729.936 572.61C731.136 572.658 732.28 572.682 733.368 572.682C734.44 572.682 734.976 572.122 734.976 571.002V552.306H735.816V571.194C735.816 572.698 735.088 573.45 733.632 573.45H730.104ZM729.504 558.186C728.272 562.97 726.68 566.594 724.728 569.058L724.032 568.458C726.08 565.866 727.64 562.338 728.712 557.874L729.504 558.186ZM740.976 557.346C743.136 561.73 744.8 565.594 745.968 568.938L745.272 569.442C744.056 565.97 742.384 562.09 740.256 557.802L740.976 557.346ZM758.784 553.002H767.736V559.362H758.784V553.002ZM766.944 558.594V553.77H759.6V558.594H766.944ZM757.464 562.218H769.176V562.986H763.584V567.042H768.456V567.81H763.584V571.986H769.752V572.778H756.48V571.986H762.768V567.81H758.04V567.042H762.768V562.986H757.464V562.218ZM748.512 558.834H752.328V554.394C751.272 554.586 750.048 554.762 748.656 554.922L748.488 554.13C751.592 553.81 754.28 553.274 756.552 552.522L756.84 553.29C755.72 553.658 754.48 553.978 753.12 554.25V558.834H756.792V559.626H753.12V561.258C754.416 562.634 755.656 564.106 756.84 565.674L756.36 566.346C755.144 564.586 754.064 563.162 753.12 562.074V573.642H752.328V561.426C751.416 564.306 750.096 566.874 748.368 569.13L748.008 568.242C750.072 565.698 751.488 562.826 752.256 559.626H748.512V558.834ZM783.384 551.898C783.8 552.538 784.192 553.306 784.56 554.202H793.488V555.018H775.416V562.098C775.32 566.93 774.464 570.77 772.848 573.618L772.224 573.066C773.744 570.426 774.536 566.77 774.6 562.098V554.202H783.744C783.36 553.37 782.968 552.65 782.568 552.042L783.384 551.898ZM781.68 560.178C782.88 560.77 784.008 561.41 785.064 562.098C786.808 560.978 788.36 559.73 789.72 558.354H778.44V557.586H790.776V558.234C789.32 559.818 787.64 561.25 785.736 562.53C786.28 562.866 786.8 563.234 787.296 563.634L786.84 564.09H792.888V564.738C791.928 566.546 790.808 568.17 789.528 569.61L788.88 569.13C790.08 567.85 791.12 566.426 792 564.858H785.304V572.082C785.304 573.202 784.736 573.762 783.6 573.762H780.12L779.952 572.97C781.136 573.018 782.264 573.042 783.336 573.042C784.104 573.042 784.488 572.658 784.488 571.89V564.858H777.096V564.09H786.672C785.264 563.002 783.432 561.866 781.176 560.682L781.68 560.178ZM802.104 554.778C801.224 554.778 800.504 555.018 799.944 555.498C799.4 555.946 799.128 556.578 799.128 557.394C799.128 557.97 799.424 558.658 800.016 559.458C800.224 559.746 800.72 560.306 801.504 561.138L802.728 560.466C804.296 559.554 805.08 558.506 805.08 557.322C805.08 556.586 804.84 556.002 804.36 555.57C803.784 555.042 803.032 554.778 802.104 554.778ZM800.712 561.57C799.928 560.754 799.368 560.106 799.032 559.626C798.472 558.826 798.192 558.082 798.192 557.394C798.192 556.306 798.592 555.458 799.392 554.85C800.096 554.258 801.008 553.962 802.128 553.962C803.312 553.962 804.256 554.282 804.96 554.922C805.648 555.562 805.992 556.354 805.992 557.298C805.992 558.114 805.696 558.882 805.104 559.602C804.528 560.178 803.832 560.73 803.016 561.258C802.68 561.402 802.368 561.57 802.08 561.762L807.456 567.378C808.336 565.81 808.848 563.818 808.992 561.402H809.904C809.76 564.106 809.168 566.33 808.128 568.074L811.344 571.434H810.072L807.6 568.842C806.16 570.794 804.232 571.77 801.816 571.77C800.184 571.77 798.816 571.33 797.712 570.45C796.608 569.538 796.056 568.354 796.056 566.898C796.056 565.266 796.84 563.914 798.408 562.842L800.712 561.57ZM801.792 570.882C803.936 570.882 805.656 569.978 806.952 568.17L801.312 562.194C800.656 562.546 799.912 562.97 799.08 563.466C797.688 564.394 796.992 565.538 796.992 566.898C796.992 568.05 797.448 569.01 798.36 569.778C799.288 570.514 800.432 570.882 801.792 570.882ZM832.351 552.954C830.143 553.562 827.543 554.026 824.551 554.346V559.314H832.591V560.13H824.551V564.93H834.415V565.722H824.551V571.626C824.551 572.89 823.951 573.522 822.751 573.522H819.031L818.863 572.73C820.527 572.762 821.727 572.778 822.463 572.778C823.327 572.778 823.759 572.33 823.759 571.434V565.722H813.031V564.93H823.759V560.13H815.047V559.314H823.759V554.418C821.023 554.658 818.047 554.778 814.831 554.778L814.543 554.034C821.727 554.002 827.535 553.402 831.967 552.234L832.351 552.954ZM837.487 573.498L837.319 572.706C838.247 572.738 838.911 572.754 839.311 572.754C840.063 572.754 840.439 572.354 840.439 571.554V564.594C839.415 564.962 838.263 565.33 836.983 565.698L836.767 564.906C838.143 564.538 839.367 564.17 840.439 563.802V557.682H837.151V556.89H840.439V552.018H841.255V556.89H844.087V557.682H841.255V563.49C842.247 563.106 843.271 562.65 844.327 562.122V562.962C843.159 563.522 842.135 563.97 841.255 564.306V571.77C841.255 572.922 840.703 573.498 839.599 573.498H837.487ZM851.239 551.97H852.055V554.778H857.023V555.57H852.055V559.338H858.151V560.13H845.191V559.338H851.239V555.57H846.127V554.778H851.239V551.97ZM845.119 563.754H854.095V561.498H854.935V563.754H858.487V564.546H854.935V571.77C854.935 572.938 854.367 573.522 853.231 573.522H849.895L849.727 572.73C850.831 572.778 851.903 572.802 852.943 572.802C853.711 572.802 854.095 572.386 854.095 571.554V564.546H845.119V563.754ZM846.991 566.154C848.495 567.658 849.671 569.01 850.519 570.21L849.871 570.69C848.991 569.394 847.815 568.01 846.343 566.538L846.991 566.154ZM868.519 570.498C866.295 571.314 863.807 571.962 861.055 572.442L860.911 571.626C863.807 571.146 866.343 570.498 868.519 569.682V570.498ZM866.191 552.258C864.783 555.73 863.407 558.354 862.063 560.13C863.599 559.922 865.055 559.642 866.431 559.29C867.151 557.898 867.695 556.81 868.063 556.026L868.783 556.29C866.239 561.33 864.199 564.738 862.663 566.514C864.375 566.178 866.031 565.698 867.631 565.074V565.866C865.551 566.602 863.575 567.114 861.703 567.402L861.463 566.634C861.655 566.538 861.791 566.458 861.871 566.394C863.023 565.146 864.407 563.042 866.023 560.082C864.615 560.402 863.023 560.706 861.247 560.994L861.055 560.226C861.167 560.178 861.279 560.074 861.391 559.914C862.927 557.722 864.271 555.066 865.423 551.946L866.191 552.258ZM873.463 564.81C875.815 565.674 877.919 566.69 879.775 567.858L879.343 568.506C877.231 567.178 875.127 566.162 873.031 565.458L873.463 564.81ZM870.559 569.274C874.351 570.282 877.839 571.506 881.023 572.946L880.567 573.642C877.127 572.09 873.623 570.874 870.055 569.994L870.559 569.274ZM874.039 551.994C873.799 552.906 873.511 553.746 873.175 554.514H880.543V555.186C879.455 557.298 878.095 559.13 876.463 560.682C878.351 562.154 880.407 563.362 882.631 564.306L882.199 565.026C879.847 563.986 877.743 562.714 875.887 561.21C873.871 562.954 871.495 564.298 868.759 565.242L868.351 564.522C870.991 563.674 873.303 562.41 875.287 560.73C873.959 559.61 872.767 558.41 871.711 557.13C870.991 558.122 870.207 559.018 869.359 559.818L868.831 559.146C870.991 557.178 872.447 554.762 873.199 551.898L874.039 551.994ZM875.863 560.226C877.335 558.802 878.583 557.162 879.607 555.306H872.791C872.583 555.706 872.367 556.09 872.143 556.458C873.215 557.802 874.455 559.058 875.863 560.226ZM884.863 556.242H888.367C887.951 554.738 887.535 553.45 887.119 552.378L887.959 552.234C888.327 553.242 888.727 554.578 889.159 556.242H892.231V557.058H884.863V556.242ZM886.183 558.978C886.807 561.746 887.383 564.954 887.911 568.602L887.191 568.77C886.743 565.458 886.167 562.266 885.463 559.194L886.183 558.978ZM892.303 569.826C890.031 570.754 887.607 571.514 885.031 572.106L884.839 571.29C886.327 571.002 887.735 570.642 889.063 570.21C889.815 566.514 890.335 562.618 890.623 558.522L891.391 558.642C891.055 562.818 890.543 566.586 889.855 569.946C890.543 569.706 891.359 569.402 892.303 569.034V569.826ZM904.231 556.914V552.93H905.047V557.658H894.199V552.93H895.015V556.914H899.191V551.97H900.007V556.914H904.231ZM892.903 560.394H906.511V561.21H899.839C899.615 562.298 899.295 563.306 898.879 564.234H905.551V572.13C905.551 573.138 905.167 573.642 904.399 573.642H903.295L903.079 572.85L904.135 572.898C904.583 572.898 904.807 572.586 904.807 571.962V565.002H901.783V573.33H901.063V565.002H898.327V573.33H897.583V565.002H894.607V573.642H893.839V564.234H898.087C898.519 563.274 898.831 562.266 899.023 561.21H892.903V560.394Z" fill="#B8B8B8"/>
<line x1="929" y1="545.434" x2="929" y2="579.434" stroke="#999999" stroke-width="2"/>
<path d="M953.04 559.77V560.922C952.896 566.234 951.776 570.466 949.68 573.618L949.08 573.018C951.032 570.074 952.08 566.042 952.224 560.922V554.106C958.16 554.058 963.624 553.474 968.616 552.354L969.024 553.098C964.32 554.122 958.992 554.706 953.04 554.85V558.954H970.704V559.77H953.04ZM968.64 563.994V573.714H967.848V572.322H956.688V573.714H955.872V563.994H968.64ZM956.688 571.506H967.848V564.786H956.688V571.506ZM991.704 564.066V573.738H990.888V572.202H977.112V573.738H976.296V564.066H991.704ZM977.112 571.386H990.888V564.858H977.112V571.386ZM974.184 560.418C976.76 559.186 979.528 556.362 982.488 551.946L983.28 552.234C980.752 555.946 978.256 558.65 975.792 560.346C981.552 560.122 986.624 559.778 991.008 559.314C989.824 557.714 988.648 556.282 987.48 555.018L988.224 554.634C990.432 557.082 992.472 559.746 994.344 562.626L993.576 563.01C992.744 561.73 992.08 560.754 991.584 560.082C986.624 560.546 980.88 560.914 974.352 561.186L974.184 560.418ZM1003.1 554.778C1002.22 554.778 1001.5 555.018 1000.94 555.498C1000.4 555.946 1000.13 556.578 1000.13 557.394C1000.13 557.97 1000.42 558.658 1001.02 559.458C1001.22 559.746 1001.72 560.306 1002.5 561.138L1003.73 560.466C1005.3 559.554 1006.08 558.506 1006.08 557.322C1006.08 556.586 1005.84 556.002 1005.36 555.57C1004.78 555.042 1004.03 554.778 1003.1 554.778ZM1001.71 561.57C1000.93 560.754 1000.37 560.106 1000.03 559.626C999.472 558.826 999.192 558.082 999.192 557.394C999.192 556.306 999.592 555.458 1000.39 554.85C1001.1 554.258 1002.01 553.962 1003.13 553.962C1004.31 553.962 1005.26 554.282 1005.96 554.922C1006.65 555.562 1006.99 556.354 1006.99 557.298C1006.99 558.114 1006.7 558.882 1006.1 559.602C1005.53 560.178 1004.83 560.73 1004.02 561.258C1003.68 561.402 1003.37 561.57 1003.08 561.762L1008.46 567.378C1009.34 565.81 1009.85 563.818 1009.99 561.402H1010.9C1010.76 564.106 1010.17 566.33 1009.13 568.074L1012.34 571.434H1011.07L1008.6 568.842C1007.16 570.794 1005.23 571.77 1002.82 571.77C1001.18 571.77 999.816 571.33 998.712 570.45C997.608 569.538 997.056 568.354 997.056 566.898C997.056 565.266 997.84 563.914 999.408 562.842L1001.71 561.57ZM1002.79 570.882C1004.94 570.882 1006.66 569.978 1007.95 568.17L1002.31 562.194C1001.66 562.546 1000.91 562.97 1000.08 563.466C998.688 564.394 997.992 565.538 997.992 566.898C997.992 568.05 998.448 569.01 999.36 569.778C1000.29 570.514 1001.43 570.882 1002.79 570.882ZM1014.29 558.57H1023.92C1024.14 557.066 1024.27 555.442 1024.3 553.698V551.994H1025.12V553.506C1025.12 555.186 1024.99 556.874 1024.73 558.57H1035.13V559.386H1025.26C1026.93 565.29 1030.33 569.802 1035.49 572.922L1035.01 573.594C1029.73 570.362 1026.25 565.666 1024.57 559.506C1023.32 566.082 1019.92 570.81 1014.37 573.69L1013.86 573.018C1019.27 570.33 1022.57 565.786 1023.77 559.386H1014.29V558.57ZM1053.75 563.082H1048.47V564.426C1048.47 565.242 1048.41 566.13 1048.3 567.09H1053.75V563.082ZM1053.75 567.882H1048.16C1047.95 568.858 1047.64 569.722 1047.22 570.474C1046.39 571.898 1045.06 573.01 1043.24 573.81L1042.76 573.066C1044.52 572.346 1045.8 571.29 1046.6 569.898C1046.9 569.274 1047.13 568.602 1047.29 567.882H1042.49V567.09H1047.46C1047.59 566.242 1047.66 565.354 1047.68 564.426V563.082H1043.38V562.266H1047.85C1047.24 561.194 1046.66 560.298 1046.12 559.578L1046.84 559.218C1047.59 560.306 1048.22 561.322 1048.73 562.266H1052.91C1053.71 561.29 1054.41 560.218 1055 559.05L1055.77 559.314C1055.17 560.434 1054.5 561.418 1053.75 562.266H1058.33V563.082H1054.54V567.09H1059.32V567.882H1054.54V573.546H1053.75V567.882ZM1056.99 553.818H1041.61V557.202H1056.99V553.818ZM1041.61 557.994V560.658C1041.59 565.698 1040.68 570.018 1038.87 573.618L1038.17 573.018C1039.92 569.818 1040.8 565.698 1040.81 560.658V553.002H1057.81V557.994H1041.61Z" fill="#B8B8B8"/>
<line x1="1082" y1="545.434" x2="1082" y2="579.434" stroke="#999999" stroke-width="2"/>
<path d="M1112.66 551.61C1113.14 552.49 1113.58 553.514 1113.96 554.682H1122.58V555.474H1118.18C1117.88 557.026 1117.4 558.53 1116.74 559.986H1123.08V560.778H1105.51V564.81C1105.42 568.522 1104.52 571.49 1102.82 573.714L1102.22 573.162C1103.79 571.146 1104.61 568.362 1104.67 564.81V559.986H1109.66L1108.46 555.474H1103.86V554.682H1113.14C1112.71 553.514 1112.27 552.538 1111.82 551.754L1112.66 551.61ZM1110.5 559.986H1115.9C1116.61 558.594 1117.1 557.09 1117.37 555.474H1109.28L1110.5 559.986ZM1130.66 553.242H1143.26V560.274H1130.66V553.242ZM1142.42 559.458V554.058H1131.5V559.458H1142.42ZM1135.3 563.586V573.354H1134.48V572.01H1128.38V573.354H1127.57V563.586H1135.3ZM1128.38 571.218H1134.48V564.378H1128.38V571.218ZM1146.41 563.586V573.354H1145.59V572.01H1139.28V573.354H1138.46V563.586H1146.41ZM1139.28 571.218H1145.59V564.378H1139.28V571.218ZM1164.74 551.994H1165.56V559.458C1167.66 561.026 1169.77 562.81 1171.9 564.81L1171.39 565.506C1169.07 563.234 1167.13 561.514 1165.56 560.346V573.69H1164.74V551.994ZM1154.21 561.666C1155.68 562.498 1157.04 563.49 1158.29 564.642C1159.66 562.226 1160.54 559.498 1160.93 556.458H1155.36C1154.21 559.258 1152.65 561.554 1150.68 563.346L1150.15 562.674C1152.98 560.034 1154.9 556.466 1155.91 551.97L1156.73 552.114C1156.46 553.314 1156.1 554.498 1155.67 555.666H1161.72V556.362C1160.9 563.658 1157.37 569.178 1151.11 572.922L1150.56 572.226C1153.73 570.354 1156.18 568.05 1157.9 565.314C1156.53 564.034 1155.14 563.042 1153.75 562.338L1154.21 561.666ZM1193.64 553.122V565.842H1192.85V553.914H1185.07V565.842H1184.28V553.122H1193.64ZM1191.29 573.306C1190.18 573.306 1189.63 572.754 1189.63 571.65V566.034H1190.45V571.506C1190.45 572.178 1190.81 572.514 1191.53 572.514H1193.35C1193.93 572.514 1194.33 572.378 1194.55 572.106C1194.86 571.722 1195.07 570.634 1195.2 568.842L1195.92 569.082C1195.82 571.018 1195.57 572.242 1195.15 572.754C1194.82 573.122 1194.26 573.306 1193.5 573.306H1191.29ZM1188.53 555.954H1189.34V560.826C1189.31 564.282 1188.67 567.05 1187.42 569.13C1186.19 571.05 1184.18 572.578 1181.4 573.714L1180.92 572.994C1183.66 571.938 1185.65 570.434 1186.9 568.482C1187.97 566.498 1188.51 563.946 1188.53 560.826V555.954ZM1175.14 557.538C1176.61 559.266 1178.06 561.146 1179.48 563.178C1180.25 560.682 1180.73 557.946 1180.92 554.97H1174.68V554.154H1181.69V554.802C1181.54 558.21 1180.99 561.282 1180.03 564.018C1181.23 565.778 1182.25 567.41 1183.08 568.914L1182.48 569.49C1181.7 568.066 1180.77 566.554 1179.7 564.954C1178.53 567.914 1176.86 570.482 1174.68 572.658L1174.15 572.058C1176.39 569.818 1178.06 567.178 1179.14 564.138C1177.86 562.25 1176.34 560.226 1174.56 558.066L1175.14 557.538Z" fill="#B8B8B8"/>
</g>
<defs>
<clipPath id="paint0_angular_2378_47207_clip_path"><path d="M826.947 465.288L811.609 474.378L791.25 474.346L740.6 474.378V404.221L801.384 369L801.444 369.102L765.879 430.494V448.53H817.29L826.947 465.288Z"/></clipPath><clipPath id="paint1_angular_2378_47207_clip_path"><path d="M862.398 404.283V474.378H862.281L837.193 430.923L832.341 422.635L826.797 412.918L826.794 412.915L811.334 403.991L803.977 416.732L783.208 448.482H766.033V430.593L776.193 412.997L776.312 412.793L801.518 369.133L862.398 404.283Z"/></clipPath><clipPath id="paint2_angular_2378_47207_clip_path"><path d="M862.077 474.284L801.197 509.434L740.492 474.383L740.549 474.284H790.73L801.197 474.383L811.854 474.284H811.518L826.981 465.354L819.625 452.615L801.915 419.701L811.325 403.937L826.592 412.824L862.077 474.284Z"/></clipPath><linearGradient id="paint3_linear_2378_47207" x1="909.826" y1="439.81" x2="1163.14" y2="445.29" gradientUnits="userSpaceOnUse">
<stop stop-color="#14A7F9"/>
<stop offset="1" stop-color="#5054E5"/>
</linearGradient>
<linearGradient id="paint4_linear_2378_47207" x1="909.826" y1="439.81" x2="1163.14" y2="445.29" gradientUnits="userSpaceOnUse">
<stop stop-color="#14A7F9"/>
<stop offset="1" stop-color="#5054E5"/>
</linearGradient>
<linearGradient id="paint5_linear_2378_47207" x1="909.826" y1="439.81" x2="1163.14" y2="445.29" gradientUnits="userSpaceOnUse">
<stop stop-color="#14A7F9"/>
<stop offset="1" stop-color="#5054E5"/>
</linearGradient>
<linearGradient id="paint6_linear_2378_47207" x1="909.826" y1="439.81" x2="1163.14" y2="445.29" gradientUnits="userSpaceOnUse">
<stop stop-color="#14A7F9"/>
<stop offset="1" stop-color="#5054E5"/>
</linearGradient>
<clipPath id="clip0_2378_47207">
<rect width="1920" height="1080" fill="white"/>
</clipPath>
</defs>
</svg>
