<svg width="1920" height="1080" viewBox="0 0 1920 1080" fill="none" xmlns="http://www.w3.org/2000/svg">
<path d="M320.72 204.165C318.902 204.165 316.918 203.628 314.768 202.553C314.355 197.924 312.908 193.543 310.428 189.409C307.948 185.276 304.89 181.969 301.252 179.489L302.12 178.621C304.435 178.456 306.584 178.373 308.568 178.373C316.918 178.373 322.911 179.613 326.548 182.093C330.682 184.739 332.748 187.88 332.748 191.517C332.748 191.931 332.583 193.253 332.252 195.485C331.922 197.717 330.02 199.991 326.548 202.305C324.73 203.545 322.787 204.165 320.72 204.165ZM243.22 212.845L242.6 211.605C248.552 206.397 254.256 200.487 259.712 193.873C265.251 187.177 269.632 181.184 272.856 175.893L290.836 186.929C290.092 188.169 288.852 188.789 287.116 188.789L285.752 188.665C274.344 198.172 260.167 206.232 243.22 212.845ZM243.22 293.941H239.996L251.28 240.621C245.742 244.259 240.038 247.524 234.168 250.417L233.424 249.301C240.534 242.357 247.23 234.545 253.512 225.865C259.878 217.103 264.92 209.291 268.64 202.429L287.612 212.969C287.199 213.631 286.62 214.127 285.876 214.457C285.215 214.788 284.347 214.953 283.272 214.953H282.404C278.271 219.169 273.476 223.551 268.02 228.097L274.592 230.701C274.096 231.859 272.65 232.685 270.252 233.181L258.472 288.485C257.976 289.395 256.199 290.511 253.14 291.833C250.164 293.239 246.858 293.941 243.22 293.941ZM341.428 290.593H263.556L263.308 287.121H291.456L299.888 247.441H277.816L277.568 243.969H300.632L307.948 209.621H282.652L282.404 206.149H337.212L347.876 194.741L349.984 196.849C351.39 198.255 353.002 199.949 354.82 201.933C356.722 203.917 358.416 205.819 359.904 207.637C359.16 208.96 357.838 209.621 355.936 209.621H326.176L318.86 243.969H328.284L338.7 232.809L340.808 234.917C342.131 236.323 343.702 238.017 345.52 240.001C347.422 241.903 349.116 243.721 350.604 245.457C349.86 246.78 348.538 247.441 346.636 247.441H318.116L309.684 287.121H322.208L333.12 275.465L335.352 277.697C336.758 279.103 338.411 280.797 340.312 282.781C342.214 284.848 343.95 286.791 345.52 288.609C344.694 289.932 343.33 290.593 341.428 290.593ZM435.172 276.829L443.852 235.909H399.46L390.78 276.829H435.172ZM444.596 232.437L452.904 193.253H408.512L400.204 232.437H444.596ZM371.436 293.197H368.336L392.02 181.845L410.372 189.781H452.408L463.32 180.109L477.208 193.501C476.216 194.659 474.439 195.568 471.876 196.229L452.78 286.253C452.532 286.749 451.458 287.452 449.556 288.361C447.655 289.271 445.34 290.097 442.612 290.841C439.967 291.585 437.446 291.957 435.048 291.957H431.948L434.428 280.301H390.036L388.796 286.253C388.383 287.576 386.399 289.064 382.844 290.717C379.372 292.371 375.57 293.197 371.436 293.197ZM521.104 209.373C518.542 209.373 516.02 208.299 513.54 206.149C513.706 204.248 513.788 202.388 513.788 200.569C513.788 193.46 512.466 187.012 509.82 181.225L510.812 180.605C525.775 183.333 533.256 188.789 533.256 196.973C533.256 198.296 532.719 200.239 531.644 202.801C530.652 205.281 528.296 207.265 524.576 208.753C523.419 209.167 522.262 209.373 521.104 209.373ZM474.976 293.197L474.232 291.585C491.923 279.764 505.315 267.529 514.408 254.881C523.502 242.151 530.115 229.213 534.248 216.069H495.312L494.94 212.597H535.364C538.506 201.851 541.151 191.145 543.3 180.481C543.631 179.241 543.92 177.96 544.168 176.637L568.348 178.993C567.687 180.895 565.91 182.052 563.016 182.465C561.032 191.228 558.304 201.272 554.832 212.597H581.988L594.016 202.801L607.036 216.813C605.879 218.053 603.812 218.963 600.836 219.541C595.711 241.531 591.371 257.609 587.816 267.777C584.262 277.945 580.335 284.559 576.036 287.617C573.226 289.767 570.084 291.213 566.612 291.957C563.223 292.701 559.048 293.073 554.088 293.073C554.667 291.007 554.956 289.147 554.956 287.493C554.956 285.261 554.419 283.443 553.344 282.037C551.36 279.227 547.268 277.16 541.068 275.837L541.44 274.473C549.79 275.135 555.7 275.465 559.172 275.465C561.156 275.465 562.768 274.969 564.008 273.977C568.472 270.423 574.672 251.12 582.608 216.069H553.592C552.104 220.451 550.368 224.749 548.384 228.965C557.395 232.024 563.099 235.744 565.496 240.125C566.736 242.605 567.356 244.961 567.356 247.193C567.356 249.095 566.654 251.451 565.248 254.261C563.843 256.989 561.198 258.891 557.312 259.965C556.403 260.213 555.494 260.337 554.584 260.337C551.774 260.337 549.087 258.973 546.524 256.245C547.682 251.451 548.26 246.863 548.26 242.481C548.26 238.761 547.847 235.165 547.02 231.693C541.482 243.432 533.091 254.551 521.848 265.049C510.606 275.548 494.982 284.931 474.976 293.197ZM651.056 294.437C651.47 292.123 651.676 290.097 651.676 288.361C651.676 285.881 651.263 283.98 650.436 282.657C649.692 281.417 648.576 280.343 647.088 279.433C645.6 278.441 643.162 277.615 639.772 276.953L640.02 275.465L647.336 275.837C651.966 276.168 655.107 276.333 656.76 276.333C658.662 276.333 659.612 275.672 659.612 274.349L666.184 243.597H638.036L637.664 240.125H703.136L713.428 231.693L725.208 245.457C724.134 246.367 722.356 246.904 719.876 247.069C716.404 249.88 712.23 252.856 707.352 255.997C702.558 259.056 697.97 261.66 693.588 263.809L692.844 263.065C696.151 257.692 699.582 251.203 703.136 243.597H684.412L677.84 274.721C676.848 280.425 674.534 284.972 670.896 288.361C667.342 291.751 660.728 293.776 651.056 294.437ZM597.24 294.189L596.372 293.445C603.234 283.939 608.4 273.605 611.872 262.445C615.427 251.203 618.238 240.208 620.304 229.461L628.488 191.021L647.584 197.965H678.336L677.468 197.345C677.303 189.161 675.319 182.217 671.516 176.513L672.384 175.893C681.891 176.224 688.38 177.795 691.852 180.605C694.746 183.003 696.192 185.565 696.192 188.293C696.192 188.872 695.944 190.153 695.448 192.137C694.952 194.121 693.134 196.064 689.992 197.965H712.188L723.224 186.185L725.456 188.417C726.944 189.905 728.639 191.683 730.54 193.749C732.442 195.733 734.178 197.635 735.748 199.453C734.839 200.776 733.516 201.437 731.78 201.437H708.592L720.744 215.821C720.083 216.4 719.339 216.813 718.512 217.061C717.686 217.227 716.611 217.351 715.288 217.433C706.856 221.401 697.267 225.08 686.52 228.469C686.686 229.296 686.768 230.081 686.768 230.825C686.768 233.388 685.776 235.62 683.792 237.521C682.056 239.175 679.99 240.001 677.592 240.001C676.435 240.001 675.195 239.795 673.872 239.381C672.715 235.909 670.731 232.479 667.92 229.089C665.192 225.617 662.299 222.807 659.24 220.657L660.356 219.665C662.506 219.5 664.531 219.417 666.432 219.417C674.782 219.417 680.568 221.029 683.792 224.253C688.008 220.616 691.811 217.061 695.2 213.589H649.196L648.824 210.117H696.936L708.096 201.437H644.236L638.284 229.461C636.962 236.405 634.978 243.804 632.332 251.657C629.687 259.428 625.595 267.033 620.056 274.473C614.6 281.831 606.995 288.403 597.24 294.189ZM308.825 425.817H305.353L313.413 387.873C298.45 401.431 279.85 412.053 257.613 419.741L256.993 418.377C267.492 412.26 277.081 404.944 285.761 396.429C294.524 387.832 301.757 379.028 307.461 370.017H269.889L269.641 366.545H317.877L324.945 333.313H282.785L282.537 329.841H325.689L330.401 308.141L352.845 310.373C352.597 311.283 352.06 312.027 351.233 312.605C350.489 313.184 349.249 313.597 347.513 313.845L344.041 329.841H362.765L375.041 317.813L377.521 320.045C379.174 321.533 381.117 323.311 383.349 325.377C385.581 327.444 387.648 329.428 389.549 331.329C388.722 332.652 387.358 333.313 385.457 333.313H343.297L336.229 366.545H358.549L371.073 354.269L373.677 356.501C375.33 358.072 377.314 359.932 379.629 362.081C381.944 364.148 384.052 366.132 385.953 368.033C385.126 369.356 383.762 370.017 381.861 370.017H337.841C341.561 377.54 347.265 383.781 354.953 388.741C362.724 393.619 371.197 397.049 380.373 399.033L379.753 400.521C372.478 402.34 366.774 407.713 362.641 416.641C346.108 407.879 337.056 392.503 335.485 370.513L324.945 419.617C324.78 420.279 323.829 421.064 322.093 421.973C320.44 422.965 318.373 423.833 315.893 424.577C313.496 425.404 311.14 425.817 308.825 425.817ZM303.493 364.065C300.93 364.065 298.45 362.867 296.053 360.469C296.549 357.411 296.797 354.352 296.797 351.293C296.797 346.581 296.136 341.291 294.813 335.421L295.929 334.925C304.774 337.571 310.396 340.96 312.793 345.093C314.281 347.491 315.025 349.847 315.025 352.161C315.025 353.649 314.405 355.675 313.165 358.237C312.008 360.717 309.652 362.536 306.097 363.693C305.188 363.941 304.32 364.065 303.493 364.065ZM342.057 364.313L341.065 363.445C346.025 355.427 351.15 345.713 356.441 334.305L376.529 342.861C375.62 344.432 373.966 345.217 371.569 345.217H370.825C361.484 353.236 351.894 359.601 342.057 364.313ZM465.809 408.829L474.489 367.909H430.097L421.417 408.829H465.809ZM475.233 364.437L483.541 325.253H439.149L430.841 364.437H475.233ZM402.073 425.197H398.973L422.657 313.845L441.009 321.781H483.045L493.957 312.109L507.845 325.501C506.853 326.659 505.076 327.568 502.513 328.229L483.417 418.253C483.169 418.749 482.094 419.452 480.193 420.361C478.292 421.271 475.977 422.097 473.249 422.841C470.604 423.585 468.082 423.957 465.685 423.957H462.585L465.065 412.301H420.673L419.433 418.253C419.02 419.576 417.036 421.064 413.481 422.717C410.009 424.371 406.206 425.197 402.073 425.197ZM551.741 341.373C549.178 341.373 546.657 340.299 544.177 338.149C544.342 336.248 544.425 334.388 544.425 332.569C544.425 325.46 543.102 319.012 540.457 313.225L541.449 312.605C556.412 315.333 563.893 320.789 563.893 328.973C563.893 330.296 563.356 332.239 562.281 334.801C561.289 337.281 558.933 339.265 555.213 340.753C554.056 341.167 552.898 341.373 551.741 341.373ZM505.613 425.197L504.869 423.585C522.56 411.764 535.952 399.529 545.045 386.881C554.138 374.151 560.752 361.213 564.885 348.069H525.949L525.577 344.597H566.001C569.142 333.851 571.788 323.145 573.937 312.481C574.268 311.241 574.557 309.96 574.805 308.637L598.985 310.993C598.324 312.895 596.546 314.052 593.653 314.465C591.669 323.228 588.941 333.272 585.469 344.597H612.625L624.653 334.801L637.673 348.813C636.516 350.053 634.449 350.963 631.473 351.541C626.348 373.531 622.008 389.609 618.453 399.777C614.898 409.945 610.972 416.559 606.673 419.617C603.862 421.767 600.721 423.213 597.249 423.957C593.86 424.701 589.685 425.073 584.725 425.073C585.304 423.007 585.593 421.147 585.593 419.493C585.593 417.261 585.056 415.443 583.981 414.037C581.997 411.227 577.905 409.16 571.705 407.837L572.077 406.473C580.426 407.135 586.337 407.465 589.809 407.465C591.793 407.465 593.405 406.969 594.645 405.977C599.109 402.423 605.309 383.12 613.245 348.069H584.229C582.741 352.451 581.005 356.749 579.021 360.965C588.032 364.024 593.736 367.744 596.133 372.125C597.373 374.605 597.993 376.961 597.993 379.193C597.993 381.095 597.29 383.451 595.885 386.261C594.48 388.989 591.834 390.891 587.949 391.965C587.04 392.213 586.13 392.337 585.221 392.337C582.41 392.337 579.724 390.973 577.161 388.245C578.318 383.451 578.897 378.863 578.897 374.481C578.897 370.761 578.484 367.165 577.657 363.693C572.118 375.432 563.728 386.551 552.485 397.049C541.242 407.548 525.618 416.931 505.613 425.197ZM716.537 384.773L718.893 373.861H676.237L673.881 384.773H716.537ZM719.637 370.389L721.869 359.725H679.213L676.981 370.389H719.637ZM681.073 425.817H677.601L682.065 404.489H635.937L635.689 401.017H682.809L685.537 388.245H673.137L672.641 390.973C672.476 391.552 671.525 392.296 669.789 393.205C668.053 394.032 665.904 394.817 663.341 395.561C660.861 396.223 658.381 396.553 655.901 396.553H653.421L663.465 349.061L680.949 356.253H721.373L730.921 347.945H646.601L646.353 344.473H683.057C682.065 343.977 681.114 343.233 680.205 342.241C680.701 339.513 680.949 336.992 680.949 334.677C680.949 331.784 680.577 329.139 679.833 326.741L680.701 326.245C692.274 327.733 698.061 331.123 698.061 336.413C698.061 339.968 695.912 342.655 691.613 344.473H711.577C714.966 338.356 717.86 332.28 720.257 326.245H658.257L658.009 322.773H706.369C704.964 322.443 703.641 321.74 702.401 320.665C702.566 319.508 702.649 318.351 702.649 317.193C702.649 313.721 701.905 310.539 700.417 307.645L701.285 307.149H703.765C714.677 307.149 720.133 309.505 720.133 314.217C720.133 315.209 719.554 316.656 718.397 318.557C717.24 320.376 714.925 321.781 711.453 322.773H736.501L747.785 311.117L750.141 313.225C751.629 314.713 753.365 316.491 755.349 318.557C757.333 320.541 759.152 322.443 760.805 324.261C759.978 325.584 758.614 326.245 756.713 326.245H723.977L740.221 331.081C739.56 332.652 737.824 333.437 735.013 333.437C729.888 337.075 723.605 340.753 716.165 344.473H738.857L750.017 332.817L752.373 334.925C753.861 336.413 755.597 338.191 757.581 340.257C759.565 342.241 761.384 344.143 763.037 345.961C762.21 347.284 760.846 347.945 758.945 347.945H731.169L744.561 359.849C743.734 360.841 742.122 361.627 739.725 362.205L734.021 389.113C733.856 389.527 732.864 390.105 731.045 390.849C729.309 391.593 727.201 392.296 724.721 392.957C722.241 393.536 719.968 393.825 717.901 393.825H714.677L715.793 388.245H704.137L701.409 401.017H724.101L735.633 389.609L737.989 391.717C739.56 393.123 741.42 394.817 743.569 396.801C745.718 398.785 747.661 400.687 749.397 402.505C748.57 403.828 747.206 404.489 745.305 404.489H700.665L696.821 422.593C696.656 423.007 695.168 423.627 692.357 424.453C689.629 425.363 685.868 425.817 681.073 425.817Z" fill="white"/>
<path d="M241.544 450.661H245.16V472.869H241.544V462.437H231.368V472.869H227.784V450.661H231.368V459.461H241.544V450.661ZM263.714 464.773L252.226 465.509C252.268 467.194 252.684 468.421 253.474 469.189C254.263 469.935 255.586 470.309 257.442 470.309C258.423 470.309 259.426 470.202 260.45 469.989C261.495 469.754 262.338 469.477 262.978 469.157V472.101C262.423 472.399 261.58 472.655 260.45 472.869C259.319 473.082 258.124 473.189 256.866 473.189C255.052 473.189 253.548 472.922 252.354 472.389C251.18 471.834 250.274 470.906 249.634 469.605C249.015 468.282 248.706 466.49 248.706 464.229C248.706 461.967 249.015 460.186 249.634 458.885C250.252 457.562 251.148 456.634 252.322 456.101C253.516 455.546 255.01 455.269 256.802 455.269C259.511 455.269 261.367 455.941 262.37 457.285C263.372 458.629 263.874 460.41 263.874 462.629C263.874 463.311 263.82 464.026 263.714 464.773ZM260.61 462.405C260.61 460.997 260.354 459.909 259.842 459.141C259.351 458.373 258.338 457.989 256.802 457.989C255.095 457.989 253.911 458.394 253.25 459.205C252.61 460.015 252.268 461.285 252.226 463.013L260.61 462.405ZM267.299 469.093V448.549H270.723V468.229C270.723 469.039 270.841 469.583 271.075 469.861C271.31 470.138 271.715 470.277 272.291 470.277C272.718 470.277 273.102 470.223 273.443 470.117V472.869C272.91 472.997 272.291 473.061 271.587 473.061C270.073 473.061 268.974 472.751 268.291 472.133C267.63 471.493 267.299 470.479 267.299 469.093ZM275.714 469.093V448.549H279.138V468.229C279.138 469.039 279.256 469.583 279.49 469.861C279.725 470.138 280.13 470.277 280.706 470.277C281.133 470.277 281.517 470.223 281.858 470.117V472.869C281.325 472.997 280.706 473.061 280.002 473.061C278.488 473.061 277.389 472.751 276.706 472.133C276.045 471.493 275.714 470.479 275.714 469.093ZM283.169 464.229C283.169 461.967 283.479 460.186 284.097 458.885C284.737 457.562 285.644 456.634 286.817 456.101C288.012 455.546 289.516 455.269 291.329 455.269C293.164 455.269 294.668 455.546 295.841 456.101C297.036 456.634 297.943 457.562 298.561 458.885C299.18 460.186 299.489 461.967 299.489 464.229C299.489 466.49 299.18 468.282 298.561 469.605C297.943 470.906 297.036 471.834 295.841 472.389C294.668 472.922 293.164 473.189 291.329 473.189C289.516 473.189 288.012 472.922 286.817 472.389C285.644 471.834 284.737 470.906 284.097 469.605C283.479 468.282 283.169 466.49 283.169 464.229ZM295.905 464.229C295.905 462.629 295.756 461.381 295.457 460.485C295.18 459.589 294.711 458.949 294.049 458.565C293.409 458.181 292.503 457.989 291.329 457.989C290.156 457.989 289.239 458.181 288.577 458.565C287.916 458.949 287.447 459.589 287.169 460.485C286.892 461.381 286.753 462.629 286.753 464.229C286.753 465.829 286.892 467.077 287.169 467.973C287.468 468.847 287.948 469.477 288.609 469.861C289.271 470.245 290.177 470.437 291.329 470.437C292.524 470.437 293.441 470.245 294.081 469.861C294.743 469.477 295.212 468.847 295.489 467.973C295.767 467.098 295.905 465.85 295.905 464.229ZM304.71 465.829L304.166 450.661H308.038L307.494 465.829H304.71ZM303.814 470.789C303.814 470.149 303.878 469.669 304.006 469.349C304.134 469.029 304.347 468.815 304.646 468.709C304.966 468.602 305.446 468.549 306.086 468.549C306.704 468.549 307.163 468.602 307.462 468.709C307.782 468.815 308.006 469.029 308.134 469.349C308.283 469.669 308.358 470.149 308.358 470.789C308.358 471.45 308.294 471.941 308.166 472.261C308.038 472.581 307.814 472.794 307.494 472.901C307.174 473.007 306.704 473.061 306.086 473.061C305.446 473.061 304.966 473.007 304.646 472.901C304.347 472.794 304.134 472.581 304.006 472.261C303.878 471.941 303.814 471.45 303.814 470.789ZM321.033 472.869V450.661H324.617V472.869H321.033ZM330.189 448.549H333.453C333.453 449.637 333.186 451.002 332.653 452.645C332.141 454.266 331.554 455.717 330.893 456.997H328.429C328.92 455.653 329.336 454.213 329.677 452.677C330.018 451.119 330.189 449.743 330.189 448.549ZM361.653 461.093V472.869H358.197V462.053C358.197 460.73 357.973 459.759 357.525 459.141C357.077 458.522 356.288 458.213 355.157 458.213C354.09 458.213 353.216 458.426 352.533 458.853C351.85 459.258 351.37 459.994 351.093 461.061V472.869H347.637V462.053C347.637 460.73 347.424 459.759 346.997 459.141C346.57 458.522 345.802 458.213 344.693 458.213C343.605 458.213 342.741 458.415 342.101 458.821C341.461 459.205 340.97 459.941 340.629 461.029V472.869H337.173V455.589H340.629V457.733C341.098 456.837 341.738 456.207 342.549 455.845C343.381 455.461 344.384 455.269 345.557 455.269C348.117 455.269 349.781 456.165 350.549 457.957C351.445 456.165 353.248 455.269 355.957 455.269C359.754 455.269 361.653 457.21 361.653 461.093ZM387.399 460.709V472.869H384.391L383.975 470.469C383.527 471.301 382.759 471.962 381.671 472.453C380.604 472.943 379.399 473.189 378.055 473.189C374.087 473.189 372.103 471.461 372.103 468.005C372.103 466.042 372.689 464.634 373.863 463.781C375.036 462.927 376.764 462.501 379.047 462.501H383.975V461.413C383.975 460.282 383.687 459.461 383.111 458.949C382.556 458.415 381.489 458.149 379.911 458.149C378.631 458.149 377.383 458.277 376.167 458.533V455.557C377.447 455.365 378.791 455.269 380.199 455.269C382.844 455.269 384.7 455.738 385.767 456.677C386.855 457.594 387.399 458.938 387.399 460.709ZM383.975 467.589V465.061H379.431C378.023 465.061 377.02 465.263 376.423 465.669C375.847 466.053 375.559 466.799 375.559 467.909C375.559 468.762 375.804 469.402 376.295 469.829C376.785 470.234 377.564 470.437 378.631 470.437C379.932 470.437 381.041 470.191 381.959 469.701C382.897 469.189 383.569 468.485 383.975 467.589ZM399.146 465.637V450.661H402.73V465.029C402.73 466.266 402.89 467.247 403.21 467.973C403.53 468.698 404.052 469.231 404.778 469.573C405.524 469.893 406.548 470.053 407.85 470.053C409.194 470.053 410.239 469.893 410.986 469.573C411.732 469.231 412.255 468.709 412.554 468.005C412.852 467.279 413.002 466.287 413.002 465.029V450.661H416.554V465.637C416.554 468.261 415.828 470.181 414.378 471.397C412.927 472.591 410.74 473.189 407.818 473.189C404.874 473.189 402.687 472.613 401.258 471.461C399.85 470.287 399.146 468.346 399.146 465.637ZM421.031 472.869V450.661H424.615V472.869H421.031ZM451.399 448.549V472.869H448.391L448.007 470.181C447.644 471.119 447.004 471.855 446.087 472.389C445.191 472.922 443.996 473.189 442.502 473.189C440.668 473.189 439.238 472.826 438.214 472.101C437.19 471.375 436.476 470.362 436.07 469.061C435.665 467.759 435.462 466.149 435.462 464.229C435.462 461.477 435.974 459.301 436.998 457.701C438.044 456.079 439.878 455.269 442.502 455.269C444.081 455.269 445.286 455.525 446.118 456.037C446.972 456.549 447.591 457.306 447.974 458.309V448.549H451.399ZM448.102 464.229C448.102 462.202 447.74 460.655 447.014 459.589C446.31 458.522 445.073 457.989 443.302 457.989C442.108 457.989 441.19 458.266 440.55 458.821C439.932 459.375 439.526 460.101 439.334 460.997C439.142 461.871 439.046 462.949 439.046 464.229C439.046 465.551 439.142 466.661 439.334 467.557C439.548 468.431 439.964 469.135 440.582 469.669C441.201 470.181 442.108 470.437 443.302 470.437C445.116 470.437 446.364 469.925 447.047 468.901C447.751 467.877 448.102 466.319 448.102 464.229ZM469.854 464.773L458.366 465.509C458.408 467.194 458.824 468.421 459.614 469.189C460.403 469.935 461.726 470.309 463.582 470.309C464.563 470.309 465.566 470.202 466.59 469.989C467.635 469.754 468.478 469.477 469.118 469.157V472.101C468.563 472.399 467.72 472.655 466.59 472.869C465.459 473.082 464.264 473.189 463.006 473.189C461.192 473.189 459.688 472.922 458.494 472.389C457.32 471.834 456.414 470.906 455.774 469.605C455.155 468.282 454.846 466.49 454.846 464.229C454.846 461.967 455.155 460.186 455.774 458.885C456.392 457.562 457.288 456.634 458.462 456.101C459.656 455.546 461.15 455.269 462.942 455.269C465.651 455.269 467.507 455.941 468.51 457.285C469.512 458.629 470.014 460.41 470.014 462.629C470.014 463.311 469.96 464.026 469.854 464.773ZM466.75 462.405C466.75 460.997 466.494 459.909 465.982 459.141C465.491 458.373 464.478 457.989 462.942 457.989C461.235 457.989 460.051 458.394 459.39 459.205C458.75 460.015 458.408 461.285 458.366 463.013L466.75 462.405ZM472.543 472.517V469.605C473.247 469.818 474.069 469.999 475.007 470.149C475.967 470.277 476.831 470.341 477.599 470.341C478.858 470.341 479.775 470.17 480.351 469.829C480.927 469.487 481.215 468.879 481.215 468.005C481.215 467.386 481.119 466.917 480.927 466.597C480.757 466.255 480.415 465.978 479.903 465.765C479.413 465.551 478.623 465.317 477.535 465.061C476.255 464.762 475.274 464.421 474.591 464.037C473.93 463.631 473.461 463.13 473.183 462.533C472.927 461.914 472.799 461.103 472.799 460.101C472.799 458.586 473.333 457.402 474.399 456.549C475.466 455.695 477.077 455.269 479.231 455.269C480.106 455.269 480.959 455.322 481.791 455.429C482.645 455.535 483.295 455.674 483.743 455.845L483.551 458.629C483.039 458.437 482.389 458.277 481.599 458.149C480.831 458.021 480.074 457.957 479.327 457.957C478.133 457.957 477.279 458.117 476.767 458.437C476.255 458.757 475.999 459.322 475.999 460.133C475.999 460.645 476.085 461.039 476.255 461.317C476.426 461.594 476.725 461.818 477.151 461.989C477.599 462.159 478.303 462.362 479.263 462.597C480.607 462.917 481.642 463.279 482.367 463.685C483.114 464.09 483.647 464.623 483.967 465.285C484.287 465.925 484.447 466.789 484.447 467.877C484.447 469.669 483.871 470.981 482.719 471.813C481.589 472.645 479.925 473.061 477.727 473.061C476.81 473.061 475.861 473.007 474.879 472.901C473.898 472.794 473.119 472.666 472.543 472.517ZM487.66 450.757C487.66 450.202 487.713 449.797 487.82 449.541C487.948 449.263 488.151 449.082 488.428 448.997C488.705 448.911 489.121 448.869 489.676 448.869C490.231 448.869 490.636 448.911 490.892 448.997C491.169 449.082 491.361 449.263 491.468 449.541C491.596 449.797 491.66 450.202 491.66 450.757C491.66 451.567 491.521 452.101 491.244 452.357C490.988 452.591 490.465 452.709 489.676 452.709C489.121 452.709 488.705 452.666 488.428 452.581C488.151 452.474 487.948 452.293 487.82 452.037C487.713 451.759 487.66 451.333 487.66 450.757ZM487.916 472.869V455.589H491.372V472.869H487.916ZM510.84 471.589C510.84 474.063 510.136 475.962 508.728 477.285C507.32 478.607 505.08 479.269 502.008 479.269C500.536 479.269 499.043 479.13 497.528 478.853V476.037C498.787 476.314 500.238 476.453 501.88 476.453C503.822 476.453 505.23 476.058 506.104 475.269C506.979 474.501 507.416 473.199 507.416 471.365V469.925C507.054 470.885 506.446 471.621 505.592 472.133C504.739 472.623 503.534 472.869 501.976 472.869C499.31 472.869 497.454 472.122 496.408 470.629C495.384 469.135 494.872 466.949 494.872 464.069C494.872 461.359 495.395 459.215 496.44 457.637C497.486 456.058 499.331 455.269 501.976 455.269C503.555 455.269 504.76 455.546 505.592 456.101C506.446 456.634 507.054 457.413 507.416 458.437V455.589H510.84V471.589ZM507.576 464.069C507.576 462.042 507.224 460.527 506.52 459.525C505.816 458.501 504.547 457.989 502.712 457.989C501.518 457.989 500.6 458.266 499.96 458.821C499.342 459.354 498.936 460.058 498.744 460.933C498.552 461.786 498.456 462.831 498.456 464.069C498.456 465.37 498.552 466.458 498.744 467.333C498.958 468.186 499.374 468.879 499.992 469.413C500.611 469.925 501.518 470.181 502.712 470.181C504.568 470.181 505.838 469.679 506.52 468.677C507.224 467.674 507.576 466.138 507.576 464.069ZM529.998 460.965V472.869H526.542V462.053C526.542 460.687 526.329 459.706 525.902 459.109C525.475 458.511 524.643 458.213 523.406 458.213C522.211 458.213 521.219 458.426 520.43 458.853C519.662 459.279 519.097 460.09 518.734 461.285V472.869H515.278V455.589H518.734V457.893C519.203 456.954 519.918 456.282 520.878 455.877C521.859 455.471 522.969 455.269 524.206 455.269C526.318 455.269 527.811 455.759 528.686 456.741C529.561 457.701 529.998 459.109 529.998 460.965ZM548.366 464.773L536.878 465.509C536.921 467.194 537.337 468.421 538.126 469.189C538.915 469.935 540.238 470.309 542.094 470.309C543.075 470.309 544.078 470.202 545.102 469.989C546.147 469.754 546.99 469.477 547.63 469.157V472.101C547.075 472.399 546.233 472.655 545.102 472.869C543.971 473.082 542.777 473.189 541.518 473.189C539.705 473.189 538.201 472.922 537.006 472.389C535.833 471.834 534.926 470.906 534.286 469.605C533.667 468.282 533.358 466.49 533.358 464.229C533.358 461.967 533.667 460.186 534.286 458.885C534.905 457.562 535.801 456.634 536.974 456.101C538.169 455.546 539.662 455.269 541.454 455.269C544.163 455.269 546.019 455.941 547.022 457.285C548.025 458.629 548.526 460.41 548.526 462.629C548.526 463.311 548.473 464.026 548.366 464.773ZM545.262 462.405C545.262 460.997 545.006 459.909 544.494 459.141C544.003 458.373 542.99 457.989 541.454 457.989C539.747 457.989 538.563 458.394 537.902 459.205C537.262 460.015 536.921 461.285 536.878 463.013L545.262 462.405ZM561.072 455.269L560.944 458.373H560.56C557.765 458.373 556.048 459.631 555.408 462.149V472.869H551.952V455.589H555.408V458.693C555.898 457.391 556.602 456.495 557.52 456.005C558.437 455.514 559.504 455.269 560.72 455.269H561.072Z" fill="white"/>
<rect x="226" y="552" width="488" height="73" rx="36.5" stroke="white" stroke-width="2"/>
<path d="M410.032 595.152V572.688H415.408V594.24C415.408 596.096 415.648 597.568 416.128 598.656C416.608 599.744 417.392 600.544 418.48 601.056C419.6 601.536 421.136 601.776 423.088 601.776C425.104 601.776 426.672 601.536 427.792 601.056C428.912 600.544 429.696 599.76 430.144 598.704C430.592 597.616 430.816 596.128 430.816 594.24V572.688H436.144V595.152C436.144 599.088 435.056 601.968 432.88 603.792C430.704 605.584 427.424 606.48 423.04 606.48C418.624 606.48 415.344 605.616 413.2 603.888C411.088 602.128 410.032 599.216 410.032 595.152ZM444.301 606V572.688H449.677V606H444.301ZM466.435 579.648C465.763 578.496 464.739 577.024 463.363 575.232C461.987 573.44 460.755 571.952 459.667 570.768L462.931 567.984C463.987 568.976 465.203 570.304 466.579 571.968C467.987 573.6 469.123 575.024 469.987 576.24L466.435 579.648ZM469.987 582.768C471.427 581.776 472.515 580.896 473.251 580.128C473.987 579.328 474.499 578.496 474.787 577.632C475.107 576.736 475.267 575.632 475.267 574.32V569.712H491.875V577.536C491.875 578.4 492.019 578.976 492.307 579.264C492.595 579.52 493.203 579.648 494.131 579.648H498.019L497.491 583.824H492.355C490.595 583.824 489.347 583.52 488.611 582.912C487.907 582.272 487.555 581.152 487.555 579.552V573.504H479.491V576.24C479.491 577.936 478.963 579.632 477.907 581.328C476.851 582.992 475.219 584.544 473.011 585.984L469.987 582.768ZM473.827 601.392C472.963 602.032 471.731 602.96 470.131 604.176C468.531 605.392 467.123 606.48 465.907 607.44C465.171 607.984 464.403 608.624 463.603 609.36L460.771 606.096C461.347 605.552 461.715 605.104 461.875 604.752C462.035 604.368 462.115 603.84 462.115 603.168V586.512H456.067V582.432H466.579V601.68L471.859 597.552L473.827 601.392ZM497.155 610.896C491.651 608.88 487.219 606.576 483.859 603.984C480.243 606.608 475.779 608.928 470.467 610.944L468.259 606.912C473.187 605.216 477.267 603.28 480.499 601.104C477.651 598.256 475.299 594.64 473.443 590.256H471.379V586.416H494.803V590.304C493.043 594.528 490.483 598.192 487.123 601.296C490.035 603.216 494.067 604.992 499.219 606.624L497.155 610.896ZM477.859 590.256C479.459 593.648 481.427 596.448 483.763 598.656C486.611 596.224 488.739 593.424 490.147 590.256H477.859ZM514.165 579.6C513.461 578.352 512.405 576.768 510.997 574.848C509.589 572.896 508.357 571.328 507.301 570.144L510.517 567.456C511.573 568.512 512.821 569.952 514.261 571.776C515.701 573.6 516.805 575.12 517.573 576.336L514.165 579.6ZM533.941 583.248H545.941V587.712H533.941V610.656H529.333V587.712H518.101V583.248H529.333V567.504L533.941 567.696V583.248ZM514.453 601.344L522.037 595.44L523.525 599.904C518.853 603.232 515.653 605.616 513.925 607.056C513.573 607.312 512.741 608.064 511.429 609.312L508.597 606C509.205 605.584 509.573 605.184 509.701 604.8C509.861 604.384 509.941 603.808 509.941 603.072V586.56H503.749V582.096H514.453V601.344ZM592.231 578.4H577.975V585.264H589.783V589.632H577.975V596.592H590.743V600.96H577.975V610.848H573.511V578.4H571.735C569.719 582.24 567.383 585.792 564.727 589.056L561.703 585.744C565.927 580.528 569.255 574.352 571.687 567.216L575.863 568.656C575.287 570.384 574.583 572.192 573.751 574.08H592.231V578.4ZM564.583 569.424C563.367 572.976 562.087 576.16 560.743 578.976V610.608H556.231V587.04C555.143 588.672 553.815 590.464 552.247 592.416L549.271 588.72C551.543 585.936 553.623 582.736 555.511 579.12C557.399 575.472 558.951 571.76 560.167 567.984L564.583 569.424ZM604.969 568.8H632.953V584.928H604.969V568.8ZM609.337 580.8H628.585V572.928H609.337V580.8ZM604.201 609.696H600.073V589.344H617.065V609.696H612.937V607.056H604.201V609.696ZM620.617 609.696V589.344H637.849V609.696H633.721V607.056H624.745V609.696H620.617ZM612.937 603.072V593.328H604.201V603.072H612.937ZM624.745 593.376V603.072H633.721V593.376H624.745ZM650.923 580.368C649.675 581.872 648.363 583.28 646.987 584.592L644.587 580.944C646.539 579.344 648.459 577.248 650.347 574.656C652.267 572.064 653.803 569.488 654.955 566.928L658.843 568.368C658.555 568.976 657.867 570.256 656.779 572.208H666.715C666.331 570.768 665.883 569.376 665.371 568.032L669.451 567.264C670.187 569.344 670.715 570.992 671.035 572.208H684.763V575.424H670.795V578.112H683.563V581.088H670.795V583.728H683.563V586.8H670.795V589.488H685.627V592.8H650.923V580.368ZM655.003 578.112H666.715V575.424H655.003V578.112ZM655.003 583.728H666.715V581.088H655.003V583.728ZM655.003 589.488H666.715V586.8H655.003V589.488ZM686.395 609.984C682.235 608.704 678.731 607.456 675.883 606.24C673.035 605.056 670.555 603.696 668.443 602.16V610.8H664.267V602.352C662.059 603.952 659.499 605.36 656.587 606.576C653.707 607.792 650.347 608.992 646.507 610.176L644.827 606.288C652.731 604.368 658.587 602.096 662.395 599.472H646.603V595.968H664.267V593.376L668.443 593.52V595.968H686.395V599.472H670.411C674.955 602.256 680.827 604.48 688.027 606.144L686.395 609.984Z" fill="white"/>
<rect x="225" y="551" width="160" height="75" rx="37.5" fill="white"/>
<path d="M266.5 582.528C266.5 580.736 265.972 579.472 264.916 578.736C263.892 577.968 262.42 577.584 260.5 577.584C258.164 577.584 255.684 577.968 253.06 578.736V573.312C255.46 572.576 258.324 572.208 261.652 572.208C265.332 572.208 268.164 572.992 270.148 574.56C272.164 576.128 273.172 578.496 273.172 581.664C273.172 583.616 272.836 585.36 272.164 586.896C271.524 588.432 270.356 590.096 268.66 591.888C266.964 593.68 264.452 595.904 261.124 598.56L259.012 600.24V600.624H274.036V606H250.996V600.048C255.124 596.752 258.276 594.08 260.452 592.032C262.66 589.952 264.212 588.192 265.108 586.752C266.036 585.312 266.5 583.904 266.5 582.528ZM278.784 589.344C278.784 584.928 279.264 581.472 280.224 578.976C281.184 576.448 282.528 574.688 284.256 573.696C286.016 572.704 288.176 572.208 290.736 572.208C293.328 572.208 295.488 572.704 297.216 573.696C298.944 574.688 300.288 576.448 301.248 578.976C302.208 581.472 302.688 584.928 302.688 589.344C302.688 593.76 302.208 597.232 301.248 599.76C300.288 602.256 298.944 604 297.216 604.992C295.488 605.984 293.328 606.48 290.736 606.48C288.144 606.48 285.984 605.984 284.256 604.992C282.528 604 281.184 602.256 280.224 599.76C279.264 597.232 278.784 593.76 278.784 589.344ZM290.736 600.912C292.112 600.912 293.184 600.592 293.952 599.952C294.752 599.28 295.328 598.112 295.68 596.448C296.064 594.784 296.256 592.416 296.256 589.344C296.256 586.272 296.064 583.904 295.68 582.24C295.328 580.576 294.752 579.424 293.952 578.784C293.184 578.112 292.112 577.776 290.736 577.776C289.392 577.776 288.336 578.112 287.568 578.784C286.8 579.424 286.224 580.576 285.84 582.24C285.488 583.904 285.312 586.272 285.312 589.344C285.312 592.448 285.488 594.832 285.84 596.496C286.192 598.128 286.752 599.28 287.52 599.952C288.32 600.592 289.392 600.912 290.736 600.912ZM322.844 582.528C322.844 580.736 322.316 579.472 321.26 578.736C320.236 577.968 318.764 577.584 316.844 577.584C314.508 577.584 312.028 577.968 309.404 578.736V573.312C311.804 572.576 314.668 572.208 317.996 572.208C321.676 572.208 324.508 572.992 326.492 574.56C328.508 576.128 329.516 578.496 329.516 581.664C329.516 583.616 329.18 585.36 328.508 586.896C327.868 588.432 326.7 590.096 325.004 591.888C323.308 593.68 320.796 595.904 317.468 598.56L315.356 600.24V600.624H330.38V606H307.34V600.048C311.468 596.752 314.62 594.08 316.796 592.032C319.004 589.952 320.556 588.192 321.452 586.752C322.38 585.312 322.844 583.904 322.844 582.528ZM335.32 593.184C335.32 586.528 336.872 581.376 339.976 577.728C343.112 574.048 347.928 572.208 354.424 572.208L354.376 577.776C350.664 577.808 347.752 578.608 345.64 580.176C343.56 581.712 342.344 583.84 341.992 586.56H342.136C342.904 585.92 343.88 585.408 345.064 585.024C346.248 584.64 347.464 584.448 348.712 584.448C351.976 584.448 354.472 585.36 356.2 587.184C357.96 588.976 358.84 591.616 358.84 595.104C358.84 598.624 357.864 601.408 355.912 603.456C353.992 605.472 351.08 606.48 347.176 606.48C339.272 606.48 335.32 602.048 335.32 593.184ZM346.984 601.344C348.872 601.344 350.312 600.816 351.304 599.76C352.328 598.704 352.84 597.168 352.84 595.152C352.84 593.232 352.36 591.776 351.4 590.784C350.44 589.792 349.112 589.296 347.416 589.296C343.48 589.296 341.512 591.12 341.512 594.768C341.512 596.912 341.96 598.544 342.856 599.664C343.784 600.784 345.16 601.344 346.984 601.344Z" fill="black"/>
<path d="M104.688 939.768V924.792H108.272V939.16C108.272 940.397 108.432 941.379 108.752 942.104C109.072 942.829 109.595 943.363 110.32 943.704C111.067 944.024 112.091 944.184 113.392 944.184C114.736 944.184 115.781 944.024 116.528 943.704C117.275 943.363 117.797 942.84 118.096 942.136C118.395 941.411 118.544 940.419 118.544 939.16V924.792H122.096V939.768C122.096 942.392 121.371 944.312 119.92 945.528C118.469 946.723 116.283 947.32 113.36 947.32C110.416 947.32 108.229 946.744 106.8 945.592C105.392 944.419 104.688 942.477 104.688 939.768ZM126.574 947V924.792H130.158V947H126.574ZM134.29 947.96L142.898 923.832H145.714L137.074 947.96H134.29ZM149.714 939.768V924.792H153.298V939.16C153.298 940.397 153.458 941.379 153.778 942.104C154.098 942.829 154.621 943.363 155.346 943.704C156.093 944.024 157.117 944.184 158.418 944.184C159.762 944.184 160.808 944.024 161.554 943.704C162.301 943.363 162.824 942.84 163.122 942.136C163.421 941.411 163.57 940.419 163.57 939.16V924.792H167.122V939.768C167.122 942.392 166.397 944.312 164.946 945.528C163.496 946.723 161.309 947.32 158.386 947.32C155.442 947.32 153.256 946.744 151.826 945.592C150.418 944.419 149.714 942.477 149.714 939.768ZM175.184 943.8H185.04V947H171.6V924.792H184.368V927.96H175.184V934.008H183.728V937.016H175.184V943.8Z" fill="white"/>
<path d="M106.672 961.896C107.472 961.896 108.197 961.971 108.848 962.12C109.509 962.259 110.075 962.531 110.544 962.936C111.013 963.341 111.376 963.907 111.632 964.632C111.899 965.357 112.032 966.296 112.032 967.448C112.032 968.525 111.899 969.421 111.632 970.136C111.376 970.84 111.013 971.405 110.544 971.832C110.075 972.259 109.509 972.563 108.848 972.744C108.197 972.915 107.472 973 106.672 973H103.472V961.896H106.672ZM106.64 971.736C107.216 971.736 107.744 971.672 108.224 971.544C108.704 971.405 109.115 971.176 109.456 970.856C109.808 970.525 110.075 970.083 110.256 969.528C110.448 968.973 110.544 968.28 110.544 967.448C110.544 966.563 110.443 965.843 110.24 965.288C110.048 964.723 109.776 964.285 109.424 963.976C109.083 963.656 108.672 963.437 108.192 963.32C107.723 963.203 107.205 963.144 106.64 963.144H104.912V971.736H106.64ZM122.676 971.704V973H116.1V961.896H122.276V963.176H117.54V966.616H121.956V967.832H117.54V971.704H122.676ZM129.166 973.16C128.825 973.16 128.483 973.144 128.142 973.112C127.811 973.091 127.497 973.059 127.198 973.016C126.91 972.973 126.649 972.931 126.414 972.888C126.19 972.835 126.009 972.781 125.87 972.728V971.4C126.03 971.464 126.233 971.528 126.478 971.592C126.723 971.645 126.99 971.699 127.278 971.752C127.566 971.795 127.87 971.832 128.19 971.864C128.51 971.885 128.835 971.896 129.166 971.896C129.998 971.896 130.627 971.757 131.054 971.48C131.481 971.203 131.694 970.717 131.694 970.024C131.694 969.683 131.657 969.4 131.582 969.176C131.518 968.941 131.39 968.744 131.198 968.584C131.006 968.424 130.745 968.285 130.414 968.168C130.083 968.051 129.657 967.928 129.134 967.8C128.569 967.661 128.089 967.517 127.694 967.368C127.299 967.219 126.979 967.032 126.734 966.808C126.489 966.573 126.307 966.291 126.19 965.96C126.083 965.629 126.03 965.219 126.03 964.728C126.03 963.715 126.329 962.963 126.926 962.472C127.534 961.971 128.467 961.72 129.726 961.72C129.993 961.72 130.259 961.731 130.526 961.752C130.803 961.773 131.065 961.805 131.31 961.848C131.566 961.88 131.795 961.923 131.998 961.976C132.211 962.019 132.382 962.067 132.51 962.12V963.432C132.19 963.315 131.774 963.213 131.262 963.128C130.75 963.032 130.243 962.984 129.742 962.984C129.358 962.984 129.022 963.011 128.734 963.064C128.446 963.107 128.206 963.192 128.014 963.32C127.822 963.448 127.678 963.624 127.582 963.848C127.497 964.072 127.454 964.365 127.454 964.728C127.454 964.984 127.475 965.208 127.518 965.4C127.571 965.581 127.678 965.741 127.838 965.88C127.998 966.019 128.227 966.147 128.526 966.264C128.825 966.371 129.225 966.483 129.726 966.6C130.345 966.749 130.867 966.909 131.294 967.08C131.731 967.24 132.083 967.448 132.35 967.704C132.617 967.96 132.809 968.275 132.926 968.648C133.043 969.011 133.102 969.464 133.102 970.008C133.102 971.096 132.766 971.896 132.094 972.408C131.433 972.909 130.457 973.16 129.166 973.16ZM136.933 961.896H138.373V973H136.933V961.896ZM147.643 973.16C146.833 973.16 146.107 973.08 145.467 972.92C144.827 972.76 144.283 972.472 143.835 972.056C143.387 971.629 143.041 971.048 142.795 970.312C142.561 969.565 142.443 968.611 142.443 967.448C142.443 966.381 142.566 965.485 142.811 964.76C143.057 964.024 143.409 963.432 143.867 962.984C144.326 962.536 144.886 962.216 145.547 962.024C146.219 961.832 146.971 961.736 147.803 961.736C148.059 961.736 148.321 961.747 148.587 961.768C148.865 961.789 149.131 961.821 149.387 961.864C149.643 961.896 149.883 961.939 150.107 961.992C150.342 962.045 150.539 962.104 150.699 962.168V963.448C150.326 963.299 149.899 963.187 149.419 963.112C148.95 963.037 148.433 963 147.867 963C147.249 963 146.694 963.064 146.203 963.192C145.723 963.32 145.313 963.549 144.971 963.88C144.641 964.211 144.385 964.664 144.203 965.24C144.033 965.816 143.947 966.552 143.947 967.448C143.947 968.397 144.027 969.165 144.187 969.752C144.358 970.328 144.609 970.776 144.939 971.096C145.27 971.416 145.67 971.635 146.139 971.752C146.619 971.859 147.174 971.912 147.803 971.912C148.059 971.912 148.358 971.896 148.699 971.864C149.051 971.832 149.355 971.779 149.611 971.704V968.264H147.387V967.048H150.987V972.696C150.582 972.824 150.097 972.931 149.531 973.016C148.977 973.112 148.347 973.16 147.643 973.16ZM155.156 961.896H157.412L162.468 971.112H162.564V961.896H164.004V973H162.1L156.66 963.224H156.564V973H155.156V961.896ZM174.969 971.704V973H168.393V961.896H174.569V963.176H169.833V966.616H174.249V967.832H169.833V971.704H174.969ZM181.924 961.896C182.724 961.896 183.449 961.971 184.1 962.12C184.761 962.259 185.327 962.531 185.796 962.936C186.265 963.341 186.628 963.907 186.884 964.632C187.151 965.357 187.284 966.296 187.284 967.448C187.284 968.525 187.151 969.421 186.884 970.136C186.628 970.84 186.265 971.405 185.796 971.832C185.327 972.259 184.761 972.563 184.1 972.744C183.449 972.915 182.724 973 181.924 973H178.724V961.896H181.924ZM181.892 971.736C182.468 971.736 182.996 971.672 183.476 971.544C183.956 971.405 184.367 971.176 184.708 970.856C185.06 970.525 185.327 970.083 185.508 969.528C185.7 968.973 185.796 968.28 185.796 967.448C185.796 966.563 185.695 965.843 185.492 965.288C185.3 964.723 185.028 964.285 184.676 963.976C184.335 963.656 183.924 963.437 183.444 963.32C182.975 963.203 182.457 963.144 181.892 963.144H180.164V971.736H181.892Z" fill="white" fill-opacity="0.64"/>
<rect x="197" y="924" width="2" height="46" fill="white"/>
<path d="M212.84 926.12C213.84 926.12 214.747 926.213 215.56 926.4C216.387 926.573 217.093 926.913 217.68 927.42C218.267 927.927 218.72 928.633 219.04 929.54C219.373 930.447 219.54 931.62 219.54 933.06C219.54 934.407 219.373 935.527 219.04 936.42C218.72 937.3 218.267 938.007 217.68 938.54C217.093 939.073 216.387 939.453 215.56 939.68C214.747 939.893 213.84 940 212.84 940H208.84V926.12H212.84ZM212.8 938.42C213.52 938.42 214.18 938.34 214.78 938.18C215.38 938.007 215.893 937.72 216.32 937.32C216.76 936.907 217.093 936.353 217.32 935.66C217.56 934.967 217.68 934.1 217.68 933.06C217.68 931.953 217.553 931.053 217.3 930.36C217.06 929.653 216.72 929.107 216.28 928.72C215.853 928.32 215.34 928.047 214.74 927.9C214.153 927.753 213.507 927.68 212.8 927.68H210.64V938.42H212.8ZM231.044 938.38V940H222.824V926.12H230.544V927.72H224.624V932.02H230.144V933.54H224.624V938.38H231.044ZM237.358 940.2C236.931 940.2 236.504 940.18 236.078 940.14C235.664 940.113 235.271 940.073 234.898 940.02C234.538 939.967 234.211 939.913 233.918 939.86C233.638 939.793 233.411 939.727 233.238 939.66V938C233.438 938.08 233.691 938.16 233.998 938.24C234.304 938.307 234.638 938.373 234.998 938.44C235.358 938.493 235.738 938.54 236.138 938.58C236.538 938.607 236.944 938.62 237.358 938.62C238.398 938.62 239.184 938.447 239.718 938.1C240.251 937.753 240.518 937.147 240.518 936.28C240.518 935.853 240.471 935.5 240.378 935.22C240.298 934.927 240.138 934.68 239.898 934.48C239.658 934.28 239.331 934.107 238.918 933.96C238.504 933.813 237.971 933.66 237.318 933.5C236.611 933.327 236.011 933.147 235.518 932.96C235.024 932.773 234.624 932.54 234.318 932.26C234.011 931.967 233.784 931.613 233.638 931.2C233.504 930.787 233.438 930.273 233.438 929.66C233.438 928.393 233.811 927.453 234.558 926.84C235.318 926.213 236.484 925.9 238.058 925.9C238.391 925.9 238.724 925.913 239.058 925.94C239.404 925.967 239.731 926.007 240.038 926.06C240.358 926.1 240.644 926.153 240.898 926.22C241.164 926.273 241.378 926.333 241.538 926.4V928.04C241.138 927.893 240.618 927.767 239.978 927.66C239.338 927.54 238.704 927.48 238.078 927.48C237.598 927.48 237.178 927.513 236.818 927.58C236.458 927.633 236.158 927.74 235.918 927.9C235.678 928.06 235.498 928.28 235.378 928.56C235.271 928.84 235.218 929.207 235.218 929.66C235.218 929.98 235.244 930.26 235.298 930.5C235.364 930.727 235.498 930.927 235.698 931.1C235.898 931.273 236.184 931.433 236.558 931.58C236.931 931.713 237.431 931.853 238.058 932C238.831 932.187 239.484 932.387 240.018 932.6C240.564 932.8 241.004 933.06 241.338 933.38C241.671 933.7 241.911 934.093 242.058 934.56C242.204 935.013 242.278 935.58 242.278 936.26C242.278 937.62 241.858 938.62 241.018 939.26C240.191 939.887 238.971 940.2 237.358 940.2ZM245.266 926.12H247.066V940H245.266V926.12ZM256.854 940.2C255.841 940.2 254.934 940.1 254.134 939.9C253.334 939.7 252.654 939.34 252.094 938.82C251.534 938.287 251.101 937.56 250.794 936.64C250.501 935.707 250.354 934.513 250.354 933.06C250.354 931.727 250.507 930.607 250.814 929.7C251.121 928.78 251.561 928.04 252.134 927.48C252.707 926.92 253.407 926.52 254.234 926.28C255.074 926.04 256.014 925.92 257.054 925.92C257.374 925.92 257.701 925.933 258.034 925.96C258.381 925.987 258.714 926.027 259.034 926.08C259.354 926.12 259.654 926.173 259.934 926.24C260.227 926.307 260.474 926.38 260.674 926.46V928.06C260.207 927.873 259.674 927.733 259.074 927.64C258.487 927.547 257.841 927.5 257.134 927.5C256.361 927.5 255.667 927.58 255.054 927.74C254.454 927.9 253.941 928.187 253.514 928.6C253.101 929.013 252.781 929.58 252.554 930.3C252.341 931.02 252.234 931.94 252.234 933.06C252.234 934.247 252.334 935.207 252.534 935.94C252.747 936.66 253.061 937.22 253.474 937.62C253.887 938.02 254.387 938.293 254.974 938.44C255.574 938.573 256.267 938.64 257.054 938.64C257.374 938.64 257.747 938.62 258.174 938.58C258.614 938.54 258.994 938.473 259.314 938.38V934.08H256.534V932.56H261.034V939.62C260.527 939.78 259.921 939.913 259.214 940.02C258.521 940.14 257.734 940.2 256.854 940.2ZM264.445 926.12H267.265L273.585 937.64H273.705V926.12H275.505V940H273.125L266.325 927.78H266.205V940H264.445V926.12ZM287.412 938.38V940H279.192V926.12H286.912V927.72H280.992V932.02H286.512V933.54H280.992V938.38H287.412ZM294.305 926.12C295.305 926.12 296.212 926.213 297.025 926.4C297.852 926.573 298.558 926.913 299.145 927.42C299.732 927.927 300.185 928.633 300.505 929.54C300.838 930.447 301.005 931.62 301.005 933.06C301.005 934.407 300.838 935.527 300.505 936.42C300.185 937.3 299.732 938.007 299.145 938.54C298.558 939.073 297.852 939.453 297.025 939.68C296.212 939.893 295.305 940 294.305 940H290.305V926.12H294.305ZM294.265 938.42C294.985 938.42 295.645 938.34 296.245 938.18C296.845 938.007 297.358 937.72 297.785 937.32C298.225 936.907 298.558 936.353 298.785 935.66C299.025 934.967 299.145 934.1 299.145 933.06C299.145 931.953 299.018 931.053 298.765 930.36C298.525 929.653 298.185 929.107 297.745 928.72C297.318 928.32 296.805 928.047 296.205 927.9C295.618 927.753 294.972 927.68 294.265 927.68H292.105V938.42H294.265ZM309.426 926.12H313.426C314.333 926.12 315.086 926.193 315.686 926.34C316.286 926.487 316.759 926.713 317.106 927.02C317.466 927.327 317.719 927.713 317.866 928.18C318.013 928.633 318.086 929.173 318.086 929.8C318.086 930.52 317.933 931.133 317.626 931.64C317.319 932.147 316.799 932.513 316.066 932.74V932.82C316.533 932.913 316.926 933.06 317.246 933.26C317.566 933.447 317.819 933.68 318.006 933.96C318.206 934.24 318.346 934.553 318.426 934.9C318.506 935.247 318.546 935.627 318.546 936.04C318.546 936.667 318.473 937.227 318.326 937.72C318.179 938.213 317.926 938.633 317.566 938.98C317.206 939.313 316.719 939.567 316.106 939.74C315.506 939.913 314.746 940 313.826 940H309.426V926.12ZM312.586 932.2C313.253 932.2 313.819 932.167 314.286 932.1C314.766 932.033 315.153 931.913 315.446 931.74C315.753 931.567 315.973 931.333 316.106 931.04C316.253 930.733 316.326 930.353 316.326 929.9C316.326 929.393 316.253 928.993 316.106 928.7C315.973 928.393 315.753 928.167 315.446 928.02C315.153 927.86 314.766 927.76 314.286 927.72C313.819 927.667 313.253 927.64 312.586 927.64H311.226V932.2H312.586ZM313.086 938.46C313.793 938.46 314.379 938.427 314.846 938.36C315.326 938.293 315.706 938.173 315.986 938C316.266 937.813 316.459 937.56 316.566 937.24C316.686 936.92 316.746 936.513 316.746 936.02C316.746 935.593 316.686 935.233 316.566 934.94C316.446 934.633 316.246 934.387 315.966 934.2C315.686 934 315.313 933.853 314.846 933.76C314.379 933.667 313.793 933.62 313.086 933.62H311.226V938.46H313.086ZM324.579 934.04L319.679 926.12H321.759L325.499 932.4H325.619L329.339 926.12H331.319L326.379 934.02V940H324.579V934.04ZM341.59 932.94L337.41 926.12H339.51L342.81 931.82H342.93L346.45 926.12H348.41L344.07 932.82L348.57 940H346.47L342.91 934.04H342.79L339.05 940H337.03L341.59 932.94ZM354.071 932.94L349.891 926.12H351.991L355.291 931.82H355.411L358.931 926.12H360.891L356.551 932.82L361.051 940H358.951L355.391 934.04H355.271L351.531 940H349.511L354.071 932.94ZM373.851 926.12V940H372.031V933.28H365.171V940H363.371V926.12H365.171V931.78H372.031V926.12H373.851ZM210.64 955.72V960.22H216.16V961.82H210.64V968H208.84V954.12H216.56V955.72H210.64ZM227.407 968L223.587 962.4C223.48 962.413 223.367 962.42 223.247 962.42C223.14 962.42 223.027 962.42 222.907 962.42H221.187V968H219.387V954.12H222.907C223.88 954.12 224.7 954.193 225.367 954.34C226.047 954.473 226.594 954.7 227.007 955.02C227.434 955.34 227.74 955.767 227.927 956.3C228.114 956.82 228.207 957.46 228.207 958.22C228.207 959.42 227.974 960.333 227.507 960.96C227.04 961.573 226.327 961.987 225.367 962.2L229.527 968H227.407ZM222.747 960.92C223.387 960.92 223.934 960.893 224.387 960.84C224.854 960.773 225.234 960.647 225.527 960.46C225.82 960.273 226.034 960 226.167 959.64C226.314 959.28 226.387 958.807 226.387 958.22C226.387 957.7 226.314 957.273 226.167 956.94C226.034 956.607 225.82 956.347 225.527 956.16C225.234 955.973 224.854 955.847 224.387 955.78C223.934 955.713 223.387 955.68 222.747 955.68H221.187V960.92H222.747ZM236.959 968.2C235.972 968.2 235.106 968.093 234.359 967.88C233.626 967.653 233.006 967.273 232.499 966.74C231.992 966.193 231.612 965.46 231.359 964.54C231.106 963.62 230.979 962.46 230.979 961.06C230.979 959.66 231.106 958.507 231.359 957.6C231.612 956.68 231.992 955.947 232.499 955.4C233.006 954.853 233.626 954.473 234.359 954.26C235.106 954.033 235.972 953.92 236.959 953.92C237.946 953.92 238.812 954.033 239.559 954.26C240.306 954.473 240.926 954.853 241.419 955.4C241.926 955.947 242.306 956.68 242.559 957.6C242.812 958.507 242.939 959.66 242.939 961.06C242.939 962.46 242.812 963.62 242.559 964.54C242.306 965.46 241.926 966.193 241.419 966.74C240.926 967.273 240.306 967.653 239.559 967.88C238.812 968.093 237.946 968.2 236.959 968.2ZM236.959 966.66C237.812 966.66 238.506 966.553 239.039 966.34C239.572 966.127 239.986 965.793 240.279 965.34C240.586 964.887 240.792 964.307 240.899 963.6C241.019 962.893 241.079 962.047 241.079 961.06C241.079 960.1 241.019 959.267 240.899 958.56C240.792 957.853 240.586 957.273 240.279 956.82C239.986 956.353 239.572 956.007 239.039 955.78C238.506 955.553 237.812 955.44 236.959 955.44C236.119 955.44 235.432 955.553 234.899 955.78C234.366 956.007 233.946 956.353 233.639 956.82C233.346 957.273 233.139 957.853 233.019 958.56C232.912 959.267 232.859 960.1 232.859 961.06C232.859 962.047 232.912 962.893 233.019 963.6C233.139 964.307 233.346 964.887 233.639 965.34C233.946 965.793 234.366 966.127 234.899 966.34C235.432 966.553 236.119 966.66 236.959 966.66ZM246.242 954.12H249.122L252.662 963.06H252.782L256.322 954.12H259.162V968H257.362V955.94H257.242L253.682 964.86H251.722L248.122 955.94H248.002V968H246.242V954.12ZM267.281 966.1C268.761 964.94 269.947 963.953 270.841 963.14C271.734 962.327 272.427 961.613 272.921 961C273.414 960.387 273.741 959.84 273.901 959.36C274.061 958.867 274.141 958.373 274.141 957.88C274.141 957.387 274.047 956.98 273.861 956.66C273.687 956.34 273.461 956.087 273.181 955.9C272.901 955.713 272.581 955.587 272.221 955.52C271.874 955.453 271.534 955.42 271.201 955.42C270.761 955.42 270.294 955.447 269.801 955.5C269.307 955.54 268.787 955.633 268.241 955.78V954.24C268.707 954.133 269.201 954.053 269.721 954C270.254 953.947 270.814 953.92 271.401 953.92C272.081 953.92 272.694 953.993 273.241 954.14C273.787 954.287 274.254 954.52 274.641 954.84C275.041 955.16 275.341 955.573 275.541 956.08C275.754 956.587 275.861 957.193 275.861 957.9C275.861 958.527 275.767 959.12 275.581 959.68C275.394 960.227 275.081 960.8 274.641 961.4C274.201 961.987 273.607 962.627 272.861 963.32C272.114 964 271.181 964.787 270.061 965.68L269.261 966.3V966.48H276.421V968H267.281V966.1ZM283.385 968.2C282.691 968.2 282.058 968.1 281.485 967.9C280.911 967.687 280.418 967.313 280.005 966.78C279.591 966.247 279.271 965.52 279.045 964.6C278.818 963.667 278.705 962.487 278.705 961.06C278.705 959.633 278.818 958.46 279.045 957.54C279.271 956.62 279.591 955.893 280.005 955.36C280.418 954.813 280.911 954.44 281.485 954.24C282.058 954.027 282.691 953.92 283.385 953.92C284.078 953.92 284.711 954.027 285.285 954.24C285.871 954.44 286.371 954.813 286.785 955.36C287.198 955.893 287.518 956.62 287.745 957.54C287.971 958.46 288.085 959.633 288.085 961.06C288.085 962.487 287.971 963.667 287.745 964.6C287.518 965.52 287.198 966.247 286.785 966.78C286.371 967.313 285.871 967.687 285.285 967.9C284.711 968.1 284.078 968.2 283.385 968.2ZM283.385 966.7C283.878 966.7 284.305 966.62 284.665 966.46C285.025 966.287 285.325 965.987 285.565 965.56C285.805 965.133 285.978 964.56 286.085 963.84C286.205 963.107 286.265 962.18 286.265 961.06C286.265 959.953 286.205 959.04 286.085 958.32C285.978 957.587 285.805 957.007 285.565 956.58C285.325 956.153 285.025 955.86 284.665 955.7C284.305 955.527 283.878 955.44 283.385 955.44C282.905 955.44 282.485 955.527 282.125 955.7C281.765 955.86 281.465 956.153 281.225 956.58C280.998 957.007 280.825 957.587 280.705 958.32C280.598 959.04 280.545 959.953 280.545 961.06C280.545 962.18 280.598 963.107 280.705 963.84C280.825 964.56 280.998 965.133 281.225 965.56C281.465 965.987 281.765 966.287 282.125 966.46C282.485 966.62 282.905 966.7 283.385 966.7ZM290.288 966.1C291.768 964.94 292.955 963.953 293.848 963.14C294.742 962.327 295.435 961.613 295.928 961C296.422 960.387 296.748 959.84 296.908 959.36C297.068 958.867 297.148 958.373 297.148 957.88C297.148 957.387 297.055 956.98 296.868 956.66C296.695 956.34 296.468 956.087 296.188 955.9C295.908 955.713 295.588 955.587 295.228 955.52C294.882 955.453 294.542 955.42 294.208 955.42C293.768 955.42 293.302 955.447 292.808 955.5C292.315 955.54 291.795 955.633 291.248 955.78V954.24C291.715 954.133 292.208 954.053 292.728 954C293.262 953.947 293.822 953.92 294.408 953.92C295.088 953.92 295.702 953.993 296.248 954.14C296.795 954.287 297.262 954.52 297.648 954.84C298.048 955.16 298.348 955.573 298.548 956.08C298.762 956.587 298.868 957.193 298.868 957.9C298.868 958.527 298.775 959.12 298.588 959.68C298.402 960.227 298.088 960.8 297.648 961.4C297.208 961.987 296.615 962.627 295.868 963.32C295.122 964 294.188 964.787 293.068 965.68L292.268 966.3V966.48H299.428V968H290.288V966.1ZM306.392 968.2C305.699 968.2 305.066 968.1 304.492 967.9C303.919 967.687 303.426 967.313 303.012 966.78C302.599 966.247 302.279 965.52 302.052 964.6C301.826 963.667 301.712 962.487 301.712 961.06C301.712 959.633 301.826 958.46 302.052 957.54C302.279 956.62 302.599 955.893 303.012 955.36C303.426 954.813 303.919 954.44 304.492 954.24C305.066 954.027 305.699 953.92 306.392 953.92C307.086 953.92 307.719 954.027 308.292 954.24C308.879 954.44 309.379 954.813 309.792 955.36C310.206 955.893 310.526 956.62 310.752 957.54C310.979 958.46 311.092 959.633 311.092 961.06C311.092 962.487 310.979 963.667 310.752 964.6C310.526 965.52 310.206 966.247 309.792 966.78C309.379 967.313 308.879 967.687 308.292 967.9C307.719 968.1 307.086 968.2 306.392 968.2ZM306.392 966.7C306.886 966.7 307.312 966.62 307.672 966.46C308.032 966.287 308.332 965.987 308.572 965.56C308.812 965.133 308.986 964.56 309.092 963.84C309.212 963.107 309.272 962.18 309.272 961.06C309.272 959.953 309.212 959.04 309.092 958.32C308.986 957.587 308.812 957.007 308.572 956.58C308.332 956.153 308.032 955.86 307.672 955.7C307.312 955.527 306.886 955.44 306.392 955.44C305.912 955.44 305.492 955.527 305.132 955.7C304.772 955.86 304.472 956.153 304.232 956.58C304.006 957.007 303.832 957.587 303.712 958.32C303.606 959.04 303.552 959.953 303.552 961.06C303.552 962.18 303.606 963.107 303.712 963.84C303.832 964.56 304.006 965.133 304.232 965.56C304.472 965.987 304.772 966.287 305.132 966.46C305.492 966.62 305.912 966.7 306.392 966.7ZM327.513 955.72H323.473V968H321.673V955.72H317.613V954.12H327.513V955.72ZM334.889 968.2C333.902 968.2 333.035 968.093 332.289 967.88C331.555 967.653 330.935 967.273 330.429 966.74C329.922 966.193 329.542 965.46 329.289 964.54C329.035 963.62 328.909 962.46 328.909 961.06C328.909 959.66 329.035 958.507 329.289 957.6C329.542 956.68 329.922 955.947 330.429 955.4C330.935 954.853 331.555 954.473 332.289 954.26C333.035 954.033 333.902 953.92 334.889 953.92C335.875 953.92 336.742 954.033 337.489 954.26C338.235 954.473 338.855 954.853 339.349 955.4C339.855 955.947 340.235 956.68 340.489 957.6C340.742 958.507 340.869 959.66 340.869 961.06C340.869 962.46 340.742 963.62 340.489 964.54C340.235 965.46 339.855 966.193 339.349 966.74C338.855 967.273 338.235 967.653 337.489 967.88C336.742 968.093 335.875 968.2 334.889 968.2ZM334.889 966.66C335.742 966.66 336.435 966.553 336.969 966.34C337.502 966.127 337.915 965.793 338.209 965.34C338.515 964.887 338.722 964.307 338.829 963.6C338.949 962.893 339.009 962.047 339.009 961.06C339.009 960.1 338.949 959.267 338.829 958.56C338.722 957.853 338.515 957.273 338.209 956.82C337.915 956.353 337.502 956.007 336.969 955.78C336.435 955.553 335.742 955.44 334.889 955.44C334.049 955.44 333.362 955.553 332.829 955.78C332.295 956.007 331.875 956.353 331.569 956.82C331.275 957.273 331.069 957.853 330.949 958.56C330.842 959.267 330.789 960.1 330.789 961.06C330.789 962.047 330.842 962.893 330.949 963.6C331.069 964.307 331.275 964.887 331.569 965.34C331.875 965.793 332.295 966.127 332.829 966.34C333.362 966.553 334.049 966.66 334.889 966.66ZM348.609 966.1C350.089 964.94 351.275 963.953 352.169 963.14C353.062 962.327 353.755 961.613 354.249 961C354.742 960.387 355.069 959.84 355.229 959.36C355.389 958.867 355.469 958.373 355.469 957.88C355.469 957.387 355.375 956.98 355.189 956.66C355.015 956.34 354.789 956.087 354.509 955.9C354.229 955.713 353.909 955.587 353.549 955.52C353.202 955.453 352.862 955.42 352.529 955.42C352.089 955.42 351.622 955.447 351.129 955.5C350.635 955.54 350.115 955.633 349.569 955.78V954.24C350.035 954.133 350.529 954.053 351.049 954C351.582 953.947 352.142 953.92 352.729 953.92C353.409 953.92 354.022 953.993 354.569 954.14C355.115 954.287 355.582 954.52 355.969 954.84C356.369 955.16 356.669 955.573 356.869 956.08C357.082 956.587 357.189 957.193 357.189 957.9C357.189 958.527 357.095 959.12 356.909 959.68C356.722 960.227 356.409 960.8 355.969 961.4C355.529 961.987 354.935 962.627 354.189 963.32C353.442 964 352.509 964.787 351.389 965.68L350.589 966.3V966.48H357.749V968H348.609V966.1ZM364.713 968.2C364.019 968.2 363.386 968.1 362.813 967.9C362.239 967.687 361.746 967.313 361.333 966.78C360.919 966.247 360.599 965.52 360.373 964.6C360.146 963.667 360.033 962.487 360.033 961.06C360.033 959.633 360.146 958.46 360.373 957.54C360.599 956.62 360.919 955.893 361.333 955.36C361.746 954.813 362.239 954.44 362.813 954.24C363.386 954.027 364.019 953.92 364.713 953.92C365.406 953.92 366.039 954.027 366.613 954.24C367.199 954.44 367.699 954.813 368.113 955.36C368.526 955.893 368.846 956.62 369.073 957.54C369.299 958.46 369.413 959.633 369.413 961.06C369.413 962.487 369.299 963.667 369.073 964.6C368.846 965.52 368.526 966.247 368.113 966.78C367.699 967.313 367.199 967.687 366.613 967.9C366.039 968.1 365.406 968.2 364.713 968.2ZM364.713 966.7C365.206 966.7 365.633 966.62 365.993 966.46C366.353 966.287 366.653 965.987 366.893 965.56C367.133 965.133 367.306 964.56 367.413 963.84C367.533 963.107 367.593 962.18 367.593 961.06C367.593 959.953 367.533 959.04 367.413 958.32C367.306 957.587 367.133 957.007 366.893 956.58C366.653 956.153 366.353 955.86 365.993 955.7C365.633 955.527 365.206 955.44 364.713 955.44C364.233 955.44 363.813 955.527 363.453 955.7C363.093 955.86 362.793 956.153 362.553 956.58C362.326 957.007 362.153 957.587 362.033 958.32C361.926 959.04 361.873 959.953 361.873 961.06C361.873 962.18 361.926 963.107 362.033 963.84C362.153 964.56 362.326 965.133 362.553 965.56C362.793 965.987 363.093 966.287 363.453 966.46C363.813 966.62 364.233 966.7 364.713 966.7ZM371.617 966.1C373.097 964.94 374.283 963.953 375.177 963.14C376.07 962.327 376.763 961.613 377.257 961C377.75 960.387 378.077 959.84 378.237 959.36C378.397 958.867 378.477 958.373 378.477 957.88C378.477 957.387 378.383 956.98 378.197 956.66C378.023 956.34 377.797 956.087 377.517 955.9C377.237 955.713 376.917 955.587 376.557 955.52C376.21 955.453 375.87 955.42 375.537 955.42C375.097 955.42 374.63 955.447 374.137 955.5C373.643 955.54 373.123 955.633 372.577 955.78V954.24C373.043 954.133 373.537 954.053 374.057 954C374.59 953.947 375.15 953.92 375.737 953.92C376.417 953.92 377.03 953.993 377.577 954.14C378.123 954.287 378.59 954.52 378.977 954.84C379.377 955.16 379.677 955.573 379.877 956.08C380.09 956.587 380.197 957.193 380.197 957.9C380.197 958.527 380.103 959.12 379.917 959.68C379.73 960.227 379.417 960.8 378.977 961.4C378.537 961.987 377.943 962.627 377.197 963.32C376.45 964 375.517 964.787 374.397 965.68L373.597 966.3V966.48H380.757V968H371.617V966.1ZM387.72 968.2C387.08 968.2 386.48 968.113 385.92 967.94C385.374 967.753 384.887 967.447 384.46 967.02C384.047 966.593 383.72 966.027 383.48 965.32C383.24 964.6 383.12 963.7 383.12 962.62C383.12 961.327 383.26 960.147 383.54 959.08C383.834 958.013 384.28 957.1 384.88 956.34C385.48 955.567 386.247 954.973 387.18 954.56C388.127 954.133 389.254 953.92 390.56 953.92L390.54 955.44C389.687 955.44 388.927 955.56 388.26 955.8C387.594 956.04 387.027 956.373 386.56 956.8C386.094 957.213 385.727 957.707 385.46 958.28C385.194 958.84 385.034 959.447 384.98 960.1H385.04C385.307 959.833 385.7 959.58 386.22 959.34C386.74 959.087 387.34 958.96 388.02 958.96C389.314 958.96 390.34 959.327 391.1 960.06C391.86 960.793 392.24 961.92 392.24 963.44C392.24 964.12 392.147 964.753 391.96 965.34C391.787 965.913 391.514 966.413 391.14 966.84C390.78 967.267 390.314 967.6 389.74 967.84C389.167 968.08 388.494 968.2 387.72 968.2ZM387.7 966.7C388.647 966.7 389.367 966.433 389.86 965.9C390.354 965.353 390.6 964.533 390.6 963.44C390.6 962.4 390.354 961.627 389.86 961.12C389.367 960.6 388.727 960.34 387.94 960.34C386.86 960.34 386.074 960.6 385.58 961.12C385.087 961.627 384.84 962.293 384.84 963.12C384.84 965.507 385.794 966.7 387.7 966.7Z" fill="white" fill-opacity="0.64"/>
<path d="M1596 127.2C1594.25 127.2 1592.95 126.847 1592.08 126.14C1591.21 125.42 1590.78 124.213 1590.78 122.52V113.12H1592.56V122.12C1592.56 122.787 1592.62 123.347 1592.74 123.8C1592.86 124.24 1593.05 124.593 1593.32 124.86C1593.6 125.127 1593.96 125.32 1594.4 125.44C1594.84 125.56 1595.38 125.62 1596.02 125.62C1596.69 125.62 1597.24 125.56 1597.68 125.44C1598.13 125.32 1598.49 125.127 1598.76 124.86C1599.03 124.593 1599.21 124.24 1599.32 123.8C1599.43 123.347 1599.48 122.787 1599.48 122.12V113.12H1601.26V122.52C1601.26 124.16 1600.82 125.353 1599.94 126.1C1599.06 126.833 1597.75 127.2 1596 127.2ZM1604.86 113.12H1606.66V127H1604.86V113.12ZM1615.43 112.52H1616.97L1611.59 127.6H1610.05L1615.43 112.52ZM1625.51 127.2C1623.77 127.2 1622.46 126.847 1621.59 126.14C1620.73 125.42 1620.29 124.213 1620.29 122.52V113.12H1622.07V122.12C1622.07 122.787 1622.13 123.347 1622.25 123.8C1622.37 124.24 1622.57 124.593 1622.83 124.86C1623.11 125.127 1623.47 125.32 1623.91 125.44C1624.35 125.56 1624.89 125.62 1625.53 125.62C1626.2 125.62 1626.75 125.56 1627.19 125.44C1627.65 125.32 1628.01 125.127 1628.27 124.86C1628.54 124.593 1628.73 124.24 1628.83 123.8C1628.94 123.347 1628.99 122.787 1628.99 122.12V113.12H1630.77V122.52C1630.77 124.16 1630.33 125.353 1629.45 126.1C1628.57 126.833 1627.26 127.2 1625.51 127.2ZM1637.18 119.94L1633 113.12H1635.1L1638.4 118.82H1638.52L1642.04 113.12H1644L1639.66 119.82L1644.16 127H1642.06L1638.5 121.04H1638.38L1634.64 127H1632.62L1637.18 119.94ZM1655.62 113.12C1656.62 113.12 1657.53 113.213 1658.34 113.4C1659.17 113.573 1659.87 113.913 1660.46 114.42C1661.05 114.927 1661.5 115.633 1661.82 116.54C1662.15 117.447 1662.32 118.62 1662.32 120.06C1662.32 121.407 1662.15 122.527 1661.82 123.42C1661.5 124.3 1661.05 125.007 1660.46 125.54C1659.87 126.073 1659.17 126.453 1658.34 126.68C1657.53 126.893 1656.62 127 1655.62 127H1651.62V113.12H1655.62ZM1655.58 125.42C1656.3 125.42 1656.96 125.34 1657.56 125.18C1658.16 125.007 1658.67 124.72 1659.1 124.32C1659.54 123.907 1659.87 123.353 1660.1 122.66C1660.34 121.967 1660.46 121.1 1660.46 120.06C1660.46 118.953 1660.33 118.053 1660.08 117.36C1659.84 116.653 1659.5 116.107 1659.06 115.72C1658.63 115.32 1658.12 115.047 1657.52 114.9C1656.93 114.753 1656.29 114.68 1655.58 114.68H1653.42V125.42H1655.58ZM1674.17 120.52C1674.17 120.667 1674.15 120.853 1674.13 121.08C1674.11 121.293 1674.09 121.527 1674.07 121.78L1666.75 122.24C1666.75 122.827 1666.81 123.34 1666.93 123.78C1667.05 124.207 1667.24 124.56 1667.51 124.84C1667.77 125.12 1668.13 125.333 1668.57 125.48C1669.01 125.613 1669.55 125.68 1670.21 125.68C1670.81 125.68 1671.41 125.613 1672.03 125.48C1672.65 125.347 1673.17 125.18 1673.59 124.98V126.56C1673.43 126.64 1673.22 126.72 1672.97 126.8C1672.71 126.88 1672.43 126.947 1672.11 127C1671.79 127.067 1671.44 127.113 1671.07 127.14C1670.71 127.18 1670.33 127.2 1669.95 127.2C1669.15 127.2 1668.43 127.113 1667.81 126.94C1667.19 126.753 1666.67 126.447 1666.25 126.02C1665.82 125.58 1665.49 125.007 1665.27 124.3C1665.05 123.58 1664.95 122.68 1664.95 121.6C1664.95 120.52 1665.05 119.627 1665.27 118.92C1665.49 118.2 1665.81 117.627 1666.23 117.2C1666.65 116.76 1667.17 116.453 1667.77 116.28C1668.38 116.093 1669.07 116 1669.85 116C1670.77 116 1671.51 116.14 1672.07 116.42C1672.64 116.687 1673.08 117.04 1673.39 117.48C1673.69 117.907 1673.9 118.393 1674.01 118.94C1674.11 119.473 1674.17 120 1674.17 120.52ZM1672.47 120.54C1672.47 120.127 1672.44 119.733 1672.39 119.36C1672.33 118.973 1672.21 118.64 1672.03 118.36C1671.85 118.067 1671.59 117.84 1671.25 117.68C1670.9 117.507 1670.43 117.42 1669.85 117.42C1669.22 117.42 1668.71 117.5 1668.31 117.66C1667.92 117.82 1667.61 118.053 1667.39 118.36C1667.16 118.667 1667 119.04 1666.91 119.48C1666.81 119.92 1666.76 120.413 1666.75 120.96L1672.47 120.54ZM1679.65 127.12C1679.38 127.12 1679.09 127.107 1678.79 127.08C1678.49 127.067 1678.2 127.047 1677.91 127.02C1677.61 126.993 1677.34 126.96 1677.09 126.92C1676.85 126.867 1676.65 126.82 1676.51 126.78V125.3C1676.69 125.353 1676.91 125.407 1677.17 125.46C1677.43 125.513 1677.71 125.56 1677.99 125.6C1678.27 125.64 1678.55 125.673 1678.83 125.7C1679.12 125.713 1679.39 125.72 1679.63 125.72C1680.45 125.72 1681.07 125.607 1681.49 125.38C1681.91 125.14 1682.13 124.7 1682.13 124.06C1682.13 123.74 1682.09 123.48 1682.03 123.28C1681.97 123.067 1681.86 122.893 1681.69 122.76C1681.51 122.613 1681.27 122.487 1680.95 122.38C1680.64 122.273 1680.23 122.16 1679.71 122.04C1679.11 121.907 1678.61 121.753 1678.23 121.58C1677.84 121.407 1677.53 121.2 1677.31 120.96C1677.08 120.72 1676.92 120.433 1676.83 120.1C1676.73 119.767 1676.69 119.373 1676.69 118.92C1676.69 118.04 1677.01 117.333 1677.65 116.8C1678.3 116.267 1679.27 116 1680.57 116C1681.09 116 1681.6 116.033 1682.11 116.1C1682.63 116.167 1683.02 116.253 1683.29 116.36L1683.17 117.82C1682.86 117.7 1682.48 117.6 1682.03 117.52C1681.57 117.44 1681.09 117.4 1680.59 117.4C1679.83 117.4 1679.25 117.507 1678.87 117.72C1678.49 117.933 1678.31 118.347 1678.31 118.96C1678.31 119.24 1678.33 119.467 1678.39 119.64C1678.45 119.813 1678.56 119.967 1678.71 120.1C1678.85 120.22 1679.06 120.327 1679.33 120.42C1679.59 120.5 1679.94 120.587 1680.37 120.68C1680.98 120.827 1681.5 120.987 1681.93 121.16C1682.37 121.32 1682.72 121.527 1682.99 121.78C1683.25 122.02 1683.45 122.32 1683.57 122.68C1683.69 123.04 1683.75 123.48 1683.75 124C1683.75 125.08 1683.39 125.873 1682.69 126.38C1681.99 126.873 1680.98 127.12 1679.65 127.12ZM1687.6 114.22C1687.21 114.22 1686.94 114.16 1686.78 114.04C1686.63 113.92 1686.56 113.64 1686.56 113.2C1686.56 112.747 1686.63 112.467 1686.78 112.36C1686.94 112.24 1687.21 112.18 1687.6 112.18C1687.96 112.18 1688.22 112.24 1688.38 112.36C1688.54 112.467 1688.62 112.747 1688.62 113.2C1688.62 113.64 1688.54 113.92 1688.38 114.04C1688.22 114.16 1687.96 114.22 1687.6 114.22ZM1686.72 116.2H1688.44V127H1686.72V116.2ZM1701.15 116.2V126.24C1701.15 127.733 1700.72 128.9 1699.87 129.74C1699.03 130.58 1697.7 131 1695.87 131C1695.4 131 1694.94 130.973 1694.47 130.92C1694 130.867 1693.6 130.807 1693.25 130.74V129.28C1694.06 129.44 1694.94 129.52 1695.89 129.52C1697.09 129.52 1697.98 129.253 1698.55 128.72C1699.14 128.187 1699.43 127.3 1699.43 126.06V124.98C1699.2 125.62 1698.82 126.12 1698.29 126.48C1697.76 126.827 1696.97 127 1695.93 127C1695.02 127 1694.28 126.867 1693.71 126.6C1693.14 126.333 1692.68 125.96 1692.33 125.48C1692 125 1691.76 124.427 1691.63 123.76C1691.51 123.08 1691.45 122.327 1691.45 121.5C1691.45 120.753 1691.51 120.047 1691.63 119.38C1691.76 118.713 1692 118.133 1692.33 117.64C1692.68 117.133 1693.14 116.733 1693.71 116.44C1694.28 116.147 1695.02 116 1695.93 116C1696.48 116 1696.94 116.06 1697.33 116.18C1697.73 116.287 1698.06 116.44 1698.33 116.64C1698.61 116.827 1698.84 117.06 1699.01 117.34C1699.18 117.607 1699.32 117.9 1699.43 118.22V116.2H1701.15ZM1696.17 125.56C1696.82 125.56 1697.36 125.473 1697.79 125.3C1698.22 125.113 1698.56 124.847 1698.81 124.5C1699.06 124.153 1699.24 123.727 1699.33 123.22C1699.44 122.713 1699.49 122.14 1699.49 121.5C1699.49 120.887 1699.44 120.327 1699.33 119.82C1699.24 119.313 1699.06 118.887 1698.81 118.54C1698.56 118.193 1698.22 117.927 1697.79 117.74C1697.36 117.54 1696.82 117.44 1696.17 117.44C1695.52 117.44 1695 117.553 1694.61 117.78C1694.24 118.007 1693.95 118.307 1693.75 118.68C1693.55 119.053 1693.42 119.487 1693.37 119.98C1693.32 120.473 1693.29 120.98 1693.29 121.5C1693.29 122.06 1693.32 122.587 1693.37 123.08C1693.44 123.573 1693.57 124.007 1693.77 124.38C1693.97 124.74 1694.26 125.027 1694.63 125.24C1695.02 125.453 1695.53 125.56 1696.17 125.56ZM1709.96 116C1710.67 116 1711.26 116.087 1711.72 116.26C1712.19 116.433 1712.56 116.68 1712.82 117C1713.1 117.307 1713.3 117.673 1713.4 118.1C1713.52 118.527 1713.58 119 1713.58 119.52V127H1711.84V120.16C1711.84 119.747 1711.82 119.38 1711.76 119.06C1711.71 118.727 1711.6 118.453 1711.44 118.24C1711.3 118.013 1711.09 117.84 1710.82 117.72C1710.56 117.6 1710.21 117.54 1709.78 117.54C1709.44 117.54 1709.1 117.567 1708.76 117.62C1708.44 117.66 1708.14 117.76 1707.84 117.92C1707.56 118.067 1707.3 118.28 1707.06 118.56C1706.84 118.84 1706.65 119.22 1706.5 119.7V127H1704.78V116.2H1706.5V117.74C1706.66 117.393 1706.87 117.107 1707.12 116.88C1707.39 116.653 1707.68 116.48 1707.98 116.36C1708.29 116.227 1708.61 116.133 1708.94 116.08C1709.29 116.027 1709.63 116 1709.96 116ZM1722.3 113.12H1726.16C1727.14 113.12 1727.95 113.207 1728.6 113.38C1729.26 113.553 1729.78 113.82 1730.16 114.18C1730.56 114.54 1730.84 115 1731 115.56C1731.16 116.12 1731.24 116.787 1731.24 117.56C1731.24 118.373 1731.14 119.067 1730.94 119.64C1730.76 120.213 1730.46 120.68 1730.04 121.04C1729.64 121.4 1729.12 121.667 1728.46 121.84C1727.82 122 1727.06 122.08 1726.16 122.08H1724.1V127H1722.3V113.12ZM1726 120.58C1726.64 120.58 1727.18 120.533 1727.62 120.44C1728.06 120.347 1728.41 120.187 1728.66 119.96C1728.93 119.72 1729.12 119.407 1729.22 119.02C1729.34 118.633 1729.4 118.147 1729.4 117.56C1729.4 117.027 1729.34 116.58 1729.22 116.22C1729.12 115.847 1728.93 115.547 1728.66 115.32C1728.41 115.093 1728.06 114.933 1727.62 114.84C1727.18 114.733 1726.64 114.68 1726 114.68H1724.1V120.58H1726ZM1738.58 127.2C1737.78 127.2 1737.07 127.113 1736.44 126.94C1735.83 126.753 1735.31 126.447 1734.88 126.02C1734.45 125.58 1734.13 125.007 1733.9 124.3C1733.69 123.58 1733.58 122.68 1733.58 121.6C1733.58 120.52 1733.69 119.627 1733.9 118.92C1734.13 118.2 1734.45 117.627 1734.88 117.2C1735.31 116.76 1735.83 116.453 1736.44 116.28C1737.07 116.093 1737.78 116 1738.58 116C1739.38 116 1740.09 116.093 1740.7 116.28C1741.33 116.453 1741.85 116.76 1742.26 117.2C1742.69 117.627 1743.01 118.2 1743.22 118.92C1743.45 119.627 1743.56 120.52 1743.56 121.6C1743.56 122.68 1743.45 123.58 1743.22 124.3C1743.01 125.007 1742.69 125.58 1742.26 126.02C1741.85 126.447 1741.33 126.753 1740.7 126.94C1740.09 127.113 1739.38 127.2 1738.58 127.2ZM1738.58 125.74C1739.19 125.74 1739.7 125.673 1740.1 125.54C1740.51 125.407 1740.84 125.18 1741.08 124.86C1741.32 124.54 1741.49 124.113 1741.58 123.58C1741.69 123.047 1741.74 122.387 1741.74 121.6C1741.74 120.813 1741.69 120.153 1741.58 119.62C1741.47 119.087 1741.29 118.66 1741.04 118.34C1740.8 118.02 1740.47 117.793 1740.06 117.66C1739.66 117.513 1739.17 117.44 1738.58 117.44C1737.98 117.44 1737.47 117.513 1737.06 117.66C1736.66 117.793 1736.33 118.02 1736.08 118.34C1735.84 118.66 1735.67 119.087 1735.56 119.62C1735.47 120.153 1735.42 120.813 1735.42 121.6C1735.42 122.387 1735.47 123.047 1735.58 123.58C1735.69 124.113 1735.87 124.54 1736.12 124.86C1736.37 125.18 1736.7 125.407 1737.1 125.54C1737.5 125.673 1737.99 125.74 1738.58 125.74ZM1751.94 116L1751.88 117.56H1751.64C1751.3 117.56 1750.96 117.593 1750.62 117.66C1750.29 117.727 1749.98 117.853 1749.68 118.04C1749.39 118.213 1749.12 118.453 1748.88 118.76C1748.64 119.067 1748.45 119.46 1748.3 119.94V127H1746.58V116.2H1748.3V118.16C1748.48 117.707 1748.69 117.34 1748.94 117.06C1749.2 116.78 1749.48 116.56 1749.78 116.4C1750.09 116.24 1750.41 116.133 1750.74 116.08C1751.09 116.027 1751.42 116 1751.74 116H1751.94ZM1757.91 125.68C1758.15 125.68 1758.36 125.673 1758.53 125.66C1758.72 125.633 1758.9 125.6 1759.09 125.56V127.02C1758.88 127.047 1758.68 127.067 1758.49 127.08C1758.3 127.107 1758.1 127.12 1757.87 127.12C1757.27 127.12 1756.76 127.08 1756.35 127C1755.95 126.907 1755.62 126.733 1755.35 126.48C1755.1 126.227 1754.91 125.88 1754.79 125.44C1754.68 124.987 1754.63 124.407 1754.63 123.7V117.64H1753.03V116.2H1754.63V113.64H1756.35V116.2H1759.03V117.64H1756.35V123.6C1756.35 124.027 1756.37 124.373 1756.41 124.64C1756.45 124.907 1756.52 125.12 1756.63 125.28C1756.75 125.427 1756.91 125.533 1757.11 125.6C1757.31 125.653 1757.58 125.68 1757.91 125.68ZM1765.29 113.1C1764.91 113.1 1764.61 113.147 1764.37 113.24C1764.13 113.333 1763.93 113.5 1763.79 113.74C1763.64 113.967 1763.53 114.28 1763.47 114.68C1763.4 115.08 1763.37 115.587 1763.37 116.2H1765.91V117.62H1763.37V127H1761.65V117.62H1759.85V116.2H1761.65V116.1C1761.65 115.167 1761.73 114.413 1761.91 113.84C1762.08 113.267 1762.33 112.827 1762.65 112.52C1762.97 112.2 1763.35 111.987 1763.79 111.88C1764.24 111.773 1764.74 111.72 1765.29 111.72C1765.49 111.72 1765.69 111.733 1765.89 111.76C1766.1 111.773 1766.3 111.793 1766.49 111.82V113.2C1766.15 113.133 1765.75 113.1 1765.29 113.1ZM1772.27 127.2C1771.47 127.2 1770.76 127.113 1770.13 126.94C1769.52 126.753 1769 126.447 1768.57 126.02C1768.14 125.58 1767.82 125.007 1767.59 124.3C1767.38 123.58 1767.27 122.68 1767.27 121.6C1767.27 120.52 1767.38 119.627 1767.59 118.92C1767.82 118.2 1768.14 117.627 1768.57 117.2C1769 116.76 1769.52 116.453 1770.13 116.28C1770.76 116.093 1771.47 116 1772.27 116C1773.07 116 1773.78 116.093 1774.39 116.28C1775.02 116.453 1775.54 116.76 1775.95 117.2C1776.38 117.627 1776.7 118.2 1776.91 118.92C1777.14 119.627 1777.25 120.52 1777.25 121.6C1777.25 122.68 1777.14 123.58 1776.91 124.3C1776.7 125.007 1776.38 125.58 1775.95 126.02C1775.54 126.447 1775.02 126.753 1774.39 126.94C1773.78 127.113 1773.07 127.2 1772.27 127.2ZM1772.27 125.74C1772.88 125.74 1773.39 125.673 1773.79 125.54C1774.2 125.407 1774.53 125.18 1774.77 124.86C1775.01 124.54 1775.18 124.113 1775.27 123.58C1775.38 123.047 1775.43 122.387 1775.43 121.6C1775.43 120.813 1775.38 120.153 1775.27 119.62C1775.16 119.087 1774.98 118.66 1774.73 118.34C1774.49 118.02 1774.16 117.793 1773.75 117.66C1773.35 117.513 1772.86 117.44 1772.27 117.44C1771.67 117.44 1771.16 117.513 1770.75 117.66C1770.35 117.793 1770.02 118.02 1769.77 118.34C1769.53 118.66 1769.36 119.087 1769.25 119.62C1769.16 120.153 1769.11 120.813 1769.11 121.6C1769.11 122.387 1769.16 123.047 1769.27 123.58C1769.38 124.113 1769.56 124.54 1769.81 124.86C1770.06 125.18 1770.39 125.407 1770.79 125.54C1771.19 125.673 1771.68 125.74 1772.27 125.74ZM1782.67 127.12C1781.87 127.12 1781.27 126.94 1780.87 126.58C1780.47 126.22 1780.27 125.633 1780.27 124.82V111.8H1781.99V124.38C1781.99 124.927 1782.07 125.28 1782.23 125.44C1782.39 125.6 1782.65 125.68 1782.99 125.68C1783.11 125.68 1783.24 125.673 1783.37 125.66C1783.52 125.647 1783.67 125.62 1783.81 125.58V127C1783.65 127.04 1783.48 127.067 1783.29 127.08C1783.12 127.107 1782.91 127.12 1782.67 127.12ZM1786.88 114.22C1786.49 114.22 1786.22 114.16 1786.06 114.04C1785.91 113.92 1785.84 113.64 1785.84 113.2C1785.84 112.747 1785.91 112.467 1786.06 112.36C1786.22 112.24 1786.49 112.18 1786.88 112.18C1787.24 112.18 1787.5 112.24 1787.66 112.36C1787.82 112.467 1787.9 112.747 1787.9 113.2C1787.9 113.64 1787.82 113.92 1787.66 114.04C1787.5 114.16 1787.24 114.22 1786.88 114.22ZM1786 116.2H1787.72V127H1786V116.2ZM1795.71 127.2C1794.91 127.2 1794.19 127.113 1793.57 126.94C1792.95 126.753 1792.43 126.447 1792.01 126.02C1791.58 125.58 1791.25 125.007 1791.03 124.3C1790.81 123.58 1790.71 122.68 1790.71 121.6C1790.71 120.52 1790.81 119.627 1791.03 118.92C1791.25 118.2 1791.58 117.627 1792.01 117.2C1792.43 116.76 1792.95 116.453 1793.57 116.28C1794.19 116.093 1794.91 116 1795.71 116C1796.51 116 1797.21 116.093 1797.83 116.28C1798.45 116.453 1798.97 116.76 1799.39 117.2C1799.81 117.627 1800.13 118.2 1800.35 118.92C1800.57 119.627 1800.69 120.52 1800.69 121.6C1800.69 122.68 1800.57 123.58 1800.35 124.3C1800.13 125.007 1799.81 125.58 1799.39 126.02C1798.97 126.447 1798.45 126.753 1797.83 126.94C1797.21 127.113 1796.51 127.2 1795.71 127.2ZM1795.71 125.74C1796.32 125.74 1796.83 125.673 1797.23 125.54C1797.64 125.407 1797.97 125.18 1798.21 124.86C1798.45 124.54 1798.61 124.113 1798.71 123.58C1798.81 123.047 1798.87 122.387 1798.87 121.6C1798.87 120.813 1798.81 120.153 1798.71 119.62C1798.6 119.087 1798.42 118.66 1798.17 118.34C1797.93 118.02 1797.6 117.793 1797.19 117.66C1796.79 117.513 1796.29 117.44 1795.71 117.44C1795.11 117.44 1794.6 117.513 1794.19 117.66C1793.79 117.793 1793.46 118.02 1793.21 118.34C1792.97 118.66 1792.79 119.087 1792.69 119.62C1792.59 120.153 1792.55 120.813 1792.55 121.6C1792.55 122.387 1792.6 123.047 1792.71 123.58C1792.81 124.113 1792.99 124.54 1793.25 124.86C1793.5 125.18 1793.83 125.407 1794.23 125.54C1794.63 125.673 1795.12 125.74 1795.71 125.74Z" fill="white" fill-opacity="0.64"/>
</svg>
